<svg id="Calque_1" data-name="Calque 1" xmlns="http://www.w3.org/2000/svg" viewBox="0 0 246.98 250.35"><defs><style>.cls-1{fill:#e0e0e0;}</style></defs><path class="cls-1" d="M124.4,8.62a2.53,2.53,0,0,0-.28,1.28c-.48,0-.94,0-1.48-.05l-.06-.07-.31,0,.25.12h-.17c-1.06.59,1.59.68.45,1.1a29.88,29.88,0,0,0,4.7-1.27,17.23,17.23,0,0,1-2.89.24c.12-.51.47-.86.81-.27a2.35,2.35,0,0,0,.15-1.19,16.28,16.28,0,0,1,2.57-.4l.19.37V8.05s0,0,0,0L129,8h-.54c.14-.08.16-.32.2-.54l-.66.35.1.2c-.85,0-1.7,0-2.54,0a12,12,0,0,0-.44-2.34,1.22,1.22,0,0,1-.4,1c.15.34.83.78.61,1.37a4,4,0,0,0-.49,0,2.28,2.28,0,0,0-.24-.5,1,1,0,0,1,0,.5c-.18,0-.36,0-.54,0C123.9,8.28,123.48,8.63,124.4,8.62Zm-.16,1.29.33-.33a2.54,2.54,0,0,1,0,.34Z" transform="translate(-4.52 -3)"/><polygon class="cls-1" points="139.22 4.7 139.16 4.82 139.46 4.84 139.22 4.7"/><path class="cls-1" d="M134,8.5c-.63-.13-1.36-.27-2.12-.35C132.48,8.34,133.75,8.7,134,8.5Z" transform="translate(-4.52 -3)"/><path class="cls-1" d="M146.69,6.84c-1-.45-6.28-1-3.86-1.6,3.81-.25,3.1.33,4.91.79-1.52-1,4.89-.9,4.17-2.16l-3.37.19c-.06-.2,1.18-.43.26-.66-.27.65-3.58,1.06-6.4.3-2.82.43-1,2.7,1.34,4C143.83,7.42,143.84,7.1,146.69,6.84Z" transform="translate(-4.52 -3)"/><path class="cls-1" d="M103.87,7.32c.18,0,.19.08.21.12C104.42,7.28,104.54,7.19,103.87,7.32Z" transform="translate(-4.52 -3)"/><polygon class="cls-1" points="139.96 5.21 139.33 5.97 142.01 4.97 139.96 5.21"/><polygon class="cls-1" points="145.62 6.1 147.2 5.84 145.88 5.45 145.62 6.1"/><path class="cls-1" d="M157.43,247.69l.17-.39C157.18,247.6,157,247.77,157.43,247.69Z" transform="translate(-4.52 -3)"/><path class="cls-1" d="M241.47,106.86l.64-.71a12.88,12.88,0,0,1-.44-3.27C241.4,104.92,240.76,107.2,241.47,106.86Z" transform="translate(-4.52 -3)"/><path class="cls-1" d="M223,198.91l.54-.33c.09-.54.17-1,.25-1.5Z" transform="translate(-4.52 -3)"/><path class="cls-1" d="M222.53,203.77a18.42,18.42,0,0,0,2-1.85Z" transform="translate(-4.52 -3)"/><path class="cls-1" d="M91.43,245.74l-1.84.22C92.1,246.73,91.11,246,91.43,245.74Z" transform="translate(-4.52 -3)"/><path class="cls-1" d="M149.84,241.44c-.78.24-1.1.44-1,.6C149.61,241.79,150.05,241.59,149.84,241.44Z" transform="translate(-4.52 -3)"/><path class="cls-1" d="M212,34.58c-.18-.28-.31-.49-.48-.74-.94-.76-1.8-1.6-2.85-2.59A10.28,10.28,0,0,0,212,34.58Z" transform="translate(-4.52 -3)"/><path class="cls-1" d="M12.82,81.67l.24-.4C13,81.19,12.91,81.38,12.82,81.67Z" transform="translate(-4.52 -3)"/><path class="cls-1" d="M49.41,40.11a12.41,12.41,0,0,0,1.69-1.55Z" transform="translate(-4.52 -3)"/><path class="cls-1" d="M173.66,12.71c-1.21-.27-.21,0,0,0Z" transform="translate(-4.52 -3)"/><path class="cls-1" d="M223.35,41.52l.05.1C223.31,41.22,223.33,41.29,223.35,41.52Z" transform="translate(-4.52 -3)"/><path class="cls-1" d="M171.94,11.91a13.28,13.28,0,0,0,1.48.61A15.52,15.52,0,0,0,171.94,11.91Z" transform="translate(-4.52 -3)"/><path class="cls-1" d="M172.1,12.31l-1-.34C170.88,12.05,171,12.16,172.1,12.31Z" transform="translate(-4.52 -3)"/><path class="cls-1" d="M175.33,13.14l-1.91-.62c.22.11.31.18.24.19Z" transform="translate(-4.52 -3)"/><path class="cls-1" d="M20.77,186.5c0-.09-.05-.17-.08-.28C19.76,185.22,20.09,185.7,20.77,186.5Z" transform="translate(-4.52 -3)"/><polygon class="cls-1" points="246.64 132.9 246.61 132.74 246.58 132.94 246.64 132.9"/><path class="cls-1" d="M251.19,140.72a9.32,9.32,0,0,1-.1-4.79l-2.19,1.38Z" transform="translate(-4.52 -3)"/><path class="cls-1" d="M251.37,129.62c-.22,1-1.91,2.31-2,1,1.53-3.52,1-2.44,2.06-6.87-.23,1.44-2.21-.11-2.23-2.33.3.34,1.91-.27,2.14.55q-1.06-2.79-2.24-5.47c.45,1.35,1.63.12,2.07-1.19-.3.62-.44-4.85-.85-6.31l-.15,2.42c-.52-6.34-3.46-5.8-4.47-11.87.53.65,2.75,1.38,2.37-1.8-1.25-1.26-5.89-5.29-8-10.27l.27-1.15-1.72-3.82a67.16,67.16,0,0,1,9,12.08c-.09-2.4.52-.8-.35-4.23.21-1.34,1.24,1.69,1.48,2.71-.49-2.72-1-5.43-1.65-8.12-1,.63-2.78-5.78-3.64-5.2,1.23,2.74,2.39,5.5,3.5,8.3-1,.61-4.37-4.18-5.86-9.73,0-1.55,2.26.46,2.59.24a20.8,20.8,0,0,1-2.26-5.65l1.34,2.17c-.58-3.24-3.07-4.55-3.41-8.58-.37-1.29-.1-4.31-.81-4.28-.38,2.56-4,4.37-5.43,3.41-.06-.45-1.45-6.82-1.58-8.45,0-2.43,3.61,2,3.61-.09-.32.06-1.18-.89-1.51-1.3-.37-1.4,1.14.11-.34-2.61-1.27,0-2.75-5.64-1.53-.86-1.65-2.53-1.28-2.94-3.06-6-.1,1.34-3.76-1.44-5.7-3.65.35,0,.3-.79.27-1.16-3.38-5-5.09-7.89-9-12-.14-.6-1.91-2.77-.71-2.3a11.06,11.06,0,0,1-2.91-1.83c-1.92-3,3.06,2.55,1.9-.1-.59.31-4.09-2.39-6.38-3.54,0,1.24,4.43,3.74,6.54,5.23-1,1.05-5.07-.93-10.14-3.67-4-2.3-1.13-1.88-1.89-2.17-7.3-4.76-7.47-1.63-13.42-5.54-2.26-1.93.59-1.74.27-2.58,3.64,1.19,5.06,3,7.34,4.1l-2.62-1.82A13.12,13.12,0,0,1,197,17.45c-1.62-2.13-13.24-6.84-19.67-9.22-1.24-.09-3.35-.28-2.49.31l2.1.47c1.68,1.24-4.14-.13-1.64.93a44.66,44.66,0,0,1-10-1.37l-.54-1.16c0,.32,2.46,1.06,3.62,1-1.7.06-5.8-2.58-7.85-1.48l2.66,1.15c-2.91,0-6.5.64-9.95,0,1.48,1.17.83,0,3.15,1.45-1.93-1.83,8.83,1.31,5.65-.73,2.27,1.82,4.26,1.33,7.22,3.24,0-.35-1-.91,1.8-.08a3.49,3.49,0,0,1,.7-.13l.18.07-.15-.08c.14,0,.15,0,0,0a4.52,4.52,0,0,1-1.32-.87c1.6-.45,6.12.81,7.75.93,1.62.66-.82.16,0,.79l2.43.16c0,.81,3.91,2.71-.07,1.8,1.15.4,2.29.81,3.4,1.29a27.77,27.77,0,0,0,6.19,3c1.43.91,4.22,1.2,2.61,1.06,1.74.73,3.46,1.55,5.15,2.41l-.06.19a94.87,94.87,0,0,1,8.67,5.84.76.76,0,0,0-.59-.17c1.11,1.23,1.93,2.25,2.76,3a15.9,15.9,0,0,0-2.06-2.78,21.5,21.5,0,0,1,4.91,5.37A23.31,23.31,0,0,1,216.22,39l-.14.89c1.73,1.72,3.69,6.23,4.81,6.74,0,3.07,5.59,10.33,7,14.5l.86-.2c1.14,2.75,2.49,5.28,4.09,8.67l.64-.48c1.74,2.81,2.26,8,3.76,12.91a4.63,4.63,0,0,1-.77-2.45c.13,6.3,4.72,12.14,4.63,17.87a7.55,7.55,0,0,1,.66,3.28,1.33,1.33,0,0,0-.11-.32c0,.14.06.34.1.55,0,.63,0,1.3-.05,2a9,9,0,0,0,.11-1.66c.22,1,.59,2.61,1,4.14l-.7.79.08.36c-.06,1.56.57,1.17,1.05.26a19,19,0,0,0,.79,2c-1.12,1.42,1,4.07-.27,5.93.85,1,1.12,7.83,2.52,8.65-.18.06-.26.53-.3-.33a21.21,21.21,0,0,0,.09,5.12l-1.07.73,1.21,3.89c-.75,2.32-1.16,3.22-1.85.88,1,5.66,0,4.5.67,9.4l-.64-.33c-.25,1.67.38,4.57-.5,5.45-1.19,1.7-1.94,6.36-3.75,11.5a70.63,70.63,0,0,1-6.56,15.12c2.65-.82-2.83,3.64-1.69,4.65-.68.28-1.55,1.35-1.17-.23-1.84,4.65-4.24,6.09-5,9.64-.7.23,0-1.26-.51-1-.12.38-.5,1.54-1,1.82s.06-.83.31-1.59c-2.59,4.28-1.81,5.48-.93,6.56-2.1,1.7-2.79,2.76-3.23,4.81-.9.45-2.17,1.35-.38-1.27-1,1.54-7.51,7.87-6.83,8.74a7.82,7.82,0,0,0-2,2.24c-3,2.72-3.28,2.89-6.07,5.69l.92-.62c-.23,2.07-2.18,2.5-4.6,4.57v-.16c-6.33,3.75-2,2.59-8.61,5.76l.79.45c.37,1.75-5.75,2.94-9.11,5.36l1.55-.33c-1.74,1.62-6.69,1.11-8.78,1.87-.52,0,.62-.5,1.14-1-5.75,1.58-.2,1.29-4.1,3.36-1-.2.33-1.76-2.39-.65-1.39.35-7.27,4.87-11.47,5.12,1,.14,2,.26.1,1.26-3,1-8.62.47-11.1,2.42-.42-.06-.59-.16-.62-.26-2.31.67-7.63,1.75-9,2.63-1.26-1.35-4.93-.83-8.39-.28s-6.69.55-6.6-.7a58.94,58.94,0,0,1-7.39-.4l.22-.24a19.21,19.21,0,0,0-8.17,0c-1-.41-.22-.47-.11-.59-6.66-2.08-7.37-1.77-13.31-2.35l-.34-1a27,27,0,0,1-6-2.31,60.23,60.23,0,0,0-9.6-3.92,1.1,1.1,0,0,1,.83,0c-7.49-2.32-14.89-10.55-18.79-9.63l-4.57-2.32c5.24,4-1.58.51.34,2.5-2.26-1.38-5-4.66-2.26-2.93l.32.42c1.79-.45-6.1-5.53-5.22-6.31-9.89-8.31-17.42-18.55-23.54-28.75l-.36,1.85L24.75,184c-.31-1.1.1-1.75,1.55.85-.17-1.7-3-4-3.31-4-2.2-5.44,2.3,1.36,1.55-.27a15.52,15.52,0,0,1-1.19-2.1l.1.56c-1.27-1.55-1.83-1.48-3.28-4.77-.73-2.17.21-1.37-.12-2.19.09,0,0-.32-.54-1.25l-1.64-5-.23,2.32c-1.23-2.05-1.59-4.72-1.84-2.05-.19-3.75-4.34-19.33-3.92-21.66C10.53,141.34,10.6,138,10.36,134c-.15,1-1.21,1.67-1.3-1.85,2.18,1.23,1.12-6.43,2.79-9.15-1.4,2.43.6-9.81-1.29-6.05.49-2.88.87-.09,1.63-2.21-.16-7,3.1-14.84,5.21-23-.23-.22-1.16,1-1-.87l2.94-3.74c.42-1.62-1.09-2.06.91-4.58-.38.31-.95.79-.66-.32,7.59-14.68,15.29-31.2,29.49-41-2,1.17-1,0,.29-1.12-.95.64-.49-.56-.93-.71l6.08-3.81c.1-1.3,2.93-3,4.66-4.34.25.1.31-.15.42-.33a1.66,1.66,0,0,0,.13-.14.43.43,0,0,1,.35.1.92.92,0,0,1,0-.39,1.39,1.39,0,0,0,.46-.81l-.34.29a2.62,2.62,0,0,0-.19-.49l-.53.64c.21-.51-.18-2.1.82-1.78a2.67,2.67,0,0,1,0,.93c.37.25.23-.43.62-.17.58,1.21-.69.71-.6,1.83.47.39.3-1.28.8.12-.59-1.8.82-.2.65-1.72l.35.73c0-.09,0-.26,0-.41l.17.09.17.75c0-1,1.12.25,1.29-.36-.36.19-.51,0-.64-.2l.36-.92c.47.49,1,1.17,1.54.68-.1.18-.8-.15-.72-.6a2,2,0,0,1,1,.49c.67-.52-.49-.69-.39-1.29.69.76.19-.54.38-1l.37.73c1.09.05-.53-1.65.53-1.46l.17,1.18.28-.46.32.88c.14-.84.36-.75.9-.72-.35-.47-.59-1.37-.21-1.59.47.31.18.78.68.41.09.52.23,1.17-.32.6l.18.78c.52.37.76-.23.95-.33a.4.4,0,0,1-.29-.07l.32-1.4a1,1,0,0,1,.26.76c.12-.15.08-.54.29-.71.21.63.51,1.25.31,1.68l.45-1c.17.24.71.56.72.82.57.18.5-1.63,1.27-1.4a.55.55,0,0,1,.06-.41c.59-.09,1.37.46,1.64-.65l.81.95c.38-.47-1.06-1.18-.42-2,.44-.6.6.85.93,1.08.06-.67.12-2,1-1.31-.1.28-.3.17-.44.32l.66.45c-.09,1.21-.58,1,.15,1.71-.8-2.16,1.48-.82.7-3l.45.35c-.09,0,0,.14-.13.15.91.83-.21-1.71.59-1.66a.6.6,0,0,1,.52.64l.32-.74c.17,0,.27.38.11.39l.74-.48,0,.07a9.54,9.54,0,0,1,.1-1.29c.32.24,0,.27.13.52l.26-.69c.39.49.21,1.18-.12,1.22,1.19,2,.17-.71,1.53.27l-.33.41c.71,1.15.88.59,1.63,1.21-.25-.37-1.64-1.63-1.34-2.34.2.12.41.14.52-.39.27.78.46.5.77.35l.33,1c.25-.41,0-.93.09-1.46.43,0,.77.75,1.09,1.39.67,0-.86-1.14-.18-1.58.65.22.87-.32,1.3-1.14.48.23.13.65.36.9l.06-.93c.09,0,.14.26.17.39.17-.41-.3-1,0-1.47-.23-1.19,1.4,1.4,1.55,0,.22.26.12.66.28,1a6,6,0,0,0,.73-2.12l.71.54a1.9,1.9,0,0,1-.35-1.46l.45-.06a4.46,4.46,0,0,0,.14,1.12.58.58,0,0,1,.14-.35,1.09,1.09,0,0,0,.07.45c0,.1.06-.15.1-.45L91,18.13l-.1-.48,1.09.49c.32-1.35.42-3.26,1.33-4a8.09,8.09,0,0,0,.55,2.44c-.56-1-.67.67-1.25.6.3,0,.37.53.35.72l.67-1.24c.2.84.36.58.7.87-.61-1.61.43-1.26.69-1.86.16.55.2,1.14-.3,1.11.82,1.13.2-2.09,1-1.15-.12,0-.2,0-.18.26.15-.56.91-.32.86.2l-.11,0c.81,0,2.32-.52,2.13-2,0,.19.25,1.73.29,2l.36-5.07c.13,1.24,1.19,4,.71,4.86.21.14.48.27.77-.22A4.21,4.21,0,0,1,100,13.9a8.55,8.55,0,0,0,1.28,1.72c-.24-.23-.41-2.18-.1-2.17,0,.29.4,1.88.33,2.1l.37-2a4.74,4.74,0,0,0,.54,2.1c-.15-.36.64-.08.8-.31l-.39-.38c.87.14.35-2.75,1.19-2.83h0c0,.42.17,2.43.63,2.59,0-.46,0-1.52.1-2.6.41,0,.76.05.84.2.07-.21-.43-.39-.81-.57,0-.13,0-.25,0-.38l1-.35c-.21,1.45-.48,3-.68,3.86.38.38.19.63.65.5a.64.64,0,0,1-.25.88l1.12.14c-.23-1.12.64-1.28.45-2.2l-1,1.37c-.24-1.11.15-3.35,1-3.24a10.54,10.54,0,0,1,.23,2.4c0-.4.62-.84.73-.57l-.23.64c.49.37.48-1.59,1.15-.58.19,0,.74,1.39.67.71a28.28,28.28,0,0,1-1-5.24l.66-.23a5.44,5.44,0,0,1,.72,1c.43,1-.13,2.47.24,3.31a2.29,2.29,0,0,1,.13-.85c.22.24,0,1,.44.78-.08-1.16.84,0,.07-1,.36-.38.45.18.92.06a4.83,4.83,0,0,1,.27-2.53l.35.07c0,.11.05.26.08.33.84,0,1.35.5,2.13.43a1.25,1.25,0,0,0,.11.18l-.56.32.58-.29a1.07,1.07,0,0,1,.26.88c.09-.22.16-.62.4-.66.55,1-.52.2-.06,1.36,0-.67.53-1,.83-1.42-.19-1-.8-.13-1.1.32,0-.23.06-.44.06-.67l1.57-.78-1.13.46-.43.25a4.49,4.49,0,0,1,1-3c.62-.41.36.9.46.69,1.24.14.85-2.59,2-1.65.48.88.15,1.81.28,2.46-.5.39-.85-.51-1.21-.44l.48.4c-.15.31-.49.57-.7.33.4.8,2.07,0,3.06.68.15-.31.42-.64.26-1l-.29.14a1,1,0,0,1,.13-.94c.15-.07.34-.12.48-.18-.16,0-.28.06-.44.09a.26.26,0,0,0-.06-.34c.37-.53.79-1.36,1.38-1l.14.87-.07,0c-.11-.22-.34-.4-.46-.14.08-.17.24,0,.41.16a7.3,7.3,0,0,0-.9.31c.33-.06.71-.1,1-.15.18.19.34.2.47-.06.46-.07.89-.15,1.39-.2.1-.11.11-.18-.28-.11a6,6,0,0,0-1,.1s0,0,0,0l-.43-.71a9.78,9.78,0,0,1,.79-1.15L123.9,6,123.5,6c.08,0,.15,0,.23,0-.26-1-.11.12-.52-1.07.29,1.13-.62.55-.81.88l-.24,0c-.27-.39-.5-.17-.92-1,0,.34.21.65-.23.5,0,.1-.06.23-.08.3l0,0,0,0s0,.06,0,0a1.33,1.33,0,0,1,.24.51c-1.14.08-1.54.23-1.66.41-.17-.39-.34-.7,0-1H119c-.35-.4-.8-.53-1.05-.18-.27-.15-.58.89-.4.28l-.81.54,0-.19c-.85,0-1.6,1.41-2.69.12a.92.92,0,0,1-1,.3l-.17-.64c-.33.25-1.16-.52-1.24.18-.6-1.71-1.8-.15-2.48-.38l.09.86a2.33,2.33,0,0,0-1.32.72l.14.75c0,.06-.09,0-.12.08a9.35,9.35,0,0,0-1.68-.53c-.66-.68-1.11.15-1.59.61l-.39.07a1.13,1.13,0,0,1-.45,0l0,0h0c-.14-.11.41-.34.33-.51-.25.13-.63.29-.93.45l-.26-.26a1.88,1.88,0,0,0,.24.28c-.3.16-.48.3-.37.4,0,0-.08,0-.12.09l-.24-.79-.05,0c-.28-.26-.11.41.12,1a1.9,1.9,0,0,0-.21.54c-.42-1.27-.51.54-1-.8,0,.71-1,.72-.88,2.16,0-.19-.13-.26,0-.3-.28-.11-.56-.23-.7.21l-.32-1-.26,1.48a1.7,1.7,0,0,1-.5-1.73c-.54,1.39-.55.6-1,2l-.11-.67c-.24.08-.42,1-.69.54-.82-1.12-2.68.44-4.34-.4.75,1.85-.86-.7-.53.81-.2-.43-.46-.64-.34-1.09-.58.64-1.24-.43-1.39,1-.2-.43,0-.71-.17-1,0,.12-.12.46-.26.21s0-.41,0-.64c-.7.28-.39,1.69-.08,3-.52-.51-.68-.38-.7.55-.24-.39-.58-.78-.18-1.05-.26,0-1.7-.21-1.42.84-.15-.24-.36,0-.39.16a3,3,0,0,0-1.17.27l.2.12c.17,1.31-.36.42-.75.71l0-.13c-1.28-.58-.29.57-1.6-.13L84,15c.44,1.69-1.18-.7-1.55.12l.35.38c-.11.67-1.62-2-2-2.08-.11-.12,0-.27.1-.41-1.16-.7.23,1.05-.3,1.49-.3-.51-.33-1.44-.78-1.4-.36-.37-.59,2.15-1.51,1.32.27.37.54.74.38,1.16-.37.31-1.74-1.13-1.64.33a.72.72,0,0,1-.2-.3c-.2.47-.85,1-.78,1.76-.46-.89-.79-.88-1-.62L73.64,17v0l0,0-.2,0-.39.28-.33.18-.07-.26c-.71.1-.69.79-.67,1.45-.22-.1-.2-.37-.24-.5-1.09-.08-1.18.08-1.42,1.48l-.06,0-.37-.67c0,.54-1.87-.62-2.38.67a.79.79,0,0,1,0-.39c-.61,1.32-3.43-1-2.48,1.95l-.33,1a.4.4,0,0,1,.36.08l-.31.54c-.52-.83-1.16.18-1.57-.7-1.63.89-3.68.88-5.23,1.71l.76,1-.56.23c-.28-.17-.65-.75-.25-.91-.54-.51-.36.87-.24,1.11-1,0-.4-1.43-.64-1.33l-.27.26.14.08c0,.59.23,1.07-.26,1.27-.41-.06-.52-.59-.66-.56s-.1-.1-.19.06l-.73.28.76.71c-.06.58-.66.3.2,1.1-1.31-1.26-2.79.87-3.31.6a1.31,1.31,0,0,1-1,1.33c.23.1.87,1,.38,1.14-1-2-1.29-.36-2.51-1.54.89.73-1.07,1,.24,2-.46.07-.48-.7-1-1-.38,1.25-2.16.72-3,1.68.15.25.57.52.6,1l-1.37-.86c-.12.26.79,1.55-.17.95.2.17.49.43.41.6-2.87.15-3.31,3.78-6.9,3.1.62.26.47.44.29.61.21,0,.44.59.71.89l-1.5-.27c.54,1-.83.73-.25,1.64l.14-.35c.36,1,1.57,1.61,2.53,2.5a22.78,22.78,0,0,1-2.7,2.66l.13-.38c-3,3.5-5,6.06-7.31,8.58-2.09,2.7-4.39,5.46-7.31,9.74L24,61.62a17,17,0,0,1-2.29,3c-.17,2.82,3.08-5.4,3.11-2.68-1.41.84-3.31,4.26-5.17,7.54s-3.21,6.7-4.51,7.22c-1.42,3.12,1.27-.54-.15,2.56l-.84.63.31,1.05c-.86,2.06-1.83,2.9-2.26,2.83a19.91,19.91,0,0,0,.58-2.06c-1.53,2.55-2.65,7.8-3.07,8.7.37-1,.92-2,1.36-3-2.5,9-5.79,20-5.44,29.13l.45-.64c-.06,6.85-1,5.42-.83,12.95l-.08-.27a42,42,0,0,1,.59,5.55c-.56-1.89-.64,3.61-1.28,1.14,1.27,7.39.7,3.68,2.66,8.38l-.46,1.18a13.08,13.08,0,0,1,1.85,5.31c-1-2.93-.59,2.53-1.81-.75-.21,4,1.06,6.82,1.84,9.09a11.37,11.37,0,0,1,1,6c1.45,1.45,1-.22.59-2.06s-1-3.88-.56-2.94c.22-1.8,1.79,2.58,2.55,4.89s-.89,4.79,1.6,10.68c-.26-.57-.4-.56-.65-1.14.59,2.35,2.5,4,3.07,7,1.58,1,1.63,3.44,3.08,3.19A47.2,47.2,0,0,1,16.46,179c1.6,2.92,4.55,4.77,6.59,9.78a13.72,13.72,0,0,1-2.28-2.28c.45,1.57,1.75,2.5,2.23,4.13-1.34.28-3.89-5.9-6.38-8.6.17,1.86,4.17,5.39,2,4.57,3,1.25,2.81,5.71,6.62,8.37l-.83.23a16.73,16.73,0,0,1,2.34,2.46l-2.17-1.26c2.73,2.35,3.26,6,5.93,8.26-4.58-5.39-.31-1.79-1.7-4.47,6.08,5.52,2,5.46,7.49,11.18-.94-1.14-1.79-2.54-.5-1.65A27.77,27.77,0,0,1,39,214.19c4.71,4.43-.13-1.3,2.17.28.85,2.28,2.51,1.94,4.87,3.46l-.52.63c5.28,5.08,2.52,0,7.22,4.56a27.74,27.74,0,0,1-2.87-.82,25.83,25.83,0,0,0,2.89,1.86l-1.14.34c3.47,1.62,4.3,2.42,7.14,4.77-.35-1,1.16-.88,4,.69,1.62,1.54-1.47,0,2.52,2.28a4.52,4.52,0,0,1-3.79-1.79c-.31.12-1.15-.09-1.47,0,1.75,1.7,5.09,3.19,6.53,4A10.21,10.21,0,0,1,65,233.42a62.28,62.28,0,0,0,6.36,2.24c.79.73-.06.59-.91.44,1.25.52,2.26.59,4.06,1.4-.75.38-.94,1.05-3.62.08l6,2.15c.23.51,2.67,2.07,1.81,2,3.22,1.58,8.48,2.27,12.84,3.95a5.26,5.26,0,0,1,1.76.17c4.11,1.56,7.78,3.17,13.09,3.36.89.58,1.78,1.24,2.71,1.76,4.11.26-3.73-2,3.09-1.57,4.8.24,1.64,1.24,3.28,1.79,2.48-.16,6.68-1.15,11.06-.05-1.47.16-2.62-.06-4,0l3.35.8c-4.14.92-7.14.41-4,1.48.32-1.14,3.63-1.06,6.94-1s6.63-.37,6.8-1.49l2.26.37c-.64,0-.74.15-1.37.16,4.44.88,3.1-1.7,8.61-2.19,1.93-.1,3.33,0,2.06.49l4.18-1.2c1.23-.25,1,.23-.22.46l6.38-1.73,0,.07c.83-.57,2.74-1.61,3.67-2.09,1.68-.16-.73.48-.25.61,1.13-.47,2.19-1.12,3.28-1.67,1.57,0-1.06,1.71-3.53,2.28,4,1.26,2.7-1.48,10.11-2.6l-3.17,1.42c2.56.5,5-.77,8.91-1.75-1,.12-8.05,1.17-4.56-.83a12.37,12.37,0,0,0,4.22-2.13c.35.74,2.18-.3,4.54-1.43l.32,1c2.43-1.5,1.92-2,3.15-3.21,2.79-1.44,3.78-1,4.8-.79,4.51-2.35-3.73.55,1.37-2.56,3.7-2,6-4,9.59-7.39,2.5-1.54,0,.85,1,.44l1.48-2.32c.51-.38.52,0,.52.13,1.48-1.63-.54-1,1.92-3.33,0-1.34,6.38-3.35,8.5-7.27,1-.5.11.82.63.9a43.25,43.25,0,0,0,5.25-8.39c1-.86,2.21-1.64,3.17-2.6-2.43,1.84-.87-1.79.46-4.86-.94.59-1.74,1.07-2.22,1.44l2.65-4.46c.52-.38.51.24.36,1.19.13-.33.26-.64.37-.91,1.44-1.24,1.38-.12,1,1.31l-1.67,1.1c-.25,1.42-.42,2.84.25,3a7.72,7.72,0,0,1,.82-1.56c-.07.38-.07.65.11.59s.34-.66.64-1.51l1.71-.24-.21-.52A62.54,62.54,0,0,0,231.4,193c1.8-4.81,2.29-9.46,5.36-16.53,0,2.11,1.13,1,2,1.55-2,1.4-2.44,5.6-4.57,9.12,1.11-1.83,1.32-1.17,1.22-.6l2.54-6.93c.66.51,1.39-1,2.41-2.68-2.11.6,1.13-5.46,1.81-8.37.6,0,.87.9-.7,4.18,2.82-3.2.2-5.45,2.4-8.78-.27.84-.5,1.26-.34,1.68.17-2.11,2.14-6.75,2.24-5.49l-.26.84c2.17-5.49,4.2-17.42,2.69-18.48a5.45,5.45,0,0,1,1.85,1.41,77.8,77.8,0,0,0-3.74-10.77c1.19,1,4.32-2.39,4.78,2.55A19.81,19.81,0,0,0,251.37,129.62ZM186.7,16.5h.1C188.51,17.63,187.91,17.22,186.7,16.5ZM120.13,7.25c-.21-.12-.09-.31-.08-.55l.77-.14C120.56,6.81,120.26,7,120.13,7.25Zm2.34-.82c0-.07,0-.08-.06-.14h0C122.47,6.35,122.44,6.34,122.47,6.43Zm-2.53.29-.2.4a1.29,1.29,0,0,0-.1-.35Zm-1.31-.78V6C118.29,5.69,118.41,5.81,118.63,5.94ZM104.89,11a5.15,5.15,0,0,1,.49-2l.23.52.48-.73c0,.51-.14,1.22-.24,2A6.38,6.38,0,0,0,104.89,11Zm3.79-1.62c0-.26-.05-.58,0-.73,0,0,.32.32.63.66Zm3.69.37h0l0-.05Zm-22.66,6c0-.24.06-.48.11-.7h0l.14.19v-.26l.34-.16a3.53,3.53,0,0,1,.07.6l-.2.1L90,15.31c0,.12,0,.24.05.36ZM90,14.58,90,14.3a1,1,0,0,1,.22.44l-.27.17c0-.11,0-.22,0-.33l-.09.4-.1.06-.52-.7.05-.06.57-.27A2.52,2.52,0,0,1,90,14.58Zm.8,1.74c.1-.1.24-.11.45.05C91.17,16.66,91,16.57,90.75,16.32Zm-1-2.73c0,.05,0,.26.06.38l-.54.28Zm-7.65,7.63c-.06.21-.12.79-.37.36C81.59,20.65,81.85,21,82.14,21.22ZM74.82,17c-.32.48-.6,1-1,.33A9.77,9.77,0,0,0,74.82,17ZM65.23,22.8c.09.4.09.9.4,1.06-.25.32-1.25-.42-.92-.76l.14.11c0-.09-.07-.08-.11-.15Zm-1.93,6c-.2.16-.36.26-.57.4a.69.69,0,0,0-.16-.18C62.76,28.49,63,28.55,63.3,28.79Zm-4.49,2.37c0-.05,0-.07,0-.11h.08ZM57,29.84c.06,0,.17.07.27.14l-.38,0S56.9,29.84,57,29.84Zm-.78-4.34c-.12.34-.16.12-.21-.13ZM19.58,171.79l.15.83C18.72,171,19.14,171.41,19.58,171.79Zm149,72.32c.72-1.25,1.69-1.09,3.35-1.41C171.13,243.2,169.46,244.32,168.62,244.11Zm58-47.7a20.23,20.23,0,0,1,1.86-2.42A4.82,4.82,0,0,1,226.66,196.41Z" transform="translate(-4.52 -3)"/><path class="cls-1" d="M37.19,212.35c-.39-.37-.62-.65-.93-1A6.9,6.9,0,0,0,37.19,212.35Z" transform="translate(-4.52 -3)"/><path class="cls-1" d="M224.38,201.54a.74.74,0,0,1-.6.06C223.66,202,223.78,202.09,224.38,201.54Z" transform="translate(-4.52 -3)"/><path class="cls-1" d="M91.76,245.69l-.14-.05a.31.31,0,0,0-.19.1Z" transform="translate(-4.52 -3)"/><path class="cls-1" d="M234.86,55.32a6.15,6.15,0,0,1,.36,1.79C235.43,57.08,235.4,56.63,234.86,55.32Z" transform="translate(-4.52 -3)"/><path class="cls-1" d="M161,10.4c.9,0,1.8.13,2.69.24a9.81,9.81,0,0,1-2.35-.68C161.39,10.16,161.86,10.51,161,10.4Z" transform="translate(-4.52 -3)"/><path class="cls-1" d="M137.58,3.61c-.41.11-.87,0-1.27.13l.11.38C138.16,4.07,139.38,3.75,137.58,3.61Z" transform="translate(-4.52 -3)"/><path class="cls-1" d="M158.92,7.32c-.11-.73-1.87-.69-3.81-.79l.34,0C154.78,7.46,156.85,7.37,158.92,7.32Z" transform="translate(-4.52 -3)"/><path class="cls-1" d="M154.66,6.5c-.59,0-1.2-.07-1.78-.16C152.62,6.71,153.6,6.48,154.66,6.5Z" transform="translate(-4.52 -3)"/><path class="cls-1" d="M176.54,13.58c-1.21.5,6,.78,1.19-.27C176.93,12.88,176.94,14,176.54,13.58Z" transform="translate(-4.52 -3)"/><polygon class="cls-1" points="154.91 2.27 153.14 1.87 153.73 2.8 154.91 2.27"/><path class="cls-1" d="M172.72,8.33c-1-.36-2-.66-3-1,0,.15-.39.14-.88.1C170.74,7.9,172.74,8.57,172.72,8.33Z" transform="translate(-4.52 -3)"/><path class="cls-1" d="M166.38,7.1c.54.08,1.68.3,2.48.38A9.52,9.52,0,0,0,166.38,7.1Z" transform="translate(-4.52 -3)"/><polygon class="cls-1" points="160.48 3 157.43 2.23 158.32 2.54 160.48 3"/><path class="cls-1" d="M204.66,22.39c-.78-.32-1.86-1-1.6-.43l2.88,1.8C206.4,23.73,205.76,23,204.66,22.39Z" transform="translate(-4.52 -3)"/><path class="cls-1" d="M196.45,15.85l.6-.87-1.65-.41A3.25,3.25,0,0,1,196.45,15.85Z" transform="translate(-4.52 -3)"/><path class="cls-1" d="M204.23,19.62c.44,0,4.63,2.34,1-.25C204.76,19.36,201.69,17.63,204.23,19.62Z" transform="translate(-4.52 -3)"/><polygon class="cls-1" points="229.88 58.4 229.53 57.6 227.99 58.4 229.88 58.4"/><path class="cls-1" d="M250.89,104.48c-.28-4.18-1.2-.8-1.36-4.58-.57-.89.14,3.08-.39,2.16C250,104.44,249.93,105.8,250.89,104.48Z" transform="translate(-4.52 -3)"/><path class="cls-1" d="M249.14,102.06l-.48-1.2A6.86,6.86,0,0,0,249.14,102.06Z" transform="translate(-4.52 -3)"/><polygon class="cls-1" points="54.9 29.73 54.3 30.43 56.55 29.26 54.9 29.73"/><path class="cls-1" d="M179.74,241.63l.08-.33a5,5,0,0,0-2.29.65Z" transform="translate(-4.52 -3)"/><polygon class="cls-1" points="139.54 248.26 140.17 248.19 138.87 247.37 139.54 248.26"/><path class="cls-1" d="M113,252.25c1.26.21,2.77.18,4,.38C114.23,252.46,112.8,251,113,252.25Z" transform="translate(-4.52 -3)"/><path class="cls-1" d="M140.8,5.11c-.29.14-.21.95-.2.77C140.76,6,140.76,5.24,140.8,5.11Z" transform="translate(-4.52 -3)"/><path class="cls-1" d="M137.39,7.73l.07-.08a14.44,14.44,0,0,1,3.74.91c1.92-.28,2.34-.52,2.48-.74-1.91-.06-3.81-.2-5.71-.2l.4-.11-.84.07.24-.25.06-.29-.35.55-.27,0,.23,0Z" transform="translate(-4.52 -3)"/><path class="cls-1" d="M134.25,4.51a.82.82,0,0,1-.27,0c.07.47-.31.39.32.16A1,1,0,0,1,134.25,4.51Z" transform="translate(-4.52 -3)"/><path class="cls-1" d="M133.35,4.33c-.06-.28-.38-.35-.25-.55-.38.23-.31.5-.12,1Z" transform="translate(-4.52 -3)"/><path class="cls-1" d="M132.62,5.63l.19-.18C132.78,5.33,132.73,5.29,132.62,5.63Z" transform="translate(-4.52 -3)"/><path class="cls-1" d="M133,5.32c-.05.35,0,0,.21-.24l-.4.37C132.86,5.65,132.85,6,133,5.32Z" transform="translate(-4.52 -3)"/><path class="cls-1" d="M135.54,8.39c-.12.2-.49-.36-.49,0l.25.37Z" transform="translate(-4.52 -3)"/><path class="cls-1" d="M130.77,4.09a8.63,8.63,0,0,0,.13,1l.27-.29C131,4.64,130.78,4.48,130.77,4.09Z" transform="translate(-4.52 -3)"/><path class="cls-1" d="M130.9,5.11l-.4.44C130.85,5.61,130.92,5.4,130.9,5.11Z" transform="translate(-4.52 -3)"/><polygon class="cls-1" points="124.97 0.45 124.56 1.35 124.74 1.05 124.97 0.45"/><path class="cls-1" d="M128.25,4.14c.17-.49-.23-.84-.05-1.14-.28.09-.51.51-.71.89C127.71,3.68,128,3.73,128.25,4.14Z" transform="translate(-4.52 -3)"/><path class="cls-1" d="M129.84,5.42a1.28,1.28,0,0,0-.31-.74l.15.73Z" transform="translate(-4.52 -3)"/><path class="cls-1" d="M129.69,5.43v0l-.33,0Z" transform="translate(-4.52 -3)"/><path class="cls-1" d="M130.51,5.83l-.45.5.41.17C130.47,6.31,130.39,6,130.51,5.83Z" transform="translate(-4.52 -3)"/><polygon class="cls-1" points="125.54 3.33 125.39 3.27 125.34 3.56 125.54 3.33"/><path class="cls-1" d="M127.86,5.13a.73.73,0,0,1-.59.39,1.43,1.43,0,0,0,.72.22C128,5.51,128.12,5.11,127.86,5.13Z" transform="translate(-4.52 -3)"/><polygon class="cls-1" points="120.56 2.57 120.6 2.7 120.61 2.57 120.56 2.57"/><path class="cls-1" d="M128.41,5.62a.89.89,0,0,1-.42.12c0,.1,0,.17,0,.14C128.21,6,128.31,5.84,128.41,5.62Z" transform="translate(-4.52 -3)"/><path class="cls-1" d="M126.53,4.78a2.55,2.55,0,0,0,.32.4C126.75,4.94,126.56,4.59,126.53,4.78Z" transform="translate(-4.52 -3)"/><path class="cls-1" d="M128.65,5.18a2.23,2.23,0,0,0-.24.44,1,1,0,0,0,.3-.24S128.67,5.25,128.65,5.18Z" transform="translate(-4.52 -3)"/><path class="cls-1" d="M125.9,5.74l.17-.09c-.2-.11-.34-.38-.61-.89a1.39,1.39,0,0,0-.34.81l.84.06Z" transform="translate(-4.52 -3)"/><path class="cls-1" d="M126.57,7.46c.49-.06.33-.61.62-.93-.79.18.23-.4-.36-.82a.92.92,0,0,1,.44-.19,2.24,2.24,0,0,1-.42-.34l0,0h0c0,.09,0,.15,0,.1h0l0,.28c-.24-.16,0-.19,0-.28V5.23h0l-.8.43c.17.1.38.06.76,0C126.7,6.35,126.31,6.68,126.57,7.46Z" transform="translate(-4.52 -3)"/><path class="cls-1" d="M130.49,8.89c.06-.1.11-.4.29-.32s0,.35,0,.59c.12-.19.4-.52.05-.88l-.05.1a2.08,2.08,0,0,1-.21-.31l1.28.08-.13,0h0c-.24-.08-.32-.13,0-.09l.11,0A.72.72,0,0,1,132,7.7c1.59.12.25.16-.24.29,0,0-.06.07-.06.11h0l4.91-.45,0,.1,0-.1.53,0-.51,0,.21-.79c-.56.12-1.3.73-1.67.37a.64.64,0,0,0,.18.4c-.89,0-2,0-3.42.12.87-.75,3.68-1.1,1.94-1.87h-.19c.22-.29.19-.68-.32-.57a.67.67,0,0,1,.17.58c-3,.13-2.13.7-4.08,1.08.88-.08,1.36-.1,1.7-.12a.89.89,0,0,0-.07.28c-.43.16-.73.34.07.46,0,0,0,.1,0,.16l-.85.1a1.82,1.82,0,0,1-.27-.69c0,.26.11.48.15.71L129,8l1.31.08A8,8,0,0,0,130.49,8.89Zm6.1-1.41,0,.11-.7,0C136.15,7.44,136.4,7.28,136.59,7.48Zm-5.2-.68c.44,0,.28.08-.06.2C131.34,6.94,131.38,6.86,131.39,6.8Zm-.12.74a4.45,4.45,0,0,0,.68.07c-.25,0-.45,0-.69.09C131.27,7.64,131.26,7.59,131.27,7.54Z" transform="translate(-4.52 -3)"/><polygon class="cls-1" points="120.55 1.43 120.19 2.54 120.47 2.21 120.55 1.43"/><polygon class="cls-1" points="119.62 1.66 119.4 2.07 119.61 2.33 119.62 1.66"/><path class="cls-1" d="M102.18,6.9l.22.71c.17-.17.34-.11.49,0C102.5,7.06,102,6.16,102.18,6.9Z" transform="translate(-4.52 -3)"/><path class="cls-1" d="M72.61,26.15l.1.78C73,26.79,72.73,26.5,72.61,26.15Z" transform="translate(-4.52 -3)"/><path class="cls-1" d="M115.25,6.16a1.14,1.14,0,0,0-.66-.39C114.93,6.16,115.23,6.77,115.25,6.16Z" transform="translate(-4.52 -3)"/><path class="cls-1" d="M113.88,5.83,114,6a.72.72,0,0,1,.56-.22C114.34,5.47,114.07,5.3,113.88,5.83Z" transform="translate(-4.52 -3)"/><path class="cls-1" d="M120.61,5.15l-.26,0a.46.46,0,0,1,.3.06A.19.19,0,0,1,120.61,5.15Z" transform="translate(-4.52 -3)"/><path class="cls-1" d="M60.32,29.27l-.07,0C60.24,29.58,60.29,29.5,60.32,29.27Z" transform="translate(-4.52 -3)"/><polygon class="cls-1" points="95.24 13.01 95.25 12.97 95.22 12.95 95.24 13.01"/><path class="cls-1" d="M99.26,16.69c.06-1,.24-.88.48-.74l-.65-2Z" transform="translate(-4.52 -3)"/><polygon class="cls-1" points="68.07 23.01 68.05 23.01 68.09 23.16 68.07 23.01"/><path class="cls-1" d="M122.5,4.7l-.39.23c.19,0,.27.13.37.26C122.47,5,122.38,4.72,122.5,4.7Z" transform="translate(-4.52 -3)"/><path class="cls-1" d="M126.09,9.64c0-.1.12,0,.17-.12l0-.38C126,9.18,125.84,9.49,126.09,9.64Z" transform="translate(-4.52 -3)"/><path class="cls-1" d="M123,7.41c.05.69.29.44.56.31h0C123.55,6.75,123.27,7.08,123,7.41Z" transform="translate(-4.52 -3)"/><path class="cls-1" d="M123.87,7.66c0-.38-.11-.07-.25,0A.32.32,0,0,1,123.87,7.66Z" transform="translate(-4.52 -3)"/><path class="cls-1" d="M120.15,5.13c.1-.88-.82,1.09-.12.6C120.17,5.91,120.06,4.85,120.15,5.13Z" transform="translate(-4.52 -3)"/><polygon class="cls-1" points="118.52 6.52 118.78 6.67 118.65 5.82 118.52 6.52"/><path class="cls-1" d="M121.67,9.05c-.27,0-.58-.17-.55.08l.44.22A.36.36,0,0,1,121.67,9.05Z" transform="translate(-4.52 -3)"/><path class="cls-1" d="M116.26,9.93c.09-.22.26-.34.16-.62L116,9.6C115.94,9.89,116.09,10.06,116.26,9.93Z" transform="translate(-4.52 -3)"/><path class="cls-1" d="M117.78,10.89l.07,1,.19-.43A1.7,1.7,0,0,1,117.78,10.89Z" transform="translate(-4.52 -3)"/><path class="cls-1" d="M116.69,11.88c0,.29-.6.89,0,.77C116.7,12.36,117.14,12.08,116.69,11.88Z" transform="translate(-4.52 -3)"/><polygon class="cls-1" points="105.09 8.3 104.84 6.59 104.98 8.33 105.09 8.3"/><path class="cls-1" d="M104,16.39c.61.31-.06-1.07.52-.65.06-.43-.47-.35-.4-.72C103.89,15.51,103.67,15.3,104,16.39Z" transform="translate(-4.52 -3)"/><polygon class="cls-1" points="32.13 34.2 31.61 34.14 32.16 34.45 32.13 34.2"/><path class="cls-1" d="M36.88,38.64l-.76-.81.45.91C36.6,38.66,36.67,38.48,36.88,38.64Z" transform="translate(-4.52 -3)"/><path class="cls-1" d="M83.33,22.52l.46.5-.06-.26C83.59,22.51,83.5,22.51,83.33,22.52Z" transform="translate(-4.52 -3)"/><polygon class="cls-1" points="74.56 20.85 74.64 20.84 74.14 19.96 74.56 20.85"/><path class="cls-1" d="M75.85,26.45c.16,0,.25-.3.42-.32C76,26.42,75.34,25.32,75.85,26.45Z" transform="translate(-4.52 -3)"/><path class="cls-1" d="M55.61,132.74l.22-.1h0A1.8,1.8,0,0,0,55.61,132.74Z" transform="translate(-4.52 -3)"/><path class="cls-1" d="M55.31,132.76l.18,0C55.6,132.7,55.64,132.7,55.31,132.76Z" transform="translate(-4.52 -3)"/><path class="cls-1" d="M55.62,132.72l.08,0c.18-.07-.15.07-.21.05S55,133,55.62,132.72Z" transform="translate(-4.52 -3)"/><path class="cls-1" d="M55.21,133l-.08.07h0l.09-.08a1.36,1.36,0,0,1,.32-.23,6,6,0,0,1-.58.36A1.1,1.1,0,0,0,55.21,133Z" transform="translate(-4.52 -3)"/><path class="cls-1" d="M54,133l0,.07a2,2,0,0,0,1,0A1.9,1.9,0,0,1,54,133Z" transform="translate(-4.52 -3)"/><path class="cls-1" d="M56,133c.06.25,0-.07,0-.07S56,133.24,56,133Z" transform="translate(-4.52 -3)"/><path class="cls-1" d="M53.14,132.13c.49.18.86,0,1.44.28C54.18,132.31,53.8,131.82,53.14,132.13Z" transform="translate(-4.52 -3)"/><path class="cls-1" d="M55.11,132.06a2.55,2.55,0,0,1-.41-.34,1.64,1.64,0,0,0-.22.12A3.15,3.15,0,0,1,55.11,132.06Z" transform="translate(-4.52 -3)"/><polygon class="cls-1" points="50.02 128.54 50.19 128.72 50.27 128.71 50.02 128.54"/><path class="cls-1" d="M55.73,131.91c-.11-.13-.22-.17-.27-.14l.17.4-.09-.06-.11-.18a.76.76,0,0,0,.08.15l0,0-.11-.09,0,0,.05,0h0l0,0,0,0,0,0,0,0,0,.06s.06.07.09.12-.17-.07-.25-.12.13.14.4.19l-.06,0C55.64,132,55.66,132,55.73,131.91Zm-.18.21.08,0a.6.6,0,0,0,.08.13l-.07,0Z" transform="translate(-4.52 -3)"/><polygon class="cls-1" points="52.13 128.98 52.15 128.85 52.11 128.97 52.13 128.98"/><path class="cls-1" d="M55.39,131.65c-.12-.11-.06.08,0,.28,0-.08,0-.14,0-.16S55.39,131.61,55.39,131.65Z" transform="translate(-4.52 -3)"/><path class="cls-1" d="M56.3,131.69l-.1.08a1.84,1.84,0,0,1,.06.67h0l-.31-.07c0-.05,0-.11-.05-.15a.83.83,0,0,1,0,.15l-.16,0,.16,0a1.13,1.13,0,0,0,.05.2l-.12,0,0,0-.06-.15s0-.07,0,0,0,.11.07.17h0a1.86,1.86,0,0,1,.1.25c0-.09-.07-.17-.1-.25l.15-.06s0,.1,0,0a1.16,1.16,0,0,0-.06-.22l.11,0,.21,0a2,2,0,0,1,0,.26,6.2,6.2,0,0,0,.34-.73l-.37-.18Z" transform="translate(-4.52 -3)"/><path class="cls-1" d="M55.89,132.17h0c0-.09,0-.15,0-.1h0v.11h0a1.27,1.27,0,0,1,.31-.4c-.07-.11-.19-.09-.34,0,0-.75.29-1.05.07-1.85-.44.09-.25.63-.38,1,.45-.25,0,.41.3.78a.77.77,0,0,1-.12.22,1,1,0,0,1,.17.31Z" transform="translate(-4.52 -3)"/><path class="cls-1" d="M54.23,129.81c-.4.06,0,.42.09.67a2,2,0,0,1,.29-.58,4.78,4.78,0,0,0-.59-.41Z" transform="translate(-4.52 -3)"/><path class="cls-1" d="M56.56,132.34l-.27.72a6,6,0,0,1,.5-1Z" transform="translate(-4.52 -3)"/><path class="cls-1" d="M65,132.37l.2-.17-.76-.1Z" transform="translate(-4.52 -3)"/><path class="cls-1" d="M41.29,141.68l-.88-.08C40.75,142.28,40.93,141.8,41.29,141.68Z" transform="translate(-4.52 -3)"/><path class="cls-1" d="M51,122.43l.08,0C51.31,122.12,51.18,122.19,51,122.43Z" transform="translate(-4.52 -3)"/><path class="cls-1" d="M67.09,133.89l.62-1c-.73.82-1.78,0-2.7-.48l-.8.65a6.48,6.48,0,0,0-.77-.8,1.43,1.43,0,0,1,1-.12l-.3-.11c.3-.45.94-.47,1.61-.34l-.55.55a5.1,5.1,0,0,0,2.08.1.83.83,0,0,1-.36-.36.63.63,0,0,0,.45,0c.1-.07-.15-.16-.47-.29l1.09-.59-.48.05a14.07,14.07,0,0,0,.13-2c-1.49-.68-3.17-.79-4.53-1.3.12-.17.26-.29.5-.09-.21-.27-.32-.38-.46-.54.39-.33.71-.73,1.22-1.22-.45,1.13,1.42.85,1.8,2a.48.48,0,0,1,.52-.67,11,11,0,0,0-2-1c.67-.54.2-.74.07-1.38-.9,1.48-1.84-.14-2.81-.07.25-.51.74-.92,1.49-.22-.25-1.75-2.21.9-2.53-.45.21.09.27.22.48,0a1,1,0,0,1-.55,0,2.07,2.07,0,0,0-.6-.88l.1,0s-.08,0-.1,0c-1.05-.87-2.59-.11-2.6-1.79-.85.65-.4,1.07.09,1.34a3.18,3.18,0,0,0-1.47.39,8.77,8.77,0,0,0-.45-1.09v0s0,0,0,0a1.78,1.78,0,0,0-1.52-1.07c.18,0,.2-.12.39-.09-.7-.49-1.31.53-2.12-.11-.33,1.07-1,.06-.92,1.42a10.48,10.48,0,0,1,1.4-.48c-.87.43-1.24,2-2.57,1.64a2.18,2.18,0,0,1,.49-1c-.48-.28-.63.45-1.14.18-.3-1.33,1.58-.8,2.39-1.88-.59-.53-1.6,1.28-1.44-.25-.21,1.93-1.77.24-2.3,2l-.27-.77c-.12.19-.28.71-.58.84l.08-1.22c-.44,1.2-2.06.22-2.61,1.23,1.65-1.16.92.54,1.91.6-1.16,2.14-2.39-1.08-4.21,1.32.17-.41,1.36-.71,1.2,0a4.71,4.71,0,0,1-1.73.61c-1,1.7.83.24.76,1.2-1.16,0-.19,1-.22,1.74l-.73-.37c-1.33,1.58,1.32,1.15.14,2.45A10.45,10.45,0,0,1,41.4,129a6.31,6.31,0,0,0,0,1l-.84-.46a2.49,2.49,0,0,1-.28,2.36,1.18,1.18,0,0,1,1.4,1.12c-.52.51-.77-.37-.7.8-.53-.26-1.13-.63-.34-1.1-.27-.07-.49-.32-.75-.41-.63.61-.25,1.66-.21,2.1a.89.89,0,0,1,.19-.49,12.47,12.47,0,0,0,1.22,1.68c-.28.3-.54.12-.81-.07.14.34.51.54.68,1-.68,0-1.38.14-1.77-.61a14.64,14.64,0,0,0,1,1.61c-.28.17-.55,1.06-.85.9-.1,1.15,2,1.89,2.1,3.21a.86.86,0,0,1,.53.24c.46,1.07.49,2.56,2.21,3a11.92,11.92,0,0,0-.2,1.46c1.08.59.17-1.85,1.88-1,1.27.47-.21,1.11,0,1.67,1-.05,2.47-.58,3.2.75-.46,0-.7-.23-1.08-.32l.62,1c-1.56.57-2.27-.35-1.78,1,1.07-1.88,4,1.32,4.66-1.06l.51.6c-.17-.06-.22.07-.39,0,1,1.3,1.12-1.5,2.46-1.09.48.19.85.52.5.79a10.73,10.73,0,0,0,1.1-.62c.32,0,.28.42,0,.41a13.56,13.56,0,0,0,1.67-.41v.07c.18-.39.57-1.06.74-1.36.48.22-.13.29,0,.54l.7-.77c.53.45,0,1.25-.67,1.32,1.49,2,.58-.69,2.83-.17a7.7,7.7,0,0,1-.76.63c1.07,1,1.61.26,3,.41-.51-.15-2.93-.86-2.19-1.84.34.05.75-.06,1-.75.41.7.82.27,1.36-.2l.59.92c.48-.74.09-1.12.12-1.8.71-.48,1.43,0,2.08.35,1.16-1-1.63-.22-.62-1.6,1.09-.58,1.27-1.61,1.34-3.07.67-.54.53.43.93.31l-.48-1c.09-.15.31,0,.42.09-.07-.67-1-.48-1-1.38-1-.49,2.22-1.24,1-2.61.34-.23.65.21,1.07.18A4.81,4.81,0,0,0,67.09,133.89Zm-1-2.75a.84.84,0,0,1-.06-.73C66.39,130.48,66.37,130.77,66.14,131.14Zm-3.36,1.07a.69.69,0,0,0-.15.33,2.62,2.62,0,0,1,0-.29ZM55,129.11c.41-1.19.48-.83.89-1.53.07.06.13.14.2.19v.14s.06,0,.09-.07l.14.1v.33a.45.45,0,0,0,.28-.12c.21.17.35.35.27.57.12,0,.14.06.23.07a17.08,17.08,0,0,0-.34,2.24c-.07,0-.07,0-.16.05.08,0,.09,0,.15,0a7.48,7.48,0,0,1-.11.75,1.44,1.44,0,0,1,.46-.7c.21.2.15.63.57.82-.16.05-.35.13-.34,0l-.07.11a1,1,0,0,0-.42-.06c.07.16,0,.26,0,.39l-.34.55.25-.32.09-.22c0,.1,0,.23,0,.3l-.05.07c-.34.49-1.31.56-1.35.72a3.28,3.28,0,0,1,.47,1.12,3.84,3.84,0,0,1-.74-1.33s0,.21,0,.4c-.16.27-.5.77-.55.41a.86.86,0,0,0,0,.27s0,0,0,0l-.08.07a11.81,11.81,0,0,1-1.82-1.24c.3-.4-.45-.73-.69-1,0-.06,0-.12,0-.18s.09-.18.35-.26c0,0,0,0,0,0a.37.37,0,0,0,.36,0l-.09-.08c.07-.07.22-.06.33-.09h0c.66.15,1.47.63.85.22l-.54-.32a1.48,1.48,0,0,1,.75,0,7.42,7.42,0,0,0-.86-.15c.23,0-.27-.3-.8-.57a2.52,2.52,0,0,0-.26-.47c1.07.73,0-.69,1.14.17-.37-.57.26-.92-.15-2.1h0s.09.09,0,.13c.33,0,.62.06.68-.42l.5.93a8,8,0,0,1,.05-.84l.17.07a5.19,5.19,0,0,0,0-.56A1.58,1.58,0,0,1,55,129.11Zm2.21,1.76c0-.39-.4-1,0-1.38.67-.16.38.38.45.8.06-.46.38-.65.76-.86s.74-.16.72.24C57.36,129.91,57.87,130.52,57.24,130.87Zm1.38,9.38a.71.71,0,0,1-.1-.14l.18-.12s0,.07,0,.11Zm-3.69-5.76.15-.14a.57.57,0,0,1,0,.13A.4.4,0,0,0,54.93,134.49Zm-2.5-3.55.59.32a2.54,2.54,0,0,0-.55-.1A.73.73,0,0,0,52.43,130.94Zm0,.51s0,.05,0,.08-.11,0-.17,0S52.32,131.46,52.41,131.45Zm-4.94,7.44.68-.51c-.11,0-.12-.12-.15-.23l.49-.37c.16.25.26.46.47.74l.36-.75a2.45,2.45,0,0,1,.5,1.14c1.29-.5-1.37-1.22,0-1.8a1,1,0,0,0,.05.74h0l0,0a2.33,2.33,0,0,0,.72.84,15.43,15.43,0,0,1-1.37.77C49.05,139,48.75,139,47.47,138.89Zm2,1.14a.42.42,0,0,0,0-.12l.12,0c0,.2-.11.34-.23.48l-.2.08C49.11,140.21,49.37,140.12,49.47,140Zm1.07.52,0-.05a1,1,0,0,1,.32.19A3.84,3.84,0,0,1,50.54,140.55ZM55,141.72a.8.8,0,0,1-.11-.34c-.33.39-1.16.59-1.5,1.31,0-1.41-.55-1.15-1.17-.95s-1.05.26-.82-.5a1.64,1.64,0,0,0,.39.27c.07-.45.66-1,1.24-1.5a1.6,1.6,0,0,1,.84,1c.88.07.29-.52.47-.76l.53.17.13.24.07-.18a4.54,4.54,0,0,0,1.22.16,1.28,1.28,0,0,1,.27.4c-.2,0-.54.19-.76.25C55.44,141.09,55.13,141,55,141.72Zm.81-.42a1.69,1.69,0,0,0,1,.08c0,.1,0,.21,0,.31C56.53,141.85,56.15,141.51,55.8,141.3Zm4.38,6.26c-.08-1,.27-.65.78-.59C60.81,147.23,60.55,148,60.18,147.56Zm.6-7a.87.87,0,0,0,.23-.16l.27.08C61.31,140.71,61.08,140.68,60.78,140.56Zm2.11-2.87-.12-.06c-1.33.69.2.75-1.3,1.19l.72.39c1.1.92-.55.54-1.17.81,0-.3.08-.59-.42-.31.1.14,0,.5,0,.74a9.12,9.12,0,0,1-.9-.49,1.46,1.46,0,0,0,.07-.19.54.54,0,0,0-.43-.15,10.34,10.34,0,0,0,2.12-1.87l.64.44-.14-.56a.65.65,0,0,1-.37,0,7.3,7.3,0,0,0,1.26-2.17,7.29,7.29,0,0,0-.26,1.22l.22-.13C64,137.1,62.93,137.16,62.89,137.69Zm0-4.4-.28.05a2.75,2.75,0,0,1,0-.49,1.4,1.4,0,0,0,.69.24Z" transform="translate(-4.52 -3)"/><polygon class="cls-1" points="36.93 138.69 36.92 138.65 36.77 138.68 36.93 138.69"/><path class="cls-1" d="M63.89,147.89l-.09-.26c-.26-.17-.43-.1-.77.05Z" transform="translate(-4.52 -3)"/><polygon class="cls-1" points="49.26 146.86 48.98 145.85 49.08 146.83 49.26 146.86"/><path class="cls-1" d="M44.4,147.79c.31.28.84.37,1.15.64C44.69,148.06,45.07,146.73,44.4,147.79Z" transform="translate(-4.52 -3)"/><path class="cls-1" d="M197.12,109.09s0-.29,0-.33,0,.08,0,.24A.78.78,0,0,0,197.12,109.09Z" transform="translate(-4.52 -3)"/><path class="cls-1" d="M195.71,91.9l.6-.64C195.6,91.11,195.83,91.55,195.71,91.9Z" transform="translate(-4.52 -3)"/><path class="cls-1" d="M208.79,110.21l-.09,0C208.83,110.71,208.85,110.54,208.79,110.21Z" transform="translate(-4.52 -3)"/><polygon class="cls-1" points="198.91 104.25 198.88 104.31 198.94 104.3 198.91 104.25"/><path class="cls-1" d="M178.13,104.4a1.09,1.09,0,0,0,.06,1.36c-.83-.05-.64.61-.58,1.38h-1.09c.35.9.93.78,1.47,1.21,0,.94-.71,1.32-1.36,1.74.23,1.67,1-1.41,1.7.37,0,1.35.83,2.16,2.22,3,.2,1-.64.26-.7.7a9.09,9.09,0,0,0,1.17.12c.11.15-.13.28-.26.34.69.28.87-.65,1.72-.15.91-.76.37,2.69,2.24,2.16.1.41-.46.51-.59.92a4.88,4.88,0,0,0,3.21-.59l.83,1c-.46-.8.26-1.39,1-2a2.11,2.11,0,0,0-.2.29,5.48,5.48,0,0,0,.57,0,3.74,3.74,0,0,0-.63,1.52.92.92,0,0,1,.49-.21c-.11.16-.2.31-.17.42s.21-.08.47-.34l.19,1.24.13-.47a11.6,11.6,0,0,0,1.94.8,19.53,19.53,0,0,0,2.37-3,2.48,2.48,0,0,0,.69.24l-.1.07a2.08,2.08,0,0,1,1-.08,5.76,5.76,0,0,1,.42.76c-.94-.77-1.39,1.07-2.64,1.09a.47.47,0,0,1,.48.71,12.35,12.35,0,0,0,1.72-1.57c.28.83.65.42,1.33.48-.09-.11,0-.18-.11-.27,1-.24,1-.44,1.47-1.1.09-.07.19-.13.22-.26s.1-.14.21-.24l.29.63c.43-.61.45-.85,1.34-1.14-.72.64.78.86-.06,1.7,2.65,1,2.79-2.17,4.57-.87,0-2-2.2.08-1.87-.55-.62-.37.2-1.49.75-1.66s2.26,1.28,3.61-.15c-.13.13-.05.23-.19.36.84-.23.47-1.39,1.52-1.68-.6-1,.64-.94-.47-1.7a10.79,10.79,0,0,1-.58,1.52c.28-1-.73-2.35.43-3.29a2,2,0,0,1,.46,1.07c.56-.25.07-.86.59-1.17,1.27.57-.38,2-.09,3.36.8-.18.09-2.24,1.16-1.12-1.39-1.41,1-1.79-.14-3.53l.78.21c-.08-.25-.43-.75-.38-1.14a10.67,10.67,0,0,1,1,.84c-.75-1.22.87-2.42.14-3.62.41,2.5-.86.71-1.34,1.74-1.39-2.28,1.68-2.06.38-4.82l-.28-.4a1,1,0,0,1,.22.43c.13.56,0,1.24-.48.88,0-.16-.06-.35-.1-.56a5.34,5.34,0,0,1-.14-1.54c-1.61-1.71-.42.76-1.43.32.27-1.21-1-.55-1.77-.79l.53-.62c-1.29-1.72-1.46,1-2.46-.51l1.23-.54-.91-.25.66-.69c-1.21.06-1.34-.22-2-.87-.1.6-.81,1.25-1.47.93-.23-.66.62-.56-.39-.93.44-.36,1-.81,1,.08.16-.22.45-.35.62-.56-.24-.76-1.22-.76-1.58-.93.12.1.27.22.3.36l-1.91.37c-.11-.38.17-.53.45-.67-.33,0-.69.21-1.15.09.36-.57.58-1.22,1.36-1.23l-1.75.09c0-.31-.51-1-.23-1.19-.77-.69-2.53.55-3.61-.19a.8.8,0,0,1-.53.25c-1.1-.33-2.2-1.3-3.72-.34a14.71,14.71,0,0,0-.95-1.14c-1.2.37,1.27,1.39-.62,2-1.28.58-.68-.94-1.24-1.17-.68.78-1.35,2.15-3,1.87.33-.39.75-.41,1.1-.6a7.09,7.09,0,0,0-1.25-.21c.84-1.58,2-1.45.63-2,.64,2-4.22,2.27-2.84,4.38l-.84,0c.17-.11.11-.23.28-.34-1.8.07.32,1.89-.94,2.78-.48.3-1,.42-1,0a10.51,10.51,0,0,0-.25,1.34c-.24.28-.53,0-.29-.29a14.81,14.81,0,0,0-.78,1.73l-.05,0c.19.4.5,1.17.61,1.5-.47.29-.14-.3-.45-.3a7.19,7.19,0,0,0,.2,1.11c-.68.21-1-.78-.65-1.41-2.52.14.18.94-1.59,2.67l-.06-1.08c-1.42.37-1.18,1.3-2.09,2.53C175.8,104.91,177.76,103.12,178.13,104.4Zm24.81,5.2c0,.36-.12.15-.24-.06Zm-1.77-.7a9.66,9.66,0,0,1,1.3.42s-.07,0-.1.06a2.53,2.53,0,0,1-.49.31A1,1,0,0,0,201.17,108.9Zm-5,1c0,.57-.39.48-.78.4-.2-.4-.26-.71-.41-1-.66-.81-.28,0-.15.38l-.44-.72.6-.95a.61.61,0,0,1,.42,0c-.07-.08-.18-.15-.26-.23l1.63-.7-.15-.26.1,0c1,.76.37.62,1.38,1.59l-.64-.18c0,.26.72,1,.1,1s-.91.59-1.33,1.11A1.08,1.08,0,0,1,196.13,109.93Zm1.82-4.15-1,.25h0c-.53,0-1.1,0-1.17-.28.44-.3.81,0,.58-.47.53,0,1.2.08.49.43.27,0,.53.08.8.09a.46.46,0,0,0,.15-.23C197.83,105.64,197.84,105.72,198,105.78Zm-3.64,3.35c.09.13.24.34.38.51a1.31,1.31,0,0,1-.63-.21l.2-.32Zm-1.47-2.77-.05-.06h.12l.06.06Zm-.72-.09Zm0,0Zm0,0h0v0h0s0,0,0,0Zm2.27,4.77c-.38-.44.37-.75.34-1.39a1.52,1.52,0,0,1,.26.36c-.08-.2-.27-.54-.23-.6.6.63.18.39.53.9C194.87,110.25,194.45,110.23,194.38,111.06Zm1.12-3.93.09.06-.08-.07,0-.07a2.25,2.25,0,0,0,.3.16l-.3-.17.07-.11a.38.38,0,0,1,.13-.11l.58.23-1.08.47Zm1.91-2.16a4.64,4.64,0,0,0-1.34-.46c.1-.1.22-.07.34-.11a2.18,2.18,0,0,0,1.05.44S197.45,104.94,197.41,105Zm0,2c-.38-.36-.35-.54-.18-.83a11.07,11.07,0,0,1,1.13.45A1.81,1.81,0,0,1,197.42,107Zm.3-2.08s0,0,0,.07l-.06-.11a2.13,2.13,0,0,0,.37,0C197.83,104.94,197.76,105,197.72,104.9Zm-4.47-4.48c0-.08.14-.18.19-.27l.08.14ZM184,110h0a.79.79,0,0,1-.24-.8,1.52,1.52,0,0,0,.16-.81.46.46,0,0,0,0-.2l0,.09s0-.13,0-.16l-.4.37c-.32-.16.11-.49.67-.82.22.46.43.21.65.05a1.9,1.9,0,0,0,.42.15s0,0,0,0l-.35.43.68-.07a1.32,1.32,0,0,1-.58,1.37h0c0-.16-.32-.33-.43-.46a1.08,1.08,0,0,0,.11.5l-.29.18A3.18,3.18,0,0,0,184,110Zm2.72,1.63.53.56a4.78,4.78,0,0,0-.88-.6Zm3.05,2.77a5.48,5.48,0,0,0,.52.31c-.05.15,0,.23-.1.41l-.53.34-.33-.89C189.44,114.56,189.57,114.49,189.72,114.44Zm.64.49s0,0,0,.07l-.21.15ZM194,100.59l.06-.58a.31.31,0,0,0-.1,0l0-.25c-.12,0-.18.18-.22.35l-.25.13-.05-.19a3.91,3.91,0,0,1,.3-.45v.16a2.76,2.76,0,0,1,.08-.27,1.67,1.67,0,0,1,.16-.24c.23,0,.57.28,1,.63C194.59,100.22,194.23,100.46,194,100.59Zm-8.52,11.32c.39,0,.83.16.78-.29h0l0,.23C185.69,112.39,185.59,112.2,185.49,111.91Zm4.52,4.45a1.28,1.28,0,0,1,.24-.11c-.06.1-.07.2-.14.3Zm.48.73a1,1,0,0,1,.76.2C191.07,117.56,190.77,117.44,190.49,117.09Zm11.41-6a3.47,3.47,0,0,0,0-1.33l.75.52c0,.61-.66.43.32,1.1A1.66,1.66,0,0,0,201.9,111.14Zm.78-11.15c.61.14.73,1.55.09,1.31v-.18c-1,1.21,1,1.39.29,2.23a2.7,2.7,0,0,1,1,1.35,4.06,4.06,0,0,1-.48,2.84l1.23.21a3,3,0,0,1-.3.59c-.33,0-1-.22-.76-.56-.7-.1.25.86.45,1-.47.27-.74,0-.93-.36.21.1.42.17.63.27-.83-.71-.68-1-.48-1.42l-2.14.29c.54.2,1.07.46,1.61.7l0,0,.17,0c.27.47.72.84.31,1.23a.45.45,0,0,1-.34-.1,13.49,13.49,0,0,0-4.46-2.82c1.24.24,4.21-.79,4.89.57a1.53,1.53,0,0,0-.1-1.72c-.16.3-1.74.75-1.88.44,1.29-1,.71-.67,1.64-2.07-.2.44-2.15.39-2.24-.11.3,0,1.84-.55,2.1-.38a12.84,12.84,0,0,0-2.28-.84c.45.2,1.55-.49,1.9-1-.14.16-.29-.26-.48-.73C202.4,100.56,202.8,100.34,202.68,100Zm-24.54,3.31c.85.53.36.64,0,1.07C178,104.08,177.62,103.4,178.14,103.3Z" transform="translate(-4.52 -3)"/><polygon class="cls-1" points="191.08 89.02 191.12 89.04 191.19 88.9 191.08 89.02"/><path class="cls-1" d="M176.38,105.84l-.62.68.26.07C176.31,106.45,176.33,106.25,176.38,105.84Z" transform="translate(-4.52 -3)"/><polygon class="cls-1" points="176.1 93.03 175.96 93.17 176.94 93.56 176.1 93.03"/><path class="cls-1" d="M189.09,90.14c-.43,0-.87.33-1.29.39C188.68,90.13,189.39,91.37,189.09,90.14Z" transform="translate(-4.52 -3)"/><path class="cls-1" d="M195.52,109.18a4.29,4.29,0,0,1-.48-.44l.71.78Z" transform="translate(-4.52 -3)"/><path class="cls-1" d="M195.82,110.27c-.16-.24-.19-.53-.46-.62C195.54,109.88,195.69,110.45,195.82,110.27Z" transform="translate(-4.52 -3)"/><path class="cls-1" d="M152.27,119.48c-.23-.46-.64-.56-.74-.87a2,2,0,0,0,.2,1C151.71,119.35,151.86,119.29,152.27,119.48Z" transform="translate(-4.52 -3)"/><polygon class="cls-1" points="145.85 118.51 145.97 118.92 146.24 119.06 145.85 118.51"/><path class="cls-1" d="M130.58,137.67l.13.19c0-.25-.07-.49-.1-.71Z" transform="translate(-4.52 -3)"/><path class="cls-1" d="M116.67,145.81l-.07.77C116.88,146.54,116.7,146.18,116.67,145.81Z" transform="translate(-4.52 -3)"/><path class="cls-1" d="M145.91,125.73a.9.9,0,0,0-.59-.15C145.72,125.83,146.19,126.28,145.91,125.73Z" transform="translate(-4.52 -3)"/><path class="cls-1" d="M144.92,125.85l.16.1c0-.18.09-.33.24-.37C145,125.39,144.78,125.32,144.92,125.85Z" transform="translate(-4.52 -3)"/><path class="cls-1" d="M148.65,123.21l-.11.14a.21.21,0,0,1,.2-.06Z" transform="translate(-4.52 -3)"/><path class="cls-1" d="M106.66,144.14l0-.07C106.5,144.38,106.56,144.33,106.66,144.14Z" transform="translate(-4.52 -3)"/><polygon class="cls-1" points="112.16 142.67 112.14 142.66 112.15 142.81 112.16 142.67"/><path class="cls-1" d="M151.29,124.19c.43.54.43.25.51,0l0,0C151.24,123.43,151.27,123.81,151.29,124.19Z" transform="translate(-4.52 -3)"/><path class="cls-1" d="M152,124.05c-.21-.32-.11,0-.14.12A.19.19,0,0,1,152,124.05Z" transform="translate(-4.52 -3)"/><path class="cls-1" d="M148.65,123.92c.17.09-.46-.76-.26-.56C148,122.58,148.51,124.59,148.65,123.92Z" transform="translate(-4.52 -3)"/><polygon class="cls-1" points="147.69 122.28 148 122.9 148.25 122.92 147.69 122.28"/><path class="cls-1" d="M151.13,126.36h.39a.42.42,0,0,1-.1-.29C151.24,126.17,151,126.16,151.13,126.36Z" transform="translate(-4.52 -3)"/><polygon class="cls-1" points="147.65 123.39 148.05 123.39 147.86 123.3 147.65 123.39"/><path class="cls-1" d="M148,128.52c.13.27.3.36.35.2s0-.39-.19-.59Z" transform="translate(-4.52 -3)"/><path class="cls-1" d="M150.35,129.5a2.25,2.25,0,0,1-.49-.46l.58.89Z" transform="translate(-4.52 -3)"/><path class="cls-1" d="M150,131c-.12-.27.05-.67-.36-.69C149.74,130.54,149.62,131.26,150,131Z" transform="translate(-4.52 -3)"/><polygon class="cls-1" points="85.02 133.03 85.07 133.63 85.2 133.43 85.02 133.03"/><path class="cls-1" d="M89.14,136.51l-.35,1c.07,0,.2-.11.19.14Z" transform="translate(-4.52 -3)"/><path class="cls-1" d="M125.79,144.48l.37.54,0-.26C126,144.5,125.93,144.49,125.79,144.48Z" transform="translate(-4.52 -3)"/><path class="cls-1" d="M157.16,124.61a.24.24,0,0,1,.09.13c.32-.34.44-.13,0-.24Z" transform="translate(-4.52 -3)"/><path class="cls-1" d="M158.7,124.67h-.21C158.41,124.77,158.4,124.82,158.7,124.67Z" transform="translate(-4.52 -3)"/><path class="cls-1" d="M158,124.71l.45,0c.13-.15.43-.4-.18,0C158.6,124.46,158.3,124.64,158,124.71Z" transform="translate(-4.52 -3)"/><path class="cls-1" d="M159,125.89l-.34,0a1.35,1.35,0,0,1-.45.63C158.43,126.41,158.73,126.09,159,125.89Z" transform="translate(-4.52 -3)"/><path class="cls-1" d="M159,125.89l.51,0C159.42,125.63,159.22,125.71,159,125.89Z" transform="translate(-4.52 -3)"/><polygon class="cls-1" points="154.18 124.34 153.6 124.54 154.5 124.28 154.18 124.34"/><path class="cls-1" d="M159.11,128.38c-.25,0-.27-.17,0-.54-.48.15-.67.53-1,.59C158.27,128.53,158.71,128.44,159.11,128.38Z" transform="translate(-4.52 -3)"/><path class="cls-1" d="M159.14,126.87l.55-.47,0-.09C159.53,126.41,159.2,126.66,159.14,126.87Z" transform="translate(-4.52 -3)"/><path class="cls-1" d="M159.71,126.38l0,0a1.26,1.26,0,0,1,.09.21A2.14,2.14,0,0,0,159.71,126.38Z" transform="translate(-4.52 -3)"/><path class="cls-1" d="M161,124.14c-.47.19-.65.54-1.29.7C160.15,124.73,160.69,124.79,161,124.14Z" transform="translate(-4.52 -3)"/><path class="cls-1" d="M160.3,125.34a1.85,1.85,0,0,1-.57.36l.6,0Z" transform="translate(-4.52 -3)"/><polygon class="cls-1" points="156.08 122.68 155.81 122.68 155.82 122.8 156.08 122.68"/><path class="cls-1" d="M160.09,127.58a.54.54,0,0,1,.54.17.72.72,0,0,0,0-.53C160.37,127.31,160,127.45,160.09,127.58Z" transform="translate(-4.52 -3)"/><polygon class="cls-1" points="156.75 126.11 156.86 126.03 156.74 126.08 156.75 126.11"/><path class="cls-1" d="M160.33,127a.51.51,0,0,1,.25.2c.1,0,.16-.07.11-.09C160.75,127,160.56,127,160.33,127Z" transform="translate(-4.52 -3)"/><path class="cls-1" d="M160.2,128.51a2.11,2.11,0,0,0,.27-.36C160.29,128.31,160,128.58,160.2,128.51Z" transform="translate(-4.52 -3)"/><path class="cls-1" d="M159.87,127.1a2.23,2.23,0,0,0,.46-.08.67.67,0,0,0-.3-.06Z" transform="translate(-4.52 -3)"/><path class="cls-1" d="M162.38,128.93c.3-.24.52-1,1.18-1,.49.25-.08.41-.32.73.71-.49,1.33,0,2.44-.49l-.54-.21c.17-.08.51-.06.63-.23-.64.22-1.36.13-.84-.46-.59-.1-2.52,1-3.55,1.73A1.37,1.37,0,0,1,162.38,128.93Z" transform="translate(-4.52 -3)"/><path class="cls-1" d="M161.22,128.51l-.13-.07c-.05.17-.25.37-.67.74a2,2,0,0,0,.84-.1l-.15-.56Z" transform="translate(-4.52 -3)"/><path class="cls-1" d="M162.61,127.33c-.21-.31-.67,0-1.05,0,.44.41-.44,0-.62.58a.6.6,0,0,1-.31-.17,1.85,1.85,0,0,1-.16.4l0,0h0c.07-.06.11-.09.08,0h0l.26-.1c-.06.2-.16.1-.26.1l-.1,0h0l.59.32c0-.15,0-.28-.22-.47C161.57,127.71,162,127.85,162.61,127.33Z" transform="translate(-4.52 -3)"/><path class="cls-1" d="M162.26,124c-.11,0-.37.15-.39,0s.29-.2.49-.34c-.22,0-.61,0-.75.47l.11,0a2.7,2.7,0,0,1-.77,1.13A8.93,8.93,0,0,0,162.26,124Z" transform="translate(-4.52 -3)"/><path class="cls-1" d="M161.82,126l.56.26.43-.54-.33.2C162.47,125.55,162.09,125.84,161.82,126Z" transform="translate(-4.52 -3)"/><polygon class="cls-1" points="156.44 126.3 155.7 126.55 156.81 126.36 156.44 126.3"/><polygon class="cls-1" points="156.75 126.8 156.12 127.03 156.55 127.02 156.75 126.8"/><path class="cls-1" d="M160.65,143.73l.71.23c-.08-.17,0-.22.22-.24C160.92,143.66,160,143.46,160.65,143.73Z" transform="translate(-4.52 -3)"/><path class="cls-1" d="M158.54,154.85l.19.13-.32-.65Z" transform="translate(-4.52 -3)"/><path class="cls-1" d="M142.39,164.83l-.28.74C142.49,165.58,142.34,165.2,142.39,164.83Z" transform="translate(-4.52 -3)"/><path class="cls-1" d="M162.91,135.61c-.26.19-.39.32-.42.44C162.91,135.83,163.53,135.61,162.91,135.61Z" transform="translate(-4.52 -3)"/><path class="cls-1" d="M162.51,136.52l.17-.09c-.13-.11-.23-.23-.19-.38C162.18,136.22,162,136.38,162.51,136.52Z" transform="translate(-4.52 -3)"/><path class="cls-1" d="M161.79,132.07a.29.29,0,0,1-.1.06l.08.15A.27.27,0,0,1,161.79,132.07Z" transform="translate(-4.52 -3)"/><path class="cls-1" d="M131.36,158.87v-.08C131.07,159,131.15,159,131.36,158.87Z" transform="translate(-4.52 -3)"/><polygon class="cls-1" points="162.15 147.56 162.13 147.53 162.1 147.54 162.15 147.56"/><path class="cls-1" d="M166.79,151.39c-.62-.73-.45-.78-.18-.85l-1.91-1Z" transform="translate(-4.52 -3)"/><polygon class="cls-1" points="137.92 161.69 137.9 161.68 137.87 161.83 137.92 161.69"/><path class="cls-1" d="M161.44,130.9c-.18.07-.42.2-.46.13l.29.18C161.19,131.1,161.34,131,161.44,130.9Z" transform="translate(-4.52 -3)"/><path class="cls-1" d="M164.56,126.69l-.34.17a.28.28,0,0,0,.5-.08C164.61,126.77,164.67,126.69,164.56,126.69Z" transform="translate(-4.52 -3)"/><path class="cls-1" d="M163.46,129.9c.65-.25.36-.35.17-.5v0C162.72,129.71,163.09,129.8,163.46,129.9Z" transform="translate(-4.52 -3)"/><path class="cls-1" d="M163.59,129.36a.22.22,0,0,1-.08-.18C163.14,129.3,163.46,129.28,163.59,129.36Z" transform="translate(-4.52 -3)"/><path class="cls-1" d="M162.35,132.38c.14-.13-.87.16-.61,0C160.86,132.54,162.93,132.75,162.35,132.38Z" transform="translate(-4.52 -3)"/><polygon class="cls-1" points="161.03 125.98 160.25 126.34 160.94 126.23 161.03 125.98"/><path class="cls-1" d="M165.49,130.87l.13-.41a.42.42,0,0,1-.3,0C165.35,130.67,165.25,130.94,165.49,130.87Z" transform="translate(-4.52 -3)"/><polygon class="cls-1" points="161.31 126.53 161.34 126.79 161.44 126.37 161.31 126.53"/><path class="cls-1" d="M166.35,135c.29,0,.46-.11.32-.25s-.34-.2-.61-.11Z" transform="translate(-4.52 -3)"/><path class="cls-1" d="M167.61,133.39l1-.15-.44-.14A2,2,0,0,1,167.61,133.39Z" transform="translate(-4.52 -3)"/><path class="cls-1" d="M169.39,134.29c-.29,0-.58-.41-.77,0C168.91,134.31,169.52,134.84,169.39,134.29Z" transform="translate(-4.52 -3)"/><polygon class="cls-1" points="162.7 137.56 162.7 137.46 160.98 137.23 162.7 137.56"/><path class="cls-1" d="M168.53,146.51c.28.47,0,.54,1.09.83.61-.37-.93-.52-.26-.8C169,146.27,168.81,146.77,168.53,146.51Z" transform="translate(-4.52 -3)"/><path class="cls-1" d="M154.25,163.27l.51.47-.08-.26C154.52,163.24,154.43,163.25,154.25,163.27Z" transform="translate(-4.52 -3)"/><polygon class="cls-1" points="145.16 161.49 145.25 161.49 144.87 160.55 145.16 161.49"/><path class="cls-1" d="M145.57,166.38c.18,0,.38-.21.56-.19C145.75,166.42,145.43,165.14,145.57,166.38Z" transform="translate(-4.52 -3)"/><path class="cls-1" d="M151.12,140.16c0,.06.43-.49.52-.58A5.55,5.55,0,0,0,151.12,140.16Z" transform="translate(-4.52 -3)"/><polygon class="cls-1" points="145.45 137.91 144.94 138.4 145.26 138.12 145.45 137.91"/><path class="cls-1" d="M149.51,140.87c-.79.92.23-.06,0,.31l-.18.21.68-.71C149.84,140.74,149.32,141.16,149.51,140.87Z" transform="translate(-4.52 -3)"/><path class="cls-1" d="M151.15,138.85s0,0,0,0c-.31.35-.3.27-.07.14Z" transform="translate(-4.52 -3)"/><path class="cls-1" d="M151.51,138.24a4.21,4.21,0,0,0-.66.7l.32-.28A4.65,4.65,0,0,1,151.51,138.24Z" transform="translate(-4.52 -3)"/><path class="cls-1" d="M150.21,139.56l.14-.11C150.43,139.36,150.45,139.32,150.21,139.56Z" transform="translate(-4.52 -3)"/><path class="cls-1" d="M150.35,139.45c-.13.14-.4.43.11-.09-.25.26,0,0,.18-.15Z" transform="translate(-4.52 -3)"/><path class="cls-1" d="M150.54,139.36a3,3,0,0,1-.57.63C150.15,139.93,150.72,139.3,150.54,139.36Z" transform="translate(-4.52 -3)"/><path class="cls-1" d="M148.44,142.07l.3-.27c-.15.13.17-.3-.09,0Z" transform="translate(-4.52 -3)"/><path class="cls-1" d="M150.38,139l.23-.19a6.19,6.19,0,0,1,.46-.56Z" transform="translate(-4.52 -3)"/><polygon class="cls-1" points="144.77 137.54 145.47 136.92 144.75 137.53 144.77 137.54"/><polygon class="cls-1" points="146.44 135.13 146.87 134.72 146.21 135.34 146.44 135.13"/><path class="cls-1" d="M150.79,138.12l.79-.82a7.63,7.63,0,0,0-.69.58C151.06,137.74,151,137.8,150.79,138.12Z" transform="translate(-4.52 -3)"/><path class="cls-1" d="M150.06,139.17l.48-.56-.48.54Z" transform="translate(-4.52 -3)"/><path class="cls-1" d="M150,139.16h0v-.06A.32.32,0,0,1,150,139.16Z" transform="translate(-4.52 -3)"/><path class="cls-1" d="M149.85,139.52l-.39.33-.08.16Z" transform="translate(-4.52 -3)"/><polygon class="cls-1" points="144.76 137 144.94 136.85 144.97 136.79 144.76 137"/><path class="cls-1" d="M150.06,138.79c-.24.21-.28.21-.33.23a.44.44,0,0,0-.08.22C149.81,139.08,150.1,138.8,150.06,138.79Z" transform="translate(-4.52 -3)"/><polygon class="cls-1" points="145.01 135.8 144.92 135.9 145.01 135.81 145.01 135.8"/><path class="cls-1" d="M149.78,139.19a.44.44,0,0,1-.13.05c-.08.07-.13.12-.09.1S149.61,139.34,149.78,139.19Z" transform="translate(-4.52 -3)"/><path class="cls-1" d="M149.92,138.74c.15-.17.39-.44.25-.31Z" transform="translate(-4.52 -3)"/><path class="cls-1" d="M150.11,138.89l-.33.3L150,139A1.06,1.06,0,0,0,150.11,138.89Z" transform="translate(-4.52 -3)"/><path class="cls-1" d="M149.43,138.9a6.08,6.08,0,0,1-.72.64,9.32,9.32,0,0,1-1,1.09c-.31.19.12-.21.34-.49-.57.61-.94.78-1.8,1.66l.36-.25-.48.47c.48-.47,1-.86.5-.3C147.05,141.4,148.59,139.81,149.43,138.9Z" transform="translate(-4.52 -3)"/><path class="cls-1" d="M149.46,139l.07-.05c.07-.1.24-.3.59-.7l-.6.53,0,.15Z" transform="translate(-4.52 -3)"/><path class="cls-1" d="M148.29,140.33c.08,0,.46-.4.72-.6-.21.06.31-.27.54-.62a.46.46,0,0,1,.18-.09l.19-.28,0,0h0l-.07.07h0l.08-.08h0l-.36.21c-.05.09,0,.1.08.07C149.08,139.56,148.82,139.74,148.29,140.33Z" transform="translate(-4.52 -3)"/><path class="cls-1" d="M147.74,141.74c.08-.07.29-.28.26-.2s-.25.25-.41.43a3.84,3.84,0,0,0,.61-.64l-.08.07a9.6,9.6,0,0,1,.81-1Z" transform="translate(-4.52 -3)"/><path class="cls-1" d="M147.81,141.2l.26-.28c-.06.15.25-.2.46-.4l-.32.19Z" transform="translate(-4.52 -3)"/><polygon class="cls-1" points="145.26 135.54 145.81 135 145 135.74 145.26 135.54"/><polygon class="cls-1" points="145.11 135.52 145.59 135.05 145.28 135.32 145.11 135.52"/><path class="cls-1" d="M148.28,135.85l-.57.47c.12-.06.07,0,0,.12C148.13,136,148.87,135.37,148.28,135.85Z" transform="translate(-4.52 -3)"/><path class="cls-1" d="M148.61,137.84a1.55,1.55,0,0,0,.27-.36C148.59,137.79,148.15,138.24,148.61,137.84Z" transform="translate(-4.52 -3)"/><path class="cls-1" d="M148.82,137.41l-.12.13c.11-.06.2-.11.18-.06C149.1,137.25,149.22,137.09,148.82,137.41Z" transform="translate(-4.52 -3)"/><path class="cls-1" d="M149.45,138.05l.08-.08h-.05A.18.18,0,0,1,149.45,138.05Z" transform="translate(-4.52 -3)"/><polygon class="cls-1" points="136.67 137.59 136.71 137.57 136.72 137.55 136.67 137.59"/><path class="cls-1" d="M140.69,140.83c.76-.52.68-.43.55-.28l1.67-1.32Z" transform="translate(-4.52 -3)"/><path class="cls-1" d="M149.63,138.22l.34-.33-.19.11C149.83,138,149.71,138.12,149.63,138.22Z" transform="translate(-4.52 -3)"/><path class="cls-1" d="M147.08,141.48c-.05,0-.28.18-.37.33.08-.07,0,0,.1-.06Z" transform="translate(-4.52 -3)"/><path class="cls-1" d="M148.06,139.82c-.49.49-.3.35-.18.29h0C148.57,139.44,148.32,139.63,148.06,139.82Z" transform="translate(-4.52 -3)"/><path class="cls-1" d="M147.9,140.1s.06,0,0,0C148.22,139.85,148,140.05,147.9,140.1Z" transform="translate(-4.52 -3)"/><path class="cls-1" d="M149.07,138.3c-.12.13.64-.6.45-.4C150.17,137.31,148.66,138.55,149.07,138.3Z" transform="translate(-4.52 -3)"/><polygon class="cls-1" points="142.54 137.83 142.03 138.29 141.94 138.44 142.54 137.83"/><path class="cls-1" d="M146.55,141l.22-.19c0-.05.08-.2-.1,0Z" transform="translate(-4.52 -3)"/><polygon class="cls-1" points="141.81 138.33 141.69 138.55 141.8 138.41 141.81 138.33"/><path class="cls-1" d="M146.06,140.23c-.22.19-.34.32-.23.26a4.91,4.91,0,0,0,.47-.37Z" transform="translate(-4.52 -3)"/><path class="cls-1" d="M144.73,141.86c.13-.12.26-.26.46-.46l-.78.71Z" transform="translate(-4.52 -3)"/><path class="cls-1" d="M144.4,141.86c-.22.19-.7.48-.58.51C144,142.18,144.27,142.08,144.4,141.86Z" transform="translate(-4.52 -3)"/><polygon class="cls-1" points="140.1 137.1 140.13 137.1 141.44 135.98 140.1 137.1"/><path class="cls-1" d="M141.82,141.12a4,4,0,0,0-1.08.78c-.26.34.85-.65.5-.26C141.57,141.41,141.52,141.32,141.82,141.12Z" transform="translate(-4.52 -3)"/><path class="cls-1" d="M137.77,139l-.49.38.22-.14C137.74,139.07,137.75,139,137.77,139Z" transform="translate(-4.52 -3)"/><path class="cls-1" d="M158.21,110.92a4.94,4.94,0,0,0,.45.63C158.71,111.59,158.28,111,158.21,110.92Z" transform="translate(-4.52 -3)"/><polygon class="cls-1" points="154.84 110.05 154.67 109.82 155.06 110.41 154.84 110.05"/><path class="cls-1" d="M159.1,113.23c.77.94,0-.22.28.08l.17.22-.57-.79C159,112.9,159.35,113.47,159.1,113.23Z" transform="translate(-4.52 -3)"/><path class="cls-1" d="M157.48,111.35l-.08-.09s0,0,0,0C157.65,111.63,157.57,111.61,157.48,111.35Z" transform="translate(-4.52 -3)"/><path class="cls-1" d="M156.85,110.81a4.64,4.64,0,0,0,.59.77l-.23-.36A5,5,0,0,1,156.85,110.81Z" transform="translate(-4.52 -3)"/><path class="cls-1" d="M158,112.3l-.09-.16C157.79,112.05,157.76,112,158,112.3Z" transform="translate(-4.52 -3)"/><path class="cls-1" d="M157.86,112.14c.13.15.37.46-.07-.12.22.29,0,0-.12-.2Z" transform="translate(-4.52 -3)"/><path class="cls-1" d="M157.8,111.94a3.74,3.74,0,0,1,.54.66C158.3,112.42,157.77,111.76,157.8,111.94Z" transform="translate(-4.52 -3)"/><path class="cls-1" d="M159.87,114.15c.12.17-.25-.22,0,.08l.24.26Z" transform="translate(-4.52 -3)"/><path class="cls-1" d="M157.47,112.05l-.15-.25a5.72,5.72,0,0,1-.5-.53C157,111.46,157.26,111.79,157.47,112.05Z" transform="translate(-4.52 -3)"/><polygon class="cls-1" points="154.26 110.38 154.27 110.36 153.75 109.58 154.26 110.38"/><polygon class="cls-1" points="151.78 107.88 152.31 108.62 152.13 108.36 151.78 107.88"/><path class="cls-1" d="M156.38,111.4c-.12-.18-.06-.16.23.13-.31-.38-.53-.65-.73-.88A7.09,7.09,0,0,0,156.38,111.4Z" transform="translate(-4.52 -3)"/><path class="cls-1" d="M157.07,111.83l.47.55h0Z" transform="translate(-4.52 -3)"/><path class="cls-1" d="M157.56,112.4l0,0h-.06Z" transform="translate(-4.52 -3)"/><path class="cls-1" d="M157.89,112.64l.27.43.14.1Z" transform="translate(-4.52 -3)"/><polygon class="cls-1" points="153.77 110.27 153.64 110.07 153.59 110.03 153.77 110.27"/><path class="cls-1" d="M157.2,112.33c.18.26.18.29.19.35a.53.53,0,0,0,.21.11C157.46,112.61,157.21,112.29,157.2,112.33Z" transform="translate(-4.52 -3)"/><polygon class="cls-1" points="152.74 109.95 152.66 109.86 152.66 109.85 152.74 109.95"/><path class="cls-1" d="M157.56,112.66a.63.63,0,0,1,0,.13c.06.08.1.13.09.1S157.69,112.84,157.56,112.66Z" transform="translate(-4.52 -3)"/><path class="cls-1" d="M156.85,112.17l.28.28C157,112.28,156.73,112,156.85,112.17Z" transform="translate(-4.52 -3)"/><path class="cls-1" d="M157.3,112.3l.26.36-.12-.21Z" transform="translate(-4.52 -3)"/><path class="cls-1" d="M158.83,114.8c.18.31-.19-.14-.44-.4l1.53,1.92-.24-.36.43.51c-.43-.51-.79-1-.29-.5-.29-.42-1.73-2.1-2.56-3a8.51,8.51,0,0,1,.58.77A9.43,9.43,0,0,1,158.83,114.8Z" transform="translate(-4.52 -3)"/><path class="cls-1" d="M157.18,112.85h.14l.06.08,0-.08-.64-.65Z" transform="translate(-4.52 -3)"/><path class="cls-1" d="M158.56,114.24a6.88,6.88,0,0,0-.53-.77c0,.2-.24-.33-.56-.61-.07-.11-.08-.15-.08-.18l-.26-.23,0,0h0c.06.07.1.11.06.08h0l-.07-.09h0l.17.37c.08.07.09,0,.07-.06C157.87,113.37,158,113.65,158.56,114.24Z" transform="translate(-4.52 -3)"/><path class="cls-1" d="M159.51,114.61l-.86-.94L159.8,115c-.06-.08-.24-.31-.17-.27l.37.46a5.21,5.21,0,0,0-.55-.69Z" transform="translate(-4.52 -3)"/><path class="cls-1" d="M159.25,114.75a.63.63,0,0,0-.2-.28,4.74,4.74,0,0,0-.32-.42l.1.2a0,0,0,0,0,0,0s0,.06.06.09l0,.07,0,0a1.84,1.84,0,0,0,.36.4s0,0,0,0l.06.06Z" transform="translate(-4.52 -3)"/><polygon class="cls-1" points="152.41 109.58 151.93 108.98 152.59 109.85 152.41 109.58"/><polygon class="cls-1" points="152.39 109.72 151.96 109.21 152.2 109.54 152.39 109.72"/><path class="cls-1" d="M154.3,114.07l.53.52c-.08-.11,0-.07.12,0C154.48,114.2,153.76,113.54,154.3,114.07Z" transform="translate(-4.52 -3)"/><path class="cls-1" d="M157.11,119.06l-.51-.49.34.34Z" transform="translate(-4.52 -3)"/><path class="cls-1" d="M156.23,113.67a1.55,1.55,0,0,0-.36-.27C156.19,113.68,156.63,114.14,156.23,113.67Z" transform="translate(-4.52 -3)"/><path class="cls-1" d="M155.81,113.46l.13.12c-.07-.11-.12-.2-.07-.18C155.64,113.18,155.49,113.06,155.81,113.46Z" transform="translate(-4.52 -3)"/><path class="cls-1" d="M156.35,112.77v0a.13.13,0,0,1,.07,0Z" transform="translate(-4.52 -3)"/><path class="cls-1" d="M156.31,123l-.06,0C156.49,123.19,156.46,123.15,156.31,123Z" transform="translate(-4.52 -3)"/><polygon class="cls-1" points="155.5 117.38 155.47 117.36 155.45 117.34 155.5 117.38"/><path class="cls-1" d="M152.4,118.67c.71.69-2.08-1.13.36.74l.55.52a16.39,16.39,0,0,1,1.51,1.06c.12.14-.81-.46-.91-.59l.13.08c-1.28-1-.54-.22-1.42-.86-.07.23-.93-.1-1.11,0l1,.68-.1,0c-.25-.14-.82-.53-.74-.54-.6-.38.43.41.65.56a9.39,9.39,0,0,1-1.21-.84l0,.09.13.07c.39.32.84.62.75.64s-.65-.4-.7-.42-.11-.07,0,0l-.14,0,.83.51a2.47,2.47,0,0,0,.6.47s0,0,0,0c-.52-.3-.68-.31-.71-.24s-.18-.08-.13,0l.11,0c0,.06,0,.09-.18,0a2.64,2.64,0,0,1,.45.4v0s0,0,0,0h0v0a13.09,13.09,0,0,1-1.33-.67c.87.5.33.37,1.26.93h0l.22.13a1.74,1.74,0,0,1-.23-.12h0s-.13-.08-.17-.09c-.24-.15-.52-.33-.8-.48a.32.32,0,0,1,.11.13s0,.06,0,.1a1.43,1.43,0,0,1-.34,0l-.13-.21.09.2c-.15,0-.28-.05-.22,0l.33.2,0,.08-.66-.36c.06.06.5.34.72.48l0,.05-.2-.1.21.12.07.17c-.58-.06.53.87-1,.27L150,122s0,0,.05.08l-.34-.14a3.55,3.55,0,0,1,.38.2.8.8,0,0,1,.17.28l0,0,.05,0c0,.08.05.16,0,.2l-.74-.4s-.06-.09,0-.11l.09,0-.19-.12-.33-.14.43.22-.1.32c.09-.11.23,0,.36.08-.08-.1-.16-.2-.22-.29l.72.43c-.16.19-.57.22.19.89-1-1-.71-.22-1.67-1,.21.28.48.47.15.5l.12.29h0l0,0s0,.06,0,0a1.85,1.85,0,0,1,.42.34c.34.73-.06,1,.05,1.42-.24,0-.17-.36-.46-.61l.16.65c-.46-.62-1.11-.8-1-1.39l-.33.17c-.42-.23-.77-.21-.74.15-.24,0,.09,1-.11.36l-.23.71-.11-.15c-.52.22-.32,1.71-1.6.9-.06.26-.11.57-.49.56l-.39-.53c-.09.34-1-.2-.72.45-1.13-1.41-1.23.24-1.77.18l.41.76c-.29.1-.42.45-.58.94l.05.08c-.2,0,.1-.16-.65.08l.2,0c-.31.09-.65.22-1,.34a.21.21,0,0,0-.11,0l-1.85.66c-.41-.46-.83-1-.53-.38l.28.47c-.33.13-.65.26-1,.37,1.39-.39-1.95.9.05.35-.31.14-.51.15-.86.29.67-.2.82-.21.55,0l-.16.05c.23.14-.39.46-.73.85l.74-.29a3.24,3.24,0,0,1-.49.28c1.16-.38,0-.17,1.29-.59-1.41.6-.17.41-1.42,1,0-.05,0-.06,0-.11s0,.07,0,.12l-.15.08a1.26,1.26,0,0,0,.15,0c0,.08,0,.13,0,.19l-.17.07c.05,0-.12,0-.16,0-.53.29.26.12.09.21l.23-.16a4.65,4.65,0,0,0-.18,1.45l-.24-.63c-.15.09-.06,1-.37.55-.85-1-1.85.57-3.19-.17.87,1.79-.74-.66-.24.78-.22-.42-.44-.62-.43-1.06-.32.6-1-.46-.86.87-.21-.42-.12-.68-.26-.92,0,.1,0,.43-.16.18s-.06-.39-.06-.61c-.45.24,0,1.62.38,2.91-.46-.52-.55-.39-.45.51-.23-.39-.52-.78-.26-1-.2,0-1.25-.27-.93.77-.14-.24-.27,0-.28.14-.4.07-.47,0-.81.22l.15.13c.24,1.31-.23.38-.5.62l0-.13c-1-.71-.18.52-1.19-.32l.26.77c.41,1.7-.91-.82-1.14-.07l.27.41c-.07.64-1.25-2.13-1.52-2.28-.08-.14,0-.26.05-.39-.83-.84.2,1.06-.17,1.42-.22-.54-.26-1.45-.57-1.47-.26-.43-.38,2-1,1.06a1.74,1.74,0,0,1,.26,1.19c-.29.22-1.23-1.46-1.2,0a.91.91,0,0,1-.13-.33c-.16.4-.65.75-.64,1.52-.79-2.71-1.24,1.66-1.73-.89l-.72.3,0-.27c-.5-.07-.57.55-.63,1.19-.14-.16-.1-.41-.11-.54-.79-.42-.83-.3-1.22,1.06l-.19-.82c-.09.51-1.19-1.16-1.74-.08a1.36,1.36,0,0,1,0-.39c-.66,1.12-2.08-2.08-2,1l-.44.79c.7.18,0,1.34.36,1.82-.25.2-.78-.86-.47-1l.07.15c0-1.6-.89-.49-1-1.58-1.31.19-2.62-.56-3.83-.63l.18,1.24-.43-.07c-.12-.28-.18-1,.13-.92-.19-.7-.49.6-.5.87-.6-.49.2-1.45,0-1.48l-.24.1.06.14c-.19.52-.19,1.05-.56,1-.24-.24-.13-.76-.22-.81s0-.13-.14,0l-.53-.1.22,1c-.24.49-.51,0-.25,1.07-.38-1.68-2-.6-2.24-1.16-.35.7-.68.67-1.09.57.1.21.12,1.31-.23,1.16.21-2.27-.62-1-.82-2.66.2,1.1-1,.23-.7,1.78-.28-.19,0-.85-.16-1.39-.76.87-1.48-.68-2.35-.48a2.82,2.82,0,0,1-.17,1.19l-.3-1.53c-.18.13-.33,1.7-.53.63,0,.26,0,.64-.09.73-1.49-1.58-3.64.75-4.86-2.26.12.61,0,.64-.22.63.09.16-.13.73-.18,1.13l-.5-1.23c-.35,1.08-.77,0-1.06,1l.26-.15c-.55,1.19-.12,2.84-.47,4.43.62-1.36.56,2.26,1.51.33.08.35-.2.5-.19.88.27-.66.47-.77.75-.41l-.07.17c1,0,1.26.77,2.27,1.36l0-.81c.22.13.23.39.31.6.42-1.18-.63-.14-.21-1.45.09,1.66,1.59.2,1.59,2.07.35.05,0-.94.35-.89l0,.51.16-.64c.22.13.27.77.24,1.2-.06-.06-.18.1-.24.13.24.62.88-.11,1,.09l-.31-.34c1-.37,2.15.43,3.15-.58l0-.38c.75-.68.55.44,1.35.14l0,.09c.17-.37.38-.55.59-.5-.21.44.34.88.07,1.36.8-.72.41-.57,1-2l.1.64c.18-.56.2-.86.59-1-.33.53.23,1-.14,1.67.81,1.42,1.23-1.39,1.6.63.37-1.75-.71-.95-.5-1.33-.17-.57.31-1.31.56-1.14s.45,2.22,1.12,2.17c-.07,0-.07.13-.14.12.26.44.48-.61.8.1.14-1.05.39,0,.4-1.29l-.59.32c.34-.36.6-1.94,1.18-1.19a2.86,2.86,0,0,1-.29.84c.17.39.3-.27.49.13,0,1.35-.72.31-1.06,1.35.19.56.67-1,.53.47.2-1.86.66.22,1-1.21v.81c.07-.13.2-.52.33-.5l-.19,1.05c.32-.9.75.77,1.07.25-.73.08-.21-1-.55-1.53.82-1.14.63,2.07,1.63,1.6-.13.13-.55-.44-.36-.83a1.92,1.92,0,0,1,.63.85c.66-.23-.17-.82.08-1.34.31,1,.3-.42.56-.76l.07.81c.81.46.06-1.71.79-1.14l-.19,1.16.33-.33,0,.94c.32-.72.46-.55.87-.33-.15-.56-.11-1.48.22-1.54.28.47,0,.79.42.63,0,.52-.1,1.17-.39.44l0,.78c.31.54.64.08.81,0a.31.31,0,0,1-.21-.17l.56-1.22a1.14,1.14,0,0,1,0,.81c.13-.11.18-.5.37-.6,0,.67.13,1.35-.12,1.7l.57-.83c.08.28.44.74.39,1,.42.33.72-1.42,1.28-1a.64.64,0,0,1,.13-.37c.47.09,1,.83,1.4-.15l.51,1.13c.38-.33-.66-1.42,0-2,.42-.44.36.95.59,1.26,0,.3.07.68,0,1-.12-.16-.17-.22,0,.44l0,0a3.53,3.53,0,0,0,0,.66l.69-.43c0,.3-.18.47-.3.67,1.24-.23-.29-.75,1.06-1-1.31,1,.81,1.77-.65,2.87.22.39.74-.57,1-.19l-.38.36.62-.24c0,.3-.41.76-.77,1,0-.09-.21-.12-.28-.16-.3.64.72.84.65,1l0-.54c1.06.76,1.41,2.38,3,2.6l.24-.31c1.08.2.12.81,1,1.28l-.09,0c.41-.12.71-.08.86.14-.48.14-.29.94-.86,1.06,1.2.14.76-.09,2.17-.71l-.32.56c.53-.29.75-.5,1.19-.32-.64.16-.4.92-1.19,1.18-.13,1.75,2-.16,1.14,1.72,1.41-1.12-.1-1.29.33-1.43.19-.57,1.1-.81,1.22-.49s-.92,2.13-.2,2.56c-.07-.05-.15,0-.21,0,0,.54.84-.18.76.63.74-.78.38.32,1.13-.8l-.78-.12c.56-.08,1.66-1.2,1.85-.24a2.51,2.51,0,0,1-.75.53c0,.44.46,0,.44.41-.72,1.15-.93-.17-1.84.44-.1.61,1.24-.37.3.76,1.21-1.42.62.61,1.79-.37l-.41.7c.14-.07.47-.32.61-.23l-.75.79c.82-.58.45,1.13,1.09.87-.88-.37.22-1,.13-1.66,1.45-.52-.31,2.18,1.08,2.36-.21,0-.43-.71,0-.95a2.09,2.09,0,0,1,.33,1.12c.89.14.17-.81.7-1.15-.08,1,.53-.24,1-.43l-.27.78c.76.81.77-1.54,1.37-.67l-.67,1,.52-.14-.36.87c.68-.52.77-.33,1.19,0,0-.58.42-1.42.82-1.35.17.54-.33.72.28.74-.24.48-.53,1.07-.62.27l-.34.72c.19.62.77.31,1,.36a.4.4,0,0,1-.2-.25l1.08-1a.88.88,0,0,1-.21.78c.19-.06.38-.41.65-.45-.17.65-.25,1.34-.7,1.59l1-.6c0,.29.34.85.2,1.08.47.48,1.33-1.19,1.93-.63a.6.6,0,0,1,.25-.33c.58.2,1.14,1,1.83.05l.46,1.18c.55-.29-.61-1.48.27-2,.61-.41.31,1,.57,1.32.29-.64.68-1.92,1.38-1-.16.25-.34.1-.51.21l.54.6c-.42,1.15-.9.82-.34,1.7-.21-2.3,1.84-.47,1.5-2.79l.38.42c-.09,0-.08.13-.17.12.8,1,.1-1.72.86-1.54a.62.62,0,0,1,.44.71l.4-.7c.17,0,.24.4.07.4l.77-.42,0,.07a10,10,0,0,1,.16-1.26c.3.26,0,.27.11.53l.27-.67c.37.52.19,1.18-.16,1.19,1.14,2.06.2-.64,1.54.28l-.33.44c.72,1.13.91.55,1.72,1.11-.3-.34-1.74-1.54-1.44-2.27.2.12.41.12.5-.41.3.76.49.48.79.31l.4,1c.23-.45,0-.95,0-1.48.41-.08.85.64,1.24,1.24.69-.14-1-1-.37-1.54.68.14.84-.44,1.07-1.33.52.14.27.61.54.82l-.13-.93c.08,0,.19.23.24.35.08-.43-.52-1-.3-1.42-.53-1.06,1.69,1,1.4-.43.28.18.32.58.58.91a4.88,4.88,0,0,0,0-2.21l.83.25c-.79-.41-1-1.48-1.2-2.33-.34-.24-.64-.44-.79-.53l.09-.82a2.21,2.21,0,0,1,.57.83l-.07-.27a2.49,2.49,0,0,1,1,1.3l-.6-.38a8,8,0,0,0,1.05,1.75.63.63,0,0,1,0-.36,1.25,1.25,0,0,0,.24.38c.09.08,0-.16-.1-.44l.89.85-.28-.4h1.19c-.33-1.37-1.16-3-.89-4a9.51,9.51,0,0,0,1.75,1.8c-1-.59-.22.86-.76,1.07.27-.1.58.3.64.48l0-1.37c.6.62.6.31,1,.37-1.35-1-.35-1.29-.49-1.91.45.36.82.81.4,1.07,1.31.46-1.05-1.82.09-1.46-.06.1-.17.08,0,.3-.21-.5.47-.76.77-.32l-.06.09c.63-.46,1.41-1.82.23-2.72.16.09,1.4,1.05,1.61,1.26a49.81,49.81,0,0,0-3.41-3.67c1,.74,3.77,1.88,4,2.78.24-.06.56-.14.37-.71a4.22,4.22,0,0,1-1.71-.84,6.32,6.32,0,0,0,2.08.17c-.32,0-1.94-1.07-1.76-1.27a19.46,19.46,0,0,1,1.84,1.05l-1.37-1.49a4.77,4.77,0,0,0,2,.83c-.36-.09.29-.57.2-.84l-.53.11c.59-.66-2.16-1.8-1.79-2.42.34.22,2.18,1.09,2.57.78-.85-.55-4.2-2.34-4.76-3.05l.57.06-.49-.59a23.9,23.9,0,0,1,5,3.26c.51-.15.65.13.75-.34a.63.63,0,0,1,.66.65l.67-1c-1.1-.27-.85-1.14-1.8-1.34.31.48.54,1,.8,1.47-1.11-.31-2.86-1.56-2.54-2.17a11.1,11.1,0,0,1,2.31.7c-.36-.2-.57-.88-.28-.89l.52.45c.52-.34-1.33-1-.15-1.28.11-.15,1.53-.29.87-.42a30.42,30.42,0,0,1-6.26-.86,13.6,13.6,0,0,1,2-.66c1.05-.15,2.37.69,3.27.57a2.23,2.23,0,0,1-.78-.33c.28-.14.95.19.86-.22-1.14-.19.19-.78-1-.28-.29-.4.26-.38.24-.83a5.61,5.61,0,0,1-2.84-.86,3.14,3.14,0,0,0,.86-.07c.15-.7.61-1.1.61-1.78.28-.07.61-.43,1.11-.32-.21-.09-.6-.15-.64-.36,1-.5.18.47,1.36.07-.66,0-1-.51-1.42-.77-1,.2-.11.7.3,1a6.41,6.41,0,0,1-3.69-.86c-.41-.45.9-.33.68-.39.15-1-2.58-.41-1.7-1.32a8.73,8.73,0,0,1,2.41-.57c.43.37-.44.76-.35,1l.36-.43c.32.09.62.34.37.54.76-.41-.13-1.73.38-2.68-.34-.06-.71-.22-1,0l.19.21c-.66.39-1.11-.18-1.36.2-.59-.18-1.46-.27-1.17-.8l1-.39c-.28.1-.51.46-.18.49-.47,0,1.15-1.1-.22-.86l-.58.52c-.61-.13-1.77-.09-1.58-.54-.91.52.14,0-.91.69,1.34-.71.24.85,1.62,0-1.23.68-.42.62-1.48,1.28.33-.11.6-.3.51,0l.31,0,0,0,0,0h0a1.64,1.64,0,0,1,.46-.29c.8-.08.91.41,1.35.47-.11.22-.4,0-.73.21l.66.1c-.74.2-1.15.74-1.66.44l0,.37c-.38.3-.49.6-.14.72-.13.19.92.29.3.24l.55.5-.19,0c0,.55,1.42,1.08,0,1.81.2.18.44.38.24.7l-.66.07c.24.24-.69.68,0,.81-1.78.16-.44,1.08-.83,1.45l.85.13c-.09.28.14.58.41,1l.75.12c.54.44-.71.71-.74,1.2-.27-.1-.17-.2,0-.25-1.76.12.83,1.56-.51,1.73.22.22.1.28-.12.3l0-.05,0,.05-.45,0a2.08,2.08,0,0,0,.44,0,.8.8,0,0,0,.12.5l-.78-.26v0c-.33,0,.31.26.91.42a2.3,2.3,0,0,0,.38.39c-1.26-.42.24.58-1.11.15.58.38.1.92,1.33,1.68-.17-.08-.27-.08-.24-.17-.24.1-.47.18-.19.53l-.94-.45,1,1.06a2.25,2.25,0,0,1-1.6-.84c.73,1.13.15.62.88,1.73l-.54-.4c-.07.16.51.94,0,.7-1.26-.44-1.39,1.51-3,1.42,1.56,1.25-1-.28.1.82-.37-.29-.66-.39-.82-.79-.06.68-1.05,0-.44,1.16-.35-.31-.37-.59-.6-.76,0,.1.16.41-.06.24s-.21-.35-.29-.55c-.3.38.56,1.5,1.4,2.58-.63-.32-.67-.17-.28.66-.36-.29-.76-.56-.6-.89-.19.08-1.28.18-.69,1.06-.2-.19-.26.08-.24.22-.39.19-.48.13-.77.45l.19.09c.56,1.21-.15.44-.37.74l-.06-.12c-1.16-.42-.09.57-1.28,0l.42.69c.75,1.61-1.12-.6-1.21.19l.35.35c0,.66-1.63-1.87-1.9-2-.1-.12,0-.26,0-.39-.94-.73.36,1,0,1.41-.3-.51-.46-1.4-.77-1.39-.28-.41-.15,2.08-.91,1.15a1.63,1.63,0,0,1,.34,1.17c-.29.25-1.31-1.37-1.22.06a1,1,0,0,1-.15-.32c-.14.43-.65.76-.65,1.54-.74-2.69-1.38,1.64-1.76-.95l-.74.23v-.27c-.49-.12-.62.48-.77,1.11-.12-.17-.05-.41-.05-.55-.74-.51-.76-.35-1.42.89l0-.84c-.21.45-.93-1.32-1.69-.49a1,1,0,0,1,.12-.36c-1,.88-1.28-2.59-2.25.31l-.72.6c.64.4-.46,1.26-.3,1.82-.36.12-.48-1.11-.1-1.14v.17c.57-1.5-.68-.84-.32-1.86-1.34-.34-2.15-1.74-3.16-2.37l-.49,1.15-.36-.27c0-.32.36-.91.6-.72.22-.67-.73.23-.89.46-.25-.76,1-1.11.81-1.24l-.25,0,0,.15c-.44.33-.75.77-1,.51-.06-.34.33-.7.28-.79s0-.12-.1-.11a4.83,4.83,0,0,1-.38-.4l-.39.93c-.48.25-.4-.36-.84.7.68-1.59-1.31-1.8-1.13-2.4-.74.3-1,.06-1.24-.33-.07.22-.8,1.06-1,.68,1.72-1.5.21-1.2,1.22-2.51-.64.93-.85-.61-1.76.71-.06-.37.64-.57.9-1.09-1.18,0-.5-1.6-1.24-2.11a2.77,2.77,0,0,1-1,.6l1-1.2c-.21-.06-1.56.76-.83-.05-.19.17-.48.42-.63.36a2.31,2.31,0,0,0-.48-1.83,1.57,1.57,0,0,1,.6.45c-.21-.39-1.3-1.78-1-2.45.16.14.33.18.42-.33.21.8.37.54.62.43l.26,1.05c.21-.38,0-.91.08-1.43.34,0,.63.81.9,1.48.55,0-.71-1.21-.17-1.57.54.29.72-.22,1-1,.4.28.14.66.33.93v-.91c.07,0,.13.27.16.4.12-.38-.29-1.05,0-1.42-.26-1.16,1.21,1.46,1.22,0,.2.26.15.65.31,1a6,6,0,0,0,.39-2.09l.62.55a3.73,3.73,0,0,1-.42-2.58l-.53-.77.31-.72a2.33,2.33,0,0,1,.25,1v-.28a2.86,2.86,0,0,1,.49,1.56l-.4-.57a9.23,9.23,0,0,0,.43,2,.68.68,0,0,1,.08-.34,1.43,1.43,0,0,0,.1.44c.06.1,0-.14,0-.44l.51,1.11-.13-.46.94.48c.09-1.33-.1-3.14.46-3.89a11,11,0,0,0,.83,2.37c-.59-1-.43.65-.91.58.25,0,.38.53.38.71l.37-1.2c.29.82.38.55.69.81-.74-1.54.12-1.28.21-1.88.23.53.37,1.1,0,1.11.85,1-.23-2.06.54-1.2-.08.05-.16,0-.08.27,0-.56.64-.38.71.13l-.08,0a1.51,1.51,0,0,0,.92-.44c.52-.23.4,0,.83-.2,0,.1.06.16.08.24l-.09.06v0l.11-.07c0,.1.07.21.09.26l-.06-.28.35-.22.17.59h0a7.48,7.48,0,0,0-1.28,1.06c.22-.16.77-.57,1.32-.94l.07.22-.32.2c.3-.11.76-.41,1.2-.64a9,9,0,0,1-1.34,1c-.08.2,1.09-.8,1.34-.79-.29.31.12.13.72-.13a9.67,9.67,0,0,1-.8.55l.75-.43-.34.24c.3-.14.9-.6,1.19-.7,1-.64-1.36,1.11-.17.44l-.91.6a13.93,13.93,0,0,0,1.66-.85l-.53.48a16.62,16.62,0,0,1,2.17-1.39l.34-.27c0,.05,0,.06,0,.1l-.31.17-.18.14.48-.3v0c-.3.22-.62.44-1,.68l.52-.42L141,138.63l.26-.14-.37.25c-.09.07.11-.06.35-.2l-1,.71.4-.26-.53.57a32.67,32.67,0,0,1,3.09-1.72l-2,1.45c.88-.69-.46.16-.34,0a3,3,0,0,1-.63.48l.93-.45a2.89,2.89,0,0,0-.77.66c1.36-1,1-.57,1.46-.82-.46.34-.94.67-.88.52-1,.83,1.68-1.08.86-.37,0,0,0-.06-.2.1.44-.26.18.07-.23.34h0c-.08.24.24.35,1.4-.51l-1.64,1.21,4-2.76c-1,.73-3.29,2.6-3.92,2.94-.12.13-.26.29.13.08.13-.13,1.39-1.14,1.5-1.19l-1.42,1.3a18.14,18.14,0,0,1,1.73-1.28l-1.68,1.3,1.58-1.08c-.29.19-1.27,1-1.68,1.36.29-.25.05.11.22,0l.31-.32c-.13.3,2.19-1.56,2.2-1.39a24,24,0,0,0-2.06,1.7c.78-.59,3.75-2.85,4.4-3.24l-.42.37.54-.34-4.66,3.42c-.31.32-.5.42-.41.46a1.78,1.78,0,0,1-.69.46l-.13.38c.88-.73,1-.61,1.71-1.22l-1,.58a11.45,11.45,0,0,1,2.51-1.73L142,141.73c.31-.23.66-.38.45-.19l-.5.35c-.28.33,1.24-.88.47-.11,0,.07-1.06,1-.55.59,1-.84,4.06-3.46,4.81-4.1-.07.06-.88.9-1.33,1.36-.78.66-1.86,1.57-2.54,2.13.25-.19.56-.42.65-.5-.18.2-.74.62-.58.58.88-.74,0,.18.76-.61.3-.16-.13.21,0,.24a26.07,26.07,0,0,1,2.26-1.79l-.63.58c0,.17-.34.57-.26.67a7.58,7.58,0,0,1-.8.78,3.32,3.32,0,0,1,.52-.36c-.69.73-.18,0-1,.89a8,8,0,0,1,1.11-.79c.75-.71.06-.22-.29,0a27.34,27.34,0,0,1,2.81-2.25c.33-.17-.65.66-.49.53-.06.31,1.94-1.58,1.28-.77s-1.32,1.24-1.79,1.7c-.31.18.33-.49.27-.5l-.27.34c-.24.19-.45.31-.27.1-.57.6.1.35-.34,1a6,6,0,0,0,.75-.64l-.13.05c.51-.54.8-.64,1-.92.42-.31,1.05-.83.81-.48l-.74.73c.22-.21.41-.47.16-.26.36-.3-.92,1.07.09.15l.47-.55c.42-.32,1.26-1,1.08-.76l.73-.81c-1,1.08-.08-.17-1.16,1,1-1,.36-.48,1.17-1.35-.24.24-.45.47-.37.31-.08.07-.17.16-.23.2l0,0,0,0h0l-.36.39a7.14,7.14,0,0,1-1,.69c.1-.13.3-.26.55-.52l-.47.38a10.32,10.32,0,0,1,1.24-1.18l0-.08c.28-.32.37-.48.11-.29.1-.14-.68.51-.22.13l-.42.23.14-.13c0-.14-1.1.68-.16-.34-.17.1-.37.23-.25,0l.48-.45c-.2.12.4-.54-.13-.11,1.31-1.2.15-.42.33-.69l-.65.55c0-.07-.23,0-.54.21l-.58.5c-.52.35.31-.48.18-.51.23-.18.19-.11.06,0,1.25-1.19-1.12.59-.22-.29-.24.16-.18.08,0-.06h0v0l.29-.28c-.14.12-.25.23-.3.28a1,1,0,0,0-.29.12l.63-.52h0c.22-.22-.32.22-.79.62l-.41.27c1-.84-.4.21.68-.69a18.44,18.44,0,0,0-1.66,1.07,2,2,0,0,1,.24-.17c.1-.13.21-.26-.13,0l.81-.65-1.16.79a12.38,12.38,0,0,1,1.42-1.11l-1.45.86.54-.4s-.8.48-.37.13c1-.83-.09-.42.75-1.28-1.58,1.19.67-.59-.58.3a8.16,8.16,0,0,1,.92-.67c-.43.18.52-.55-.58.14l.8-.55c-.09.05-.35.21-.13,0a4.07,4.07,0,0,1,.51-.32,18.07,18.07,0,0,0-2.43,1.55c.5-.41.41-.38-.34.1a4.12,4.12,0,0,1,.88-.6c0-.07.41-.55-.49.06.22-.16,0-.09-.07,0,0-.1.08-.16-.05-.17l-.14.12c-1.1.7-.28.1-.45.13l.12-.07c.63-.59-.14,0,.28-.41v.16c.26.11.2-.32.19-.66l.33-.24c.05,0,.06,0,.13,0s1.07,1.09.77.48c-.14-.17-.35-.49-.54-.78.24-.17.42-.3.46-.34a1.06,1.06,0,0,1,.32-.16c.63-.52-.27.11-.82.43l0,0a7.54,7.54,0,0,0,.95-.65s0,0,.06,0c-.53-1,.61-.24-.36-.93.11-.44.41.05.7-.18a6,6,0,0,1-.9-2.79,4.13,4.13,0,0,0,.5.7c.61-.21,1.15,0,1.65-.27.19.21.61.34.77.83,0-.22-.18-.59,0-.71.83.65-.26.35.61,1.22-.34-.58-.09-1-.1-1.54-.63-.83-.61.16-.61.66a6.27,6.27,0,0,1-1.05-3.61c.21-.55.68.67.64.45.89-.28-.75-2.5.43-2a9.59,9.59,0,0,1,1.46,2c-.14.5-.83-.16-1,0l.51.18c.07.32,0,.66-.29.51.65.54,1.38-.67,2.37-.48a1.52,1.52,0,0,0-.37-1L151,127c-.58-.49-.25-1.08-.67-1.2-.06-.6-.28-1.45.29-1.35l.67.8c-.18-.24-.58-.35-.48,0-.14-.47,1.33.77.68-.45l-.66-.41a4.55,4.55,0,0,1-.15-1.52,1.6,1.6,0,0,0,.43.29L151,123c.41.25.91.51,1.4.77.53.56.32,1.23,1.09,2.12l0-.55c.12.15.2.47.38.55-.38-.55-.49-1.25.18-.85a1.47,1.47,0,0,0-.24-.5c.36.19.71.37,1.08.58-1.23-.76,1.92.93.17-.16l.78.46c-.6-.37-.71-.46-.41-.35l.14.09c-.08-.19.54.1,1,.22l-.7-.4a3.12,3.12,0,0,1,.51.24c-1-.65-.11,0-1.25-.68,1.43.8.14-.17,1.75.76,0,0-.81-.47-.77-.5l.43.25-.55-.35a8.3,8.3,0,0,1,1,.57s.09.08.12.1l.11,0a.26.26,0,0,1-.17.2c.1,0,.16-.14.24-.17s0,0,0,0a.89.89,0,0,0,.53-.38l-.46.09a.64.64,0,0,0-.12.23c-.07-.07-.16-.15-.08-.11l-.29-.12c-.34-.36.3-.14-.49-.79l-.33-.19c-.54-.46.39.16.18-.11l.07.06c-.31-.23-.45-.35-.4-.36l1.15.73a19.28,19.28,0,0,0-1.62-1.2l.54.34a5.75,5.75,0,0,1-.82-.64l1.39.93c1.21.67-1.07-.9.64.17-1.42-1-.86-.46-1.16-.69-.48-.29-1.06-.76-.89-.69s1.89,1.19,1.91,1.1l.08.08c.39.23-.46-.39.16,0-.86-.62.08,0-1-.78l.21.25c-.27-.24-1.54-1.17-.87-.8l.66.5c.34.21-.19-.18.16,0,1.1.77.18.25,1,.87.48.3-.75-.63.43.22-1.5-1.08.24.06-.89-.79l.66.46-.37-.31.78.58c-.09.13-.16.29,0,.39a2.42,2.42,0,0,1,.17-.36c.18.11.35.21.2.07,0,0-.13-.07-.17-.1s.06,0,.08,0c.22.14.36.22.29.13s-.08,0-.26-.15l0,0,.28.17a1.78,1.78,0,0,0-.23-.19c.07,0,.09-.09.21-.11-.1-.06-.18,0-.28.05-.23-.16-.52-.34-.77-.54.82.55-.3-.27-.53-.49l.67.48c.48.23-1.37-1-.8-.72l.89.7-.21-.21.75.55c-.53-.44-.37-.35-.13-.24a7.74,7.74,0,0,1-1.19-.94c.41.27.61.48.56.36.4.32.91.71.29.29l.61.47c.47.31.16,0,.16,0l-.17-.09-.86-.75.64.48-.4-.37c.53.41,1.08.82,1.31,1l-.54-.51.74.52-.66.14.71-.1.06,0c.09,0,.07,0,0,0l.15,0,0,0,0,0,.16,0-.07-.06-.15,0-.49-.39.48.39-.13,0c-.24-.23-.78-.7-.46-.51l-.27-.23c.16,0,.83.5.15-.11l1,.7c-.18-.21-1.22-.88-1.52-1.23s.82.61,1.09.8c-.45-.4-1.38-1.2-.58-.64.16.15,0,0,.07.12l.55.38a10.59,10.59,0,0,0,1.26,1.06c-1.8-1.44-.08-.27-1.88-1.72l.4.28.06.07c.63.47-.27-.27-.74-.68,0,0,0,0,0,0a3.17,3.17,0,0,1,.36.28l-.34-.34v0a1.17,1.17,0,0,1,.24.21l-.09-.19.05,0-.16-.14a.14.14,0,0,0,0-.06s.12.12.1.11c1.8,1.44-.43-.4.67.38l.2.23c1,.81.68.48,1.34,1-.33-.27-1.64-1.24-2.05-1.65.14.1.22.14-.12-.18.63.52.49.37.48.32l.83.7-1-.92a15.68,15.68,0,0,1,1.3,1c.17.06-1.06-.84-1.16-1,.35.23,0-.09-.41-.57.31.21.5.44.74.63l-.63-.59.32.27c-.23-.24-.82-.71-1-.94-.89-.8,1.38,1.08.4.13l.6.54c0,.06.08,0,.1.09l.11.1-.08-.09s0,.1.09,0l.12-.4-.06,0a33.45,33.45,0,0,1-2.4-2.54L159,120.3c-.84-.74.29.38.09.27a5.41,5.41,0,0,1,.59.53l-.68-.77a5.11,5.11,0,0,0,.77.65c-1.26-1.14-.78-.83-1.13-1.21.42.38.84.79.7.73,1,.84-1.41-1.42-.57-.71,0,0-.07,0,.14.16-.35-.37,0-.14.34.21v0c.15,0,0-.18-.34-.61l0-.13,1,1-1-1.06,0-.08,1.54,1.53c-.65-.65-.55-.59-.4-.47l-1.15-1.09,0,0h0l-.35-.33.34.34s0,0,0,0l-.49-.5s0,0,0-.07c.75.72,1.46,1.41,1.7,1.7.14.11.3.23,0-.1l-1.38-1.32,1.44,1.27c-.2-.17-1.58-1.55-1.51-1.53l1.51,1.49-1.3-1.4c.24.25,1.16,1.14,1.54,1.51-.27-.25.07,0-.05-.17l-.33-.29c.21.12-1-1.13-1.49-1.68,0,0,0,0,0,0,.48.51,1.48,1.52,1.65,1.64l-1.58-1.68s0-.06.08-.06l1.7,1.87c.34.3.47.47.47.4a4.24,4.24,0,0,1,.55.61l.31.17-1.4-1.56.74.93a15.57,15.57,0,0,1-2-2.28c.31.33,1.4,1.47,1.67,1.74-.27-.29-.47-.59-.27-.4l.4.47c.33.28-1-1.15-.2-.4.06,0,1,1,.59.54l-4.37-4.56,1.4,1.27,2.26,2.43c-.2-.24-.46-.53-.54-.62.2.18.66.71.59.58-.79-.85.13,0-.65-.73-.2-.27.19.14.19.07-.22-.23-.56-.61-.9-1l-.07-.28-.14-.18c.17.11.37.25.42.21.19.2.45.42.77.8a4.5,4.5,0,0,1-.38-.49c.71.71.06.15.9,1a11.54,11.54,0,0,1-.83-1.07c-.7-.77-.2-.09.06.24a29.19,29.19,0,0,1-2.29-2.77c-.18-.32.64.66.52.5.27.09-1.57-2-.79-1.27l1.64,1.85c.19.3-.45-.37-.46-.31l.33.29c.18.24.31.44.11.25.58.59.29,0,.87.46a9.36,9.36,0,0,0-.63-.77l.06.12c-.51-.53-.62-.81-.88-1-.3-.42-.79-1.08-.46-.81l.69.79c-.2-.23-.44-.45-.25-.19-.28-.37,1,1,.13-.06l-.5-.51c-.31-.43-1-1.32-.71-1.11l-.75-.79c1,1.12-.17.06.9,1.22-.94-1-.45-.4-1.27-1.26.22.26.44.48.29.39l.19.24,0,0,0,0h0l.36.38a10.67,10.67,0,0,1,.67,1c-.14-.1-.25-.3-.51-.57l.37.49A11.4,11.4,0,0,1,156.4,113l-.08,0c-.31-.3-.47-.39-.28-.12-.14-.1.5.68.12.22l.24.42-.13-.14c-.15,0,.68,1.08-.33.15.1.16.23.36,0,.24l-.46-.48c.13.2-.55-.38-.1.13-1.24-1.26-.43-.12-.7-.29l.59.63c-.08,0,.05.21.24.51l.53.55c.39.49-.48-.29-.5-.17-.2-.21-.13-.17,0-.06-1.29-1.15.71,1.06-.24.24.17.21.09.16,0,0l0,0h0l-.31-.26.31.27a1.35,1.35,0,0,0,.15.27l-.58-.57v0c-.23-.19.26.29.7.71l.33.38c-1-.92.26.37-.76-.61a15.08,15.08,0,0,0,1.28,1.49l-.2-.2c-.14-.1-.28-.19,0,.11l-.75-.71,1,1a13.15,13.15,0,0,1-1.31-1.24l1.1,1.29-.48-.47s.61.69.2.32c-1-.83-.36.12-1.35-.56,1.48,1.32-.7-.55.42.5a10.83,10.83,0,0,1-.84-.77c.27.38-.64-.39.27.52l-.71-.65c.07.07.28.29.07.11a4.13,4.13,0,0,1-.42-.42,17.59,17.59,0,0,0,2.06,2c-.51-.39-.46-.32.18.3a4.48,4.48,0,0,1-.78-.72c-.07,0-.53-.24.12.36-.21-.14-.4-.08-.47-.27,0,.33.19.5.6.75l0-.15.38.36v.06c-.07,0-.17-.11-.14-.06l-.1-.09c-.79-.52.31.34-.59-.27l.63.53a2.74,2.74,0,0,1,.23.22c-.05,0-.07,0-.06,0-.32-.23-.82-.6-.57-.33l.37.28c.44.42-1.89-1.46-2.08-1.57a2.11,2.11,0,0,1-.26-.25c-.86-.58.81.7.95.92a13,13,0,0,0-1.23-1c-.38-.28,1.33,1.32.44.67a9,9,0,0,1,.93.78c.09.15-1.39-.94-.34,0l-.28-.21a10.43,10.43,0,0,0,.95,1c-1.14-.9-.86-.59-.6-.3a1.3,1.3,0,0,1-.15-.1c.07.08.2.19.31.29s0,.1-.68-.45l0,.19-.2-.17c-.19,0,.28.37.76.78l-.44-.34c-.49-.23-.42-.14.55.72l-.68-.5c.27.22-.39-.17-.57-.2l-.12-.26.11.25s0,.07,0,.12l0,.08Zm-.77,1.43.18.11C152,120.37,151.82,120.24,151.63,120.1Zm-46.52,18.55.09.22C105,139.11,105.07,138.89,105.11,138.65Zm57.54-5.34h0C162.41,133.57,162.52,133.48,162.65,133.31Zm-2.43,22.21c.11.26-.08.24-.4.1C159.86,155.5,160,155.44,160.22,155.52ZM153,162c-.05.21-.12.8-.37.38C152.44,161.47,152.69,161.86,153,162Zm-20-8.67,0,.23C132.63,153.68,132.8,153.53,133,153.36Zm-8.13-10.28c-.06.19-.12.76-.31.31C124.42,142.45,124.62,142.86,124.85,143.08Zm0,.72-.2.27a2.45,2.45,0,0,1-.2-.51C124.58,143.56,124.69,143.61,124.88,143.8Zm6.56-4.94c.07-.1.18-.1.36.06C131.82,139.2,131.67,139.11,131.44,138.86Zm10.24-.45c-.23.14-.14,0,.1-.16C141.85,138.23,141.84,138.27,141.68,138.41Zm7.18-.18,0,0C149,138,149,138.1,148.86,138.23Zm-4.92-2.86-.15.12a.06.06,0,0,1,0,0l.14-.1Zm-5.18,2.77h0C138.73,138.18,138.77,138.14,138.76,138.14Zm-1.26-.76.29-.13,0,.13-.29.23Zm-.91-4.86.08.56-.12.06a2.51,2.51,0,0,1-.52-.93C136.22,132.31,136.18,132.52,136.59,132.52Zm.88.12h0a.64.64,0,0,0,0,.07h0S137.48,132.65,137.47,132.64Zm-.73.86c.06.19.19.45.3.7h0c-.22.13-.05.08.08,0a.08.08,0,0,0,0,0l-.18.08Zm1.1,2.41s0,0,0,0l-.58.3-.05-.23.56-.21,0,.06-.28.14Zm-.1-.21c-.27.12-.41.17,0-.07Zm0-.07-.51.24,0-.22c.34-.11.32-.06.16.11l.36-.19Zm-.39-.82L137,135l0-.17.27-.12Zm-.27.27,0,0,0,0Zm.39,0h0c-.19.11-.17.12,0,0l.09.2h0l0,.06-.45.22-.07-.35A3,3,0,0,1,137.44,135.08Zm-.53-.68.19-.07.08.19-.13.07.14-.05,0,0-.24.1Zm.09,2a.64.64,0,0,1,0,.07h0S137,136.48,137,136.45Zm.37.31.19-.08a1.05,1.05,0,0,1-.16.2Zm.85.07,0,.07-.3.18,0-.09A1.91,1.91,0,0,1,138.22,136.83Zm-1.51-3.5a.9.9,0,0,1-.15-.19l.12,0Zm.34,3.58,0,0,0,0a.59.59,0,0,0,0-.13l.08,0a.69.69,0,0,0,0,.1l-.05,0,.05,0c0,.12.09.25.13.39l-.2.13A1.55,1.55,0,0,0,137.05,136.91Zm.38.16a1.67,1.67,0,0,0,.24-.07l-.22.14Zm.31,0,0,.11-.28.17,0-.14Zm.44.44.16-.09-.15.11Zm0-.23c-.06,0-.06,0-.07,0l-.07-.14a2.44,2.44,0,0,1,.31-.11l0,.06A1.08,1.08,0,0,1,138.14,137.28Zm1-.05a2.21,2.21,0,0,1-.3.2l-.05-.09C139,137.22,139.18,137.14,139.11,137.23Zm-.11.23s-.06.06-.11.09l0,0Zm0,.28-.05-.07.51-.26,0,0a.37.37,0,0,0-.1.06l.1-.05,0,0A1.6,1.6,0,0,1,139,137.74Zm.52-.31.19-.08s0,0,0,0l-.17.1S139.56,137.44,139.55,137.43Zm0,0,0,0,.2-.1v0Zm.2-.14.12-.07a.3.3,0,0,1-.12.08Zm2.06-8.51.12.2c0,.1-.05.12-.09.17S141.59,129,141.81,128.77Zm-.61,4.85,0-.05a4.65,4.65,0,0,1,.61-.36s0,.07,0,.1C141.58,133.42,141.37,133.52,141.2,133.62Zm1.93,0-.1,0,.1-.05Zm.4,2.21,0,.06C143.41,135.94,143.41,135.92,143.53,135.82Zm0-1.39h0Zm-2.3-3.33c-.24.1-.45.17-.4.11l.38-.17S141.23,131.08,141.24,131.1Zm.4-2.62,0,.07-.61.22Zm-4.37,3.85a.3.3,0,0,1,.14,0s0,.06,0,.09a.7.7,0,0,0-.1.08c-.19-.05-.35-.05-.34.31l-.16-.31h.1Zm-1.34-.47c.24-.08.66-.28.68-.22l-.46.2.61-.21a4.9,4.9,0,0,1-.79.38C136,132,135.94,131.92,135.93,131.86Zm.88,6.09a1.27,1.27,0,0,0,.24-.51l.25-.14s0,.09,0,.13-.07,0-.08.06a.25.25,0,0,1,.09,0l.08.23Zm.82.13,0-.26.33-.17,0,.07-.07,0c-.33.24-.17.16.09,0l0,.09Zm.64-.4,0-.06.17-.09a1.68,1.68,0,0,1,.09.54h0v0l-.25.19c0-.23.09-.29.24-.21l-.2-.38.06,0Zm0,.61.41-.18.05,0s-.06.09-.25.24l-.2.06A.71.71,0,0,1,138.23,138.29Zm.63.13-.6.38a1.33,1.33,0,0,1,0-.26,7.65,7.65,0,0,1,.8-.5c-.13.11-.18.19.24,0C138.59,138.46,138.78,138.4,138.86,138.42Zm.19-.39-.21.1s0-.08.06-.1C139.57,137.64,139.25,137.86,139.05,138Zm.71-.66v0l.18-.08Zm4.37-.8-.26.18s0,0,0-.06Zm.27-1.25-.55.37h0s0-.08,0-.12l.15-.13a.89.89,0,0,0,.05.13,1.37,1.37,0,0,1,0-.19c.06,0,0,0,0,0a.22.22,0,0,1,0-.08l.32-.23Zm.57-1.45h0c-.24-.39-.5-.82-.75-1.26h0l-.07-.12c.28-.27.9-.71-.13-.23-.16-.28-.3-.54-.44-.81,0-.07.11-.16.1-.21l-.17.09,0,0c.12-.07.1-.08,0,0a.25.25,0,0,0,0-.07,3.52,3.52,0,0,0,.45-.18l.44.89.07-.06-.47-.84,0,0h-.06l-.36-.65.32.64-.13.08-.31.12-.06-.12.15-.07c.08,0,.12-.06,0,0l.05-.14-.28.14c-.17-.33-.27-.55-.39-.79l.27-.13-.28.11-.2-.42h0a10.11,10.11,0,0,1,1.63,1.21c.68.75.9,2.16,1.45,2.86-.42.2-.89.42-.37,0l-.36.22A1.3,1.3,0,0,0,145,133.87Zm1.19-.26a2.16,2.16,0,0,0-.35.15,3.84,3.84,0,0,1-.2-.71C145.83,133.19,146,133.63,146.16,133.61Zm1.74-9.07v0C147.56,124.42,147.69,124.49,147.9,124.54Zm5.2-2.61h0l-.08-.05,0-.07C153.07,121.88,153.12,121.93,153.1,121.93Zm-.41-1,.2.12-.22-.11Zm-.37.41.29.19,0,.08-.37-.24Zm-.68.48-.07,0h0Zm-.53-.33.29.19s0,0,0,0l-.26-.14Zm-.23,1.19a0,0,0,0,0,0,0l-.1-.1.46.26Zm.31-.83v-.13c.13.09.25.16.29.2A1.07,1.07,0,0,0,151.19,121.89Zm1.45,2,.2.1A1.24,1.24,0,0,1,152.64,123.9Zm5.44.18c-.13-.11-.11-.12,0-.06S158.09,124.06,158.08,124.08Zm.26-.13h-.05c-.12-.08-.24-.16-.35-.25Zm-.1,0s-.1,0-.13,0c-.28-.19-.64-.45-1-.65C156.59,122.85,157.61,123.57,158.24,124Zm.51-7a.47.47,0,0,1,.17.09l.17.4c-.43-.49-.83-1-.93-1.11C158.37,116.58,158.63,116.86,158.75,117Zm-3.76.47,0,0v0Zm0,0s0,0,0,0,0,0,0,0Zm3.06,3.91h0c.17.12.21.17.31.25h0Zm.94.58c.12.12.51.48.13.18l-.33-.3a0,0,0,0,0,0,0Zm-.55-.32h-.08l-.29-.29h0Zm-.24-1.78c.19.19.08.11-.16-.08C158,119.75,158,119.76,158.18,119.89Zm.52-.63h0c-.11-.11-.1-.14-.25-.28C158.46,119,158.62,119.17,158.7,119.26Zm-.8-.89-1.4-1.45,1.44,1.4A.1.1,0,0,1,157.9,118.37Zm-1.3-4.93,0,0C156.38,113.26,156.48,113.35,156.6,113.44Zm.23,2.67-.4-.51,1.82,2,0,.13c-.79-.85-1.57-1.7-1.8-2Zm-.23,2.46-.18-.19c.32.25.77.68,1.21,1.1l-.52-.42,1.49,1.38-.21-.22.33.31c.09.07-.08-.09-.28-.29l.91.8-.36-.33.61.43-.36.13s0,0,0,0c-.3-.32-.34-.36-1-1l.57.43a22.44,22.44,0,0,1-1.87-1.77l-.7-.57-.07-.09s0-.07,0-.1ZM156,118s0,0,0,0l-.12-.14Zm-.58.07c.07.07.06.08,0,.06Zm0,.37c.12.11.13.14,0,0Zm-2.77.4s0,0,0,0h0Z" transform="translate(-4.52 -3)"/><polygon class="cls-1" points="154.53 120.43 154.52 120.42 154.64 120.52 154.53 120.43"/><path class="cls-1" d="M156.4,112.52s.12.09.21.18l-.31-.37Z" transform="translate(-4.52 -3)"/><path class="cls-1" d="M159.89,115.94l-.06-.1-.24-.3A1.3,1.3,0,0,0,159.89,115.94Z" transform="translate(-4.52 -3)"/><path class="cls-1" d="M158.11,114.37c.45.52.32.33.26.21h0C157.75,113.84,157.93,114.11,158.11,114.37Z" transform="translate(-4.52 -3)"/><path class="cls-1" d="M158.36,114.55s0,0,0,0C158.13,114.22,158.31,114.47,158.36,114.55Z" transform="translate(-4.52 -3)"/><path class="cls-1" d="M156.67,113.25c.13.12-.57-.67-.38-.47C155.72,112.11,156.9,113.66,156.67,113.25Z" transform="translate(-4.52 -3)"/><polygon class="cls-1" points="155.08 113.08 154.52 112.44 154.95 112.98 155.08 113.08"/><path class="cls-1" d="M159,115.77l.19.15c-.08-.12-.14-.18-.17-.23S158.84,115.58,159,115.77Z" transform="translate(-4.52 -3)"/><polygon class="cls-1" points="155.07 113.2 155 113.17 155.2 113.32 155.07 113.2"/><path class="cls-1" d="M158.6,116.23c.2.22.33.34.26.24l-.38-.46Z" transform="translate(-4.52 -3)"/><path class="cls-1" d="M159.71,117.17l.7.79-.25-.32C160,117.51,159.9,117.38,159.71,117.17Z" transform="translate(-4.52 -3)"/><path class="cls-1" d="M160.72,118.51a3.76,3.76,0,0,0-.51-.58C160.4,118.15,160.72,118.6,160.72,118.51Z" transform="translate(-4.52 -3)"/><polygon class="cls-1" points="154.21 114.48 154.21 114.46 153.02 113.21 154.21 114.48"/><path class="cls-1" d="M160.8,120.47l-.57-.53a7.66,7.66,0,0,0,.91,1C161.47,121.16,160.4,120.14,160.8,120.47Z" transform="translate(-4.52 -3)"/><path class="cls-1" d="M160.73,123.34l-.2-.17c-.22-.18-.25-.19-.29-.2Z" transform="translate(-4.52 -3)"/><polygon class="cls-1" points="155.31 120.18 154.53 119.56 155.29 120.17 155.31 120.18"/><path class="cls-1" d="M160.56,124.26s-.12-.14-.08-.12S159.58,123.49,160.56,124.26Z" transform="translate(-4.52 -3)"/></svg>