<?xml version="1.0" encoding="UTF-8"?>
<svg xmlns="http://www.w3.org/2000/svg" id="Calque_1" data-name="Calque 1" viewBox="0 0 254 216.03">
  <defs>
    <style>.cls-1{fill:#e0e0e0;}</style>
  </defs>
  <path class="cls-1" d="M124.28,80.29c.47-3.87,5.3-6.91,7.92-9.46,3.46-3.38,7.1-6.54,10.86-9.57A195,195,0,0,1,167.34,44c16.58-9.65,34.29-15.68,52.42-21.56,8.17-2.64,16.44-5.35,24.78-7.39,1.28-.31,5-1.37,5.57-1.06,1.73.9,1.14.76.74,2.43-.33,1.4-1.5,3.09-2.08,4.39-2,4.4-3.82,8.87-5.86,13.26-8.4,18-19.24,34.81-30.76,51-6,8.35-12.07,16.05-18.75,23.84-6.87,8-12.65,16.89-19.44,25-.79.94,2.36,2,3.09,1.08,6.8-8.1,12.57-17,19.44-25s13.22-16.08,19.39-24.73C228.53,67.54,240,49,248.8,29c1-2.19,1.87-4.42,2.85-6.61s2.73-4.46,3.19-6.7c.36-1.76.22-2.54-1.54-3.33-2.27-1-5.61,0-7.89.4-5.19,1-10.26,2.73-15.33,4.21C210.31,22.78,190.85,29,172.47,38.37A182.52,182.52,0,0,0,142.7,58c-4.45,3.51-8.81,7.13-12.88,11.06-3,2.88-8.3,6.23-8.84,10.58-.14,1.19,3.16,1.79,3.3.66Z" transform="translate(-1 -11.95)"></path>
  <path class="cls-1" d="M120.11,80.42c7,5.6,11.79,12.71,17.56,19.51s11.59,13.64,17.31,20.52c4.27,5.14,8.19,13.76,14.29,17,3.16,1.67,4.51.24,6.54-2.31.78-1-2.38-2-3.09-1.08-2.38,3-3.12,1.34-5.53-1.63-2-2.46-3.62-5.23-5.57-7.73-4.3-5.55-9-10.8-13.51-16.16-8.2-9.74-15.53-20.85-25.43-28.8-.83-.66-4-.48-2.57.7Z" transform="translate(-1 -11.95)"></path>
  <path class="cls-1" d="M187.17,30.5l-.56.48,2.83.19c-6.55-4.2-12.88-8.92-20.71-10.57a40.13,40.13,0,0,0-21.49,1.61c-8.3,2.89-16.14,7.74-23.52,12.44-7.11,4.52-16.29,9.53-20.58,17.05a.53.53,0,0,0,0,.67c3,3.67,7.71,4.89,11.87,6.86,2.22,1.06,4.43,2.13,6.7,3.06,3.55,1.45,7.66,1.84,11.06,3.5,1.1.54,3.92-.13,1.95-1.09-4.42-2.15-9.31-2.67-13.82-4.69-3.36-1.5-7.32-2.86-10.49-4.74-3.67-2.17-3.77-3.92-1.14-6.73A44.87,44.87,0,0,1,116.22,43c3.89-2.76,7.79-5.5,11.85-8,8-5,16.7-10.45,26-12.54,12.83-2.88,22.41,2.74,32.78,9.39a2.51,2.51,0,0,0,2.83.2l.56-.48c.84-.7-2.2-1.82-3.09-1.08Z" transform="translate(-1 -11.95)"></path>
  <path class="cls-1" d="M224.81,69.35c4.71,10.91,8.56,23.24,7.92,35.23s-7.39,22.39-13.84,32.31A107.38,107.38,0,0,1,208.66,150c-.77.87-2.93,4.62-4.1,5.13-3.33,1.47-4.49-3.76-5.37-5.69-4.72-10.31-8.7-20.84-9.88-32.19-.11-1.07-3.4-1.54-3.27-.21A83.07,83.07,0,0,0,191,137.45c2.18,5.87,4.43,12.7,7.66,18.05,5.33,8.86,13.1-4.24,16.47-8.05a106.18,106.18,0,0,0,12.2-17.52c3.28-5.75,7.11-12.5,8.24-19.05,2.4-13.93-2-28.65-7.45-41.33-.45-1-3.72-1.27-3.26-.2Z" transform="translate(-1 -11.95)"></path>
  <path class="cls-1" d="M216.3,49.4c-2-6.95-11.89-9.29-18.2-8.21-9.66,1.66-12,12.54-7.6,20.18,4,7,11.45,12.11,18.78,6a20,20,0,0,0,6.79-11.14c.55-2.62,1.77-7.19-.12-9.52-.66-.82-3.94-.89-3,.26,2.07,2.57-.38,10.77-1.75,13.23A21.81,21.81,0,0,1,206.47,66a7.34,7.34,0,0,1-2,1.46l-7.35-1.36c-.91-.58-1.78-2.28-2.37-3.14-3.15-4.56-4.68-11-1.25-15.87C197.76,41,210.79,41.2,213,49.2c.3,1.08,3.61,1.41,3.27.2Z" transform="translate(-1 -11.95)"></path>
  <path class="cls-1" d="M185.45,81.07c.25-5.79-9.38-10.82-14.34-11.14a17.53,17.53,0,0,0-12,3.88c-4.13,3.7-2.63,9.82-1,14.51,2.63,7.46,9.74,15.47,18.29,11.46,4.61-2.16,7-6.09,7.86-10.84.6-3.46,2.17-7.69-.4-10.7-.68-.79-4-.85-3,.26,2.32,2.72.6,11.7-1.13,14.52a15.49,15.49,0,0,1-2.29,2.57c-2.69,2.64-2.88,2.53-7.11,1.77s-4.29-.77-6.23-3.71a24.45,24.45,0,0,1-2.71-5.13A29.55,29.55,0,0,1,159.88,81c-.39-4.85,3.27-7.52,7.67-8.71,4.11-1.1,14.87,2.06,14.6,8.15-.05,1.23,3.25,1.75,3.3.67Z" transform="translate(-1 -11.95)"></path>
  <path class="cls-1" d="M132.51,93.22a102.93,102.93,0,0,1-14.28,7.25c-2.25.94-9.92,3.65-10.48,6.59-.48,2.49,4,5.15,5.52,6.56,5,4.78,9.79,9.74,14.73,14.57,3.86,3.77,7.35,7.85,11.12,11.65,1.26,1.27,2.64,3,4.61,2.58,3.06-.59,5.44-6.11,6.88-8.32,2.79-4.27,6-8.28,7.74-13.12.37-1-2.66-1.63-3.2-.87l-.17.24c-.74,1,2.44,2,3.09,1.08l.17-.24-3.19-.88c-1.58,4.41-4.42,8-7,11.87-1.11,1.66-2.09,3.4-3.26,5,0,0-3.66,3.85-1.37,3.39-1.16.23-6.81-7.17-8-8.37-3.4-3.36-6.86-6.66-10.22-10.06-3-3-5.93-5.93-8.92-8.88-1-1-3.12-2.51-3.81-3.75-1-.33-1.2-.94-.49-1.82a1.93,1.93,0,0,1,1.54-1.9c2.87-2.64,7.23-3.77,10.71-5.31a91,91,0,0,0,11-5.88c1.28-.79-1.76-2-2.68-1.41Z" transform="translate(-1 -11.95)"></path>
  <path class="cls-1" d="M116.7,125.7c-6.47-7.28-21.84-.92-27.87,4-.59.48.7,1.15,1,1.25a12.33,12.33,0,0,0,3.37.7c-.49-.07,6.08.89,6.3,1.4.93,2.12-7.38,9.41-8.63,11.14-2.43,3.37-3.48,7-4.74,10.88-.68,2.09-3.56,8-2.65,10.25,1.56,3.87,8.19-.26,10-1C97.54,162.68,102,161,106,159c3.59-1.78,6.25-4.48,9.33-6.94l-3.06-.41c3.16,3.31-1.17,8.42,1.12,11.52a2.71,2.71,0,0,0,2.56.69c3.38-1.12,5.88-5.6,7.06-8.73,2.35-6.26,2.85-14.14.2-20.36-1.21-2.86-3.62-8.69-7-9.41-3.79-.82-8.32,4.09-10,6.82-.37.6.47,1.1,1,1.24a22.76,22.76,0,0,0,8.28.57l-2.23-1.42c-2.75,5.39-10.67,6.79-14,12.12-.16.26-.1.41,0,.67,4.35,7.73,26.1-6.41,21.43-14.13-.54-.9-3.81-1.06-3,.26,3.55,5.87-13.56,15.83-14.85,13.46-.67-1.22,12.31-8.92,13.52-11.3.55-1.08-1.56-1.46-2.23-1.42a32.12,32.12,0,0,1-5.72-.22c.32.42.64.83,1,1.25,1.5-2.41,4.68-6,7.68-6.17l-2.2-.75c4.57,5.55,7.42,12,6.72,19.25-.46,4.74-2.07,14.8-7.66,16.63l2.56.69c-.84-1.13.24-5.1.24-6.48,0-2,.09-3.52-1.36-5a2.48,2.48,0,0,0-3.05-.41,53.57,53.57,0,0,1-13.13,8.22c-4.37,1.87-9.47,5.37-14.16,5.93l2.19.75c-1.13-1.33,1-6.23,1.37-7.63,1.1-3.78,2.3-8.18,4.37-11.54,2.75-4.48,9-8.24,10.42-13.29.08-.27-.2-.53-.36-.68-3.08-2.92-8.25-1.83-11.94-3.26.32.42.64.83,1,1.25,4-3.26,17.37-9.76,21.76-4.81.7.78,4,.82,3-.26Z" transform="translate(-1 -11.95)"></path>
  <path class="cls-1" d="M200.15,40.64c-2.74.81-4,4.59-5.19,6.91-1.39,2.79-4.4,7-4,10.25.09.71,2.29,1,2.18.13-.32-2.57,2.11-6,3.16-8.17,1-2,2.72-7.28,5.25-8,1.19-.36-.72-1.3-1.4-1.09Z" transform="translate(-1 -11.95)"></path>
  <path class="cls-1" d="M205.81,43.68l.21-.24c.52-.63-1.57-1.3-2.06-.72-4.93,5.81-9.8,12.64-12,20.05-.21.71,1.41.88,1.8.77a1.76,1.76,0,0,0,1.27-.81c.52-.63-1.57-1.31-2.06-.72l-.61.44,1.8.77c2.16-7.34,7-14,11.85-19.78L204,42.72l-.21.25c-.52.62,1.57,1.3,2.06.71Z" transform="translate(-1 -11.95)"></path>
  <path class="cls-1" d="M209.15,44c-5.65,5.36-11.62,12.82-14.05,20.31-.23.72,1.78,1.09,2.13.59l.17-.24c.49-.7-1.63-1.33-2.06-.72l-.17.24,2.13.58c2.4-7.41,8.34-14.76,13.91-20,.55-.52-1.51-1.25-2.06-.72Z" transform="translate(-1 -11.95)"></path>
  <path class="cls-1" d="M212.74,45.9c-3.36,4.35-6.62,8.78-9.55,13.43-1.46,2.33-4.63,5.63-5.12,8.28-.14.77,2.06,1.21,2.2.44.28-1.54,2.09-3.3,2.92-4.62,1-1.6,2-3.24,3-4.84,2.67-4.13,5.61-8.08,8.62-12,.51-.65-1.6-1.31-2.06-.72Z" transform="translate(-1 -11.95)"></path>
  <path class="cls-1" d="M213.41,49.9a91.26,91.26,0,0,0-6.5,9c-2,3.21-3.46,6.72-5.76,9.78-.52.68,1.58,1.29,2.06.72l.2-.24c.52-.63-1.58-1.3-2.06-.72l-.2.24,2.06.72c2.32-3.08,3.7-6.56,5.76-9.78a94.18,94.18,0,0,1,6.5-9c.52-.64-1.58-1.31-2.06-.72Z" transform="translate(-1 -11.95)"></path>
  <path class="cls-1" d="M166,72.18l.2-.24-2.06-.72c-2.68,3.26-3.58,7.42-5.68,11a.34.34,0,0,0,0,.44l.23.29c.44.55,2.63.61,2-.17-.17-.22,2-4.4,2.14-4.8a23.27,23.27,0,0,1,3.34-6.06c.53-.64-1.57-1.3-2.06-.72l-.2.24c-.53.62,1.56,1.3,2.06.72Z" transform="translate(-1 -11.95)"></path>
  <path class="cls-1" d="M169.85,71.4c-2.64.95-3.75,3.57-5.19,5.8-2.3,3.6-5,6.77-6.09,11-.19.74,1.77,1.09,2.13.58l.17-.24c.49-.69-1.63-1.33-2.06-.72l-.17.24,2.13.58c.93-3.69,3.14-6.52,5.22-9.61,1.4-2.08,2.72-5.61,5.26-6.53,1.18-.43-.72-1.34-1.4-1.09Z" transform="translate(-1 -11.95)"></path>
  <path class="cls-1" d="M172,72.12c-1.74,3.61-3.71,7.1-5.24,10.81-1.44,3.5-3.88,6.77-4.69,10.49-.16.76,1.58,1,2,.69l.27-.18c.85-.54-1.18-1.32-1.78-.93l-.28.17,2,.69c.77-3.55,3.28-7.07,4.69-10.49,1.53-3.7,3.49-7.2,5.24-10.81.29-.6-1.84-1.2-2.2-.44Z" transform="translate(-1 -11.95)"></path>
  <path class="cls-1" d="M176.32,74.41A79.06,79.06,0,0,0,165,97c-.23.74,1.76,1,2.13.58l.47-.58c.51-.65-1.6-1.32-2.06-.72l-.47.58,2.13.59a77.19,77.19,0,0,1,11.23-22.3c.5-.68-1.61-1.33-2.06-.72Z" transform="translate(-1 -11.95)"></path>
  <path class="cls-1" d="M181.09,75.54c-3.9,7.51-8.73,14.26-12,22.1a.4.4,0,0,0,.09.3l.23.29c.43.55,2.62.61,2-.17-1.09-1.38,4.61-9.78,5.27-10.88,2.2-3.63,4.52-7.15,6.48-10.92.41-.79-1.73-1.36-2.06-.72Z" transform="translate(-1 -11.95)"></path>
  <path class="cls-1" d="M183.11,80.66C180,86,177.57,92,174,97.06c-.49.69,1.63,1.33,2.06.72,3.6-5,6.07-11,9.14-16.4.44-.77-1.7-1.35-2.06-.72Z" transform="translate(-1 -11.95)"></path>
  <path class="cls-1" d="M226.39,18.16c1.45,4.78,3.24,9.3,6.39,13.2,2.34,2.88,5.75,4.86,7.75,7.9a1.79,1.79,0,0,0,1.71.46l.58-.12c1.2-.25-.71-1.23-1.4-1.09l-.58.12,1.7.46c-1.9-2.88-5-4.68-7.28-7.35-3.33-3.94-5.2-8.54-6.69-13.44-.22-.72-2.42-.93-2.18-.14Z" transform="translate(-1 -11.95)"></path>
  <path class="cls-1" d="M238.2,17.6c-2-.22-3.33.43-5.16,1.38l1.79.94a38.46,38.46,0,0,1,5.06-2.9c.93-.44-1.12-1.15-1.59-1a76.66,76.66,0,0,0-7.4,2.36l1.78.94A10.75,10.75,0,0,1,237.09,18l-1.48-.94a4.39,4.39,0,0,1-2.23,2.2c-.95.63,1.2,1.09,1.59,1,1.92-.36,3.6-1.57,5.46-1.91l-1.73-.9a30.93,30.93,0,0,1-5.4,4c-.92.6,1.25,1.16,1.79.94,3.15-1.33,5.87-3.49,9-4.77l-1.92-.83c-1.1,2.17-3,3.07-4.85,4.55s-3.15,3.24-5.24,4.2l1.79.94c2.55-1.81,5.13-3.54,7.7-5.37,1.89-1.35,4.37-3.91,6.48-4.8l-1.92-.83c-3.19,5-8.61,7.72-12.62,11.87a.35.35,0,0,0,0,.44c3.47,3.84,13-8.06,15.36-9.08l-1.92-.83c-2.35,4.69-8.39,6.55-11.21,11-.51.79,1.48,1.09,1.92.83C242,27.1,244.89,22.84,249,20l-1.92-.83c-2.05,2.4-4.33,4.56-6.38,6.91l2.06.72c1.36-1.64,8.12-7.12,3.55-8.69-1.73-.59-3.87.53-5.41,1.12-3.29,1.27-6,3.36-9.17,4.88l1.78.94c2-1.13,4.42-2.76,4-5.4a2.53,2.53,0,0,0-2.62-2.36c-6.08.59.69,12.45,1.66,14.54l2.1,0c-2-3.55-3.14-8.91-6.44-11.61-.36-.3-1.54-.64-1.88-.13-1.59,2.38,1.93,7.48,4.91,6.28,3.3-1.33-1.4-6.49-3-7.44a1.76,1.76,0,0,0-1.55-.1c-3.94,2.29,1,7,3.32,8.51.41.27,1.5.67,1.88.13,2.7-3.76-10.23-10.53-5.78.34.8,2,2.74,5.2,5.32,3.9,2.81-1.41,1.58-9.74-.26-11.45-2.24-2.08-3.77-.06-4,2.33-.3,3.44,1.62,10.08,5.54,11.1,6.13,1.61,6.57-10.54,1.6-7.14-2.13,1.45-2.81,6,.26,6.63,4.15.85,7.14-6,7.08-9.15,0-.57-.84-.79-1.28-.81-3.12-.18-6.77,6.82-4.5,9.1a1.77,1.77,0,0,0,1.9.39c3.18-1.69,5.91-5.82,6.88-9.21.21-.71-1.8-1.13-2.13-.58A45.45,45.45,0,0,0,243.67,29c-.75,1.91-2.27,3.92-2.29,6,0,.73,1.28.9,1.8.76,1.53-.4,2.1-1.35,1.45-2.88-.26-.62-1.22-.72-1.79-.61-1.28.25-3,.95-4.11.15l-1.71.47c1.79,1.22,3.73,1.77,5.6,2.9.49.3,2.47.19,1.51-.59-1.93-1.57-3-3.88-5-5.23-.33-.22-2.11-.74-1.94.17.44,2.36,4.87,7.65,7.75,6.65.22-.08.45-.2.39-.48-.56-2.45-2.95-5.61-5.91-4.55-3.41,1.22-.46,4,1.26,5.23a1.84,1.84,0,0,0,1.75.24c1.14-.64,1.53-2.11,2.32-3.21.42-.58-.86-1-1.21-1-1.95,0-5,.07-5.9-2.2-.76-2,4-5.4,4.79-6,2.51-1.94,5.31-3.5,6.3-6.68.24-.79-1.61-.86-2-.69-2.72,1.2-4.16,3.66-6,5.88-.56.68,1.49,1.15,1.92.83,3.58-2.58,7.39-5.34,9.86-9.06.4-.6-.86-.91-1.22-1-4.24-.38-8.11,3.77-12.16,4.55.53.34,1.06.68,1.6,1A26,26,0,0,1,247,16.69c1.35-.45,2.5-.52,3.65-1.41.81-.62-.92-1.11-1.35-1-3.3.41-6.56,1.56-9.9,1.63l1.35,1.05A14.29,14.29,0,0,1,246.15,15l-1.73-.91c-1.18,1-3.06,1.41-4.54,1.8-1.25.33.76,1.21,1.39,1.09,1.65-.31,3-1.05,4.6-1.44,2.22-.54,3.85-1.34,2.16,1.58-1.19,2.06-2.94,3.62-4,5.78-.32.65,1.75,1.06,2.13.58,1.51-1.91,3.11-3.74,4.66-5.62l-2.06-.72a49,49,0,0,0-4.61,10.4c-.23.73,1.77,1.06,2.13.58,1.43-1.88,5.21-6.11,4.41-8.83-.21-.7-1.64-.85-2.12-.42-3,2.64-4.52,6.71-6.75,10-.49.73,1.6,1.25,2.06.72,2.51-2.85,6.1-6.25,5.4-10.45-.08-.53-1.16-.7-1.54-.65-1.71.21-2,1-3.23,2.29-2.74,2.77-5.21,5.6-7.7,8.61-.52.63,1.58,1.31,2.06.72,1.76-2.12,3.44-4.35,5.35-6.33.91-.93,3.08-3.95,4.43-4.12L247.13,19c.65,3.95-2.95,7.22-5.29,9.87l2.06.72c2.23-3.27,3.75-7.36,6.75-10l-2.12-.43c.66,2.26-3.11,6.68-4.29,8.24l2.13.58a51.86,51.86,0,0,1,4.47-10.12c.46-.76-1.61-1.27-2.06-.72-1.55,1.88-3.15,3.71-4.66,5.62l2.13.58c.78-1.61,6.65-7.13,4.49-9.38s-8.86,1.56-10.86,1.93L241.27,17c1.81-.47,3.78-.91,5.21-2.17.68-.6-1.46-1-1.73-.9A14.83,14.83,0,0,0,239,16c-.85.63,1,1.06,1.35,1.05,3.34-.07,6.58-1.21,9.9-1.63l-1.35-1.05c-1.42,1.09-3.22,1.09-4.83,1.72a26.58,26.58,0,0,0-5.15,2.76c-.94.65,1.2,1.09,1.59,1,3.49-.67,7.56-4.78,11.13-4.46l-1.21-1c-2.41,3.63-6.1,6.33-9.58,8.85l1.92.82c1.74-2.1,3.14-4.52,5.72-5.66l-2-.7c-1.42,4.59-12.38,7.82-11,13.57.85,3.65,5.75,2.91,8.41,2.94l-1.22-1-1.54,1.4c-.11.07-.28.25-.2.41-.1.39-.2.78-.31,1.18l1.75.24c-1.31-.92.72-.72.74-1.29,0-.08-1.1-1.15-1.55-1.64-.85-.92-2-2.07-2.21-3.33l-2,.17c1.87,1.25,3.22,3.75,5,5.22l1.5-.59c-1.67-1-3.57-1.53-5.19-2.65-.56-.38-2.73-.25-1.71.47,2.61,1.84,4.32,1,7.22.47l-1.79-.61-.67,1.92,1.8.77c0-1.5,1-2.92,1.6-4.23a64.31,64.31,0,0,1,3.36-7.55l-2.12-.59c-.88,3.05-3.59,7.18-6.48,8.72l1.9.38c-1.23-1.24,1-7.86,2.86-7.76l-1.29-.81a9.2,9.2,0,0,1-2.16,6.07c-1.32,1.54-3.3,3-2.27-.18.87-2.67,1.15-2,.38,0-.23.57-.49,2.14-1.09,2.45-2.19,1.15-3.5-2.36-4-3.67-.27-.66-1.24-6.78-.69-6.66.8.17,1.29,5.83,1.17,6.45-.79,4-2.77-.1-3.12-2.05-.85-4.77,3.48-1,2.18.8l1.89.13c-.12-.08-6.43-5.82-3.76-6.22a10.76,10.76,0,0,1,1.35,1.69c1,3.08-2.31.62-.87-1.54l-1.89-.12c3.17,2.59,4.17,7.87,6.14,11.32.31.53,2.41.67,2.09,0-1.25-2.68-2.95-5.14-3.58-8.08-.33-1.51-.36-3.34,0-3.85.63.6.4,1.31-.7,2.12a9.7,9.7,0,0,1-2.69,1.95c-.89.51,1.19,1.23,1.78.94,2.18-1.05,7.93-5.92,10.36-5.25.82-.66,1.16-.53,1,.4a1,1,0,0,1-.44,1.37c-.66,1.54-2.69,3.22-3.77,4.51-.53.64,1.57,1.29,2.06.72,2.05-2.36,4.32-4.5,6.38-6.91.57-.67-1.49-1.12-1.92-.83-4.14,2.8-7.06,7.07-11.39,9.61l1.93.83c2.82-4.41,8.84-6.22,11.21-10.95.44-.87-1.46-1-1.92-.83-2.36,1-4,3.27-5.88,4.92-1.16,1-4.37,2.62-5.16,3.88-1,1.67,1.06,0,1.89-.47a28.31,28.31,0,0,0,3.24-2.87c2.55-2.15,5.15-4.19,7-7,.53-.84-1.51-1-1.93-.83-2.41,1-4.35,3.3-6.48,4.8-2.56,1.81-5.16,3.57-7.7,5.37-.9.64,1.24,1.19,1.79.94,1.92-.89,3.07-2.36,4.65-3.72,2.09-1.78,4.42-2.71,5.71-5.25.45-.88-1.46-1-1.92-.83-3.09,1.28-5.82,3.44-9,4.77l1.79.94a32.36,32.36,0,0,0,5.67-4.17c.65-.67-1.44-1-1.73-.91-1.91.35-3.5,1.54-5.46,1.91l1.6,1a7.35,7.35,0,0,0,2.5-2.43c.43-.7-1.1-.95-1.49-.94a12.14,12.14,0,0,0-5.28,1.5c-.89.42,1.17,1.19,1.78.94a72.28,72.28,0,0,1,7-2.21l-1.59-1A37.94,37.94,0,0,0,233,19c-.88.6,1.22,1.23,1.79.94a7.63,7.63,0,0,1,3.74-1.14c1.5.16.67-1.07-.37-1.18Z" transform="translate(-1 -11.95)"></path>
  <path class="cls-1" d="M77.83,146c-12.41,3-22,14.23-30.73,22.83-10.26,10.1-20.39,20.54-30,31.3-2.95,3.31-21.85,24.64-14.41,27.65.61.25,2.09.35,2.5-.36l.46-.8C6.3,225.57,3,225,2.47,226l-.47.8,2.5-.36c-3.5-1.42,14-23.62,16.08-25.94,9.17-10.28,18.83-20.22,28.61-29.9,8.43-8.34,18.28-20.16,30.25-23.05,2.13-.51-.41-1.83-1.61-1.54Z" transform="translate(-1 -11.95)"></path>
  <path class="cls-1" d="M61.55,184.24c-13.27,12.4-28.39,23.88-38.77,38.94-.62.9,1.59,1.19,2,1.14,1.1-.11,1.57-.18,2-1.23s-2.76-1.64-3.22-.63l.37.19,2,1.15c10.25-14.87,25.29-26.29,38.42-38.55,1.11-1-2.07-1.74-2.86-1Z" transform="translate(-1 -11.95)"></path>
</svg>
