<?xml version="1.0" encoding="UTF-8"?>
<svg xmlns="http://www.w3.org/2000/svg" id="Calque_1" data-name="Calque 1" viewBox="0 0 432.85 411.78">
  <defs>
    <style>.cls-1{fill:#e0e0e0;}</style>
  </defs>
  <ellipse class="cls-1" cx="292.58" cy="207.46" rx="12.94" ry="12.08"></ellipse>
  <ellipse class="cls-1" cx="164.02" cy="201.42" rx="12.94" ry="12.08"></ellipse>
  <path class="cls-1" d="M168.17,228.25c-7.37,0-13.37-5.61-13.37-12.51s6-12.51,13.37-12.51,13.37,5.61,13.37,12.51S175.55,228.25,168.17,228.25Zm0-24.16c-6.9,0-12.51,5.23-12.51,11.65s5.61,11.65,12.51,11.65,12.51-5.22,12.51-11.65S175.07,204.09,168.17,204.09Z" transform="translate(-4.15 -14.33)"></path>
  <path class="cls-1" d="M196.71,237.77c16.53,16,48.82,25.46,70.29,14.83,3-1.46.36-5.9-2.59-4.43-19.24,9.52-49.36.19-64.07-14-2.38-2.3-6,1.33-3.63,3.63Z" transform="translate(-4.15 -14.33)"></path>
  <path class="cls-1" d="M196.3,234.66c-3.76,8-6.94,17.56-5.26,26.51s10.67,13.42,18.85,15.45c8.59,2.15,19.14,3.37,27.46-.3,8-3.5,13.91-12.91,16.13-21.07.87-3.19-4.09-4.55-4.95-1.36-1.54,5.63-6.28,13.7-11.23,16.73-6.59,4-16,3.05-23.19,1.67-8.33-1.6-18.06-5.18-18.29-15.28-.16-6.88,2-13.63,4.92-19.76,1.4-3-3-5.58-4.44-2.59Z" transform="translate(-4.15 -14.33)"></path>
  <path class="cls-1" d="M214.88,247.85c-.91,4.53-1.6,9.11-2.51,13.64-.64,3.23,4.31,4.61,5,1.36.9-4.53,1.59-9.1,2.5-13.64.64-3.22-4.31-4.61-5-1.36Z" transform="translate(-4.15 -14.33)"></path>
  <path class="cls-1" d="M188.92,349.7c-.32-5.89.48-16.07-5.67-19.49-2.93-1.63-6.73-.74-9.88-.91a62.93,62.93,0,0,1-23.08-5.91c-23.62-11-41.58-33.45-50.76-57.42s-11.16-54-.15-77.76c10.53-22.75,24.75-41.33,45.39-55.92,22.14-15.66,49.31-26.86,76.23-30.36,29.33-3.82,57.32,2.74,81.24,20.18,21,15.29,41.24,37.52,51.21,61.67,10.89,26.39,7.78,53.49-7.63,77.25-14.7,22.65-33,44.54-56.85,57.86-13.45,7.49-26.64,9.81-41.71,11.21-12.13,1.13-14.87,10.72-11.7,21.64.45,1.57,4.95.46,4.51-1.06-1.07-3.7-2.55-8.79-.78-12.47,3.11-6.48,9-5.5,14.15-5.93a89.5,89.5,0,0,0,18.06-3.4,104.82,104.82,0,0,0,29.05-14.06C320.77,301,336.76,281.64,350,261.26c15.17-23.37,19-49.78,8.93-76.16-9.3-24.31-28.68-46.09-49-62-21.53-16.85-46.47-25.39-73.84-24.75-25.78.6-51.26,8.75-74.07,20.47-21.36,11-40.86,26.33-54.54,46.25-14.86,21.65-22,46.46-19.38,72.71,2.89,29.64,18,58.28,41.35,76.86,10.36,8.24,22.45,14.4,35.61,16.43,5.77.89,14.32-1.31,17.33,4.66,2.18,4.35,1.76,10.28,2,15,.08,1.46,4.61.65,4.51-1.06Z" transform="translate(-4.15 -14.33)"></path>
  <path class="cls-1" d="M138.63,164.51c-7.1,3.07-11.24,11.81-15,18.14a66.48,66.48,0,0,0-9.43,31.07c-.54,10.16-.08,20.7,2.43,30.6a58,58,0,0,0,5.13,13.48c2.67,4.94,5.83,9.21,5.75,15.08,0,1.38,4.45.66,4.5-.73,0-.18,0-.36,0-.53.07-1.85-4.43-1.06-4.49.41,0,.18,0,.35,0,.53l4.5-.73c.12-8.75-6.84-15.84-9.52-23.87-2.74-8.2-3.66-16.84-3.86-25.44-.25-10.24.45-20.59,4.3-30.19a84.92,84.92,0,0,1,7.68-14c2.35-3.66,5.54-10.1,9.69-11.9,2.85-1.23.33-2.78-1.7-1.89Z" transform="translate(-4.15 -14.33)"></path>
  <path class="cls-1" d="M147,283.88l-.63-.55c-.95-.81-4.1-.47-4.36,1-.36,2.07.89,3.53,1.76,5.32a67.65,67.65,0,0,0,3.15,6c1.82,2.95,3.3,4.87,6.74,5.87,1,.28,3.38-.13,3.66-1.38l.15-.68c.39-1.68-4.14-1.11-4.49.41l-.15.68,3.65-1.37c-2.78-.81-3.9-2.81-5.34-5.15a49.13,49.13,0,0,1-2.63-5c-.69-1.46-2.28-3.59-2-5.18l-4.36,1,.64.55c1.2,1,5.4-.6,4.21-1.62Z" transform="translate(-4.15 -14.33)"></path>
  <path class="cls-1" d="M185.8,353a177,177,0,0,0,28.09,1.49c6.63-.2,13.16-.06,19.79.08,1.25.06,2.51.07,3.77,0q6.33.44,4.16,4.05c1,5.36-6.52,7-10.63,7.18-5.9.24-11.92-.73-17.83-.78-6.43-.05-12.85.36-19.28.36-5.6,0-12.45.36-13-6.2-.27-3.46-1.06-8.8,3.43-8.58,1.69.08,4.84-2.34,1.83-2.48-3.3-.16-7.88-.32-9.45,3.26-1.22,2.77-1.29,11,.78,13.26,4.25,4.65,14.92,3.33,20.2,3.24,11.54-.18,22.89.23,34.41.52,4.8.12,10.15,0,12.82-4.85.65-1.16,2.42-6.94,2.14-8.44-.43-2.38-2.7-2.59-4.82-2.92-8-1.25-17-.52-25.08-.29a187.94,187.94,0,0,1-29.53-1.41c-1.72-.23-4.82,2.09-1.83,2.48Z" transform="translate(-4.15 -14.33)"></path>
  <path class="cls-1" d="M177.26,359.48c-2.93,7.64-4.55,19,5.21,22,3.64,1.12,8.55,1,12.44,1.2a183.69,183.69,0,0,0,18.92,0c6.71-.35,13.59,0,20.31-.08,2.72,0,5.44.36,7.9-1.21,5.15-3.31,5.42-16.37,2.13-20.88-.9-1.23-5.26.18-4.21,1.62,2,2.7,1.23,6.2,1.08,9.29-.07,1.44.4,4.8-.35,6.1-1.2,2.1-4.78,2.2-6.76,2.45-6.84.89-13.83-.09-20.71.39a95.36,95.36,0,0,1-24.1-1c-4.61-.89-8.8-1.94-9.55-7.32-.57-4.13.73-9.17,2.19-13,.57-1.48-3.93-1.07-4.5.42Z" transform="translate(-4.15 -14.33)"></path>
  <path class="cls-1" d="M177.76,375c-7.48,1.07-6.41,10.41-4.77,15.9,1.25,4.25,3.27,8.18,7.9,9.14,7.19,1.5,16.25.69,23.57.55,12.07-.22,24.38-.47,35.91-4.74,4.92-1.83,6.72-4.39,7.11-9.66.25-3.32,1.45-9-1.76-11.12-1.22-.8-5.41.88-3.64,2.05s1,5.54.9,7.46c-.29,9.76-7.29,10.28-15.18,11.68A103.25,103.25,0,0,1,211,397.79c-5.43.1-10.81.31-16.26.14-3.94-.12-8.38.44-12-1.13-4.17-1.8-5.56-6.52-6.16-10.87-.11-.84-.53-8.35.47-8.49,2.13-.3,3.8-2.9.7-2.46Z" transform="translate(-4.15 -14.33)"></path>
  <path class="cls-1" d="M181.34,400.13c.39,9.58,3.31,16.81,12.36,21.09a53.48,53.48,0,0,0,26.53,4.66,23.29,23.29,0,0,0,18.1-11.63c2.45-4.48,2.44-9.67,2.94-14.6.26-2.67,1-4.68-1.57-6.25-1.25-.75-5.43,1-3.63,2.05,2.35,1.41-.45,15.2-1.15,16.94-4.24,10.6-15.22,12-25.27,10.24-6.06-1.09-12.8-2.58-17.58-6.73-5-4.39-6-10.53-6.21-16.82-.06-1.45-4.59-.66-4.52,1.05Z" transform="translate(-4.15 -14.33)"></path>
  <path class="cls-1" d="M189,401.61c-.68,3.51-5.29,6.29-4.08,10.18.17.55.84.68,1.34.71a5.05,5.05,0,0,0,4.44-1.79c.68-.84-.51-1.3-1.17-1.35a3.66,3.66,0,0,0-3,1.12l-.34.29,1.52-.71.36,0,1.35.72c-1-3.35,3.44-6.36,4.06-9.54.33-1.72-4.2-1.11-4.49.41Z" transform="translate(-4.15 -14.33)"></path>
  <path class="cls-1" d="M196.47,400.43a35.33,35.33,0,0,0-6,7.85c-1.14,1.91-3,4.34-2.52,6.7.14.74,1.38.72,1.91.7,1.87-.07,3.72-.88,4.07-2.87.31-1.74-4.22-1.11-4.49.41h1.11l1.91.7c-.37-2,1.47-4.21,2.43-5.83a30.58,30.58,0,0,1,5.16-6.8c1.89-1.8-2.48-1.88-3.56-.86Z" transform="translate(-4.15 -14.33)"></path>
  <path class="cls-1" d="M202.34,401c-2.68,2.95-4,7.45-6,10.89-.73,1.28-3.65,5.09-1.44,6.16,1.1.53,3.65.14,4.07-1.23l.21-.7c.48-1.59-4-1.09-4.5.42l-.21.69,4.07-1.23s7.11-13.88,7.93-14.77-.58-1.28-1.17-1.36a3.7,3.7,0,0,0-3,1.13Z" transform="translate(-4.15 -14.33)"></path>
  <path class="cls-1" d="M212.38,399.11c-3.71,2.13-5.51,6-7.34,9.73-1.27,2.56-2.53,5.12-4,7.57-.87,1.43-1.8,2.68-1.81,4.41,0,1.41,4.5.68,4.51-1.05,0-1.57,1.53-3.14,2.28-4.43,1-1.71,1.85-3.55,2.74-5.33,1.58-3.15,3.13-7.63,6.36-9.48,2.62-1.5-1.26-2.26-2.73-1.42Z" transform="translate(-4.15 -14.33)"></path>
  <path class="cls-1" d="M224,399.85l-.72-.42a3.72,3.72,0,0,0-3.6.6c-2.89,2.47-4.53,5.77-6.2,9.12-1,2.06-2.13,4-3.35,6s-2.26,4.8-3.89,6.57l4.32-.09c0-.42.06-.84.08-1.27.12-1.83-4.4-1.06-4.49.42,0,.42-.05.84-.08,1.27-.13,2,3.65.65,4.33-.1,1.39-1.51,2-3.53,3.09-5.3s2.28-3.54,3.26-5.42c1.88-3.59,3.34-7.6,6.5-10.3l-3.6.6.72.42c1.26.73,5.43-1,3.63-2Z" transform="translate(-4.15 -14.33)"></path>
  <path class="cls-1" d="M226.17,400.51c-3,7.88-8.08,14.87-12.23,22.23l4.33-.09c0-.44.07-.87.1-1.31.14-1.82-4.38-1.08-4.49.41,0,.44-.07.88-.1,1.31-.15,1.85,3.75.93,4.33-.09,4.27-7.59,9.42-14.74,12.55-22.87.57-1.49-3.92-1.08-4.49.41Z" transform="translate(-4.15 -14.33)"></path>
  <path class="cls-1" d="M234,397.67c-2.52,8.82-7.21,17.11-9.35,26-.4,1.67,4.12,1.11,4.49-.41,2.14-8.87,6.84-17.16,9.36-26,.46-1.61-4.06-1.1-4.5.41Z" transform="translate(-4.15 -14.33)"></path>
  <path class="cls-1" d="M353.73,115.71c.3.31,20.14-12.6,22-13.82,2.39-1.55,4.71-3.21,7.05-4.83,1.19-.82,3.5-3.24,4.75-3.35,2.22-.19,1.71.88,2.69,3.1.89,2,1.92,3.87,2.93,5.8.83,1.59,3.66,5.73,2.87,7.35.22.17.44.34.65.52a24.94,24.94,0,0,0-4,.07c-4.09.34-8.17,1.22-12.22,1.89-9.3,1.54-19.21,4.56-28.67,3.91-1.21-.08-3.33,1.55-1.16,1.82l1.55.2c1.3.17,3.93-1.49,1.6-1.79l-1.55-.2c-.38.61-.77,1.22-1.16,1.82,11.89.82,24.41-3.11,36.09-5,3.23-.53,7.12-.13,10.22-1,.61-.16,1.27-.14,1.73-.67,2-2.32-1.48-7.76-2.6-9.9C395.16,99,393.63,92,390.8,90.78c-2.55-1.13-5.37,1.65-7.11,2.92C373,101.51,361,107.5,350.43,115.45c-.25.19-.66.61-.34.94l.25.27c.85.88,4.24-.06,3.39-1Z" transform="translate(-4.15 -14.33)"></path>
  <path class="cls-1" d="M95.17,109.42c-.08,1.14-.12.89.56,1.8l3.18-1.14c-4.13-3.46-8.59-6.34-12.59-10.06-3.42-3.17-6.8-6.39-10.31-9.46S68.8,84.81,65.1,82.09c-1.62-1.19-4.2-1.66-2.9-4.29.43-.88,4.11-2.18,4.93-2.61,4.47-2.38,9.75-5,14.74-6,3.17-.65,3.25.83,4.67,3.73a56,56,0,0,1,2.93,7.78c3,9.62,3.8,19.68,6.83,29.3.38,1.23,3.52.79,3.58-.49l0-.38c0-1.13-3.52-.85-3.59.49,0,.12,0,.25,0,.38l3.58-.49C97.86,103,97,96.54,95.58,90a121.13,121.13,0,0,0-6.31-19.67c-1-2.63-1.51-4.41-4.65-4.19-2.62.17-5.71,2.06-8.13,2.93-3,1.06-5.94,2.14-8.8,3.49-2.56,1.21-9.13,3.09-9.84,6.1-.63,2.69,5.08,5.4,6.63,6.57a212.81,212.81,0,0,1,17.61,15c4.4,4.12,9.29,7.4,13.85,11.23.69.57,4,0,3.18-1.14-.12-.44-.25-.89-.37-1.34.08-1.12-3.49-.85-3.58.49Z" transform="translate(-4.15 -14.33)"></path>
  <path class="cls-1" d="M62.44,227.22c-15.42,3.15-30.51-.36-46,.63-2.6.16-9.64-.58-11.65,1.67-1.19,1.33-.44,1.89,0,3.23C6,236.1,7.75,239,8.49,242.69c.69,3.5.29,8.3,4.83,8.51,4.22.19,9.65-3.67,13.2-5.57,6.85-3.66,14-6.62,20.88-10.16a54.85,54.85,0,0,1,11.13-4.53,19,19,0,0,0,5.31-1.79c1.7-1-1.73-1.49-2.7-.93-3.37,2-8.48,2.46-12.13,4.15-4.93,2.29-10,4.52-14.8,7-4.63,2.37-9.24,5-14,7.11-2.48,1.11-5.52,3.15-7.54-.16-1.17-1.93-1.13-6.47-1.73-8.72a23.16,23.16,0,0,0-2-4.81c-1.48-3-.54-2.38,2.43-2.66a122.61,122.61,0,0,1,18.38-.34c11.26.61,21.75,1.51,32.92-.77,2.09-.43,1.92-2.23-.24-1.79Z" transform="translate(-4.15 -14.33)"></path>
  <path class="cls-1" d="M390.52,257.4l-3.28-.42-1.6,1.79c11.49,1.3,23,1.85,34.58,2.32,2.91.12,5.82.26,8.74.21,2.34-.05,3.4-.95,3.38,1.19,0,1.46-1.72,4.42-2.33,5.8a74.28,74.28,0,0,1-5.06,8.89,30.83,30.83,0,0,1-5,6.33c-1.87,1.74-1.75,1.94-3.4.21-3.24-3.39-6.44-6.85-10-10-3.16-2.83-6.27-6.16-9.88-8.45-2.89-1.85-8.93-4.31-10.35-7.79l-2.59,1.14,1.71.13c1.28.1,3.93-1.61,1.6-1.79l-1.71-.13c-.42,0-3,.14-2.59,1.14,2.29,5.61,11.28,8.47,15.46,12.36,3.08,2.86,6.28,5.6,9.33,8.53a59.45,59.45,0,0,1,5.3,5.35c.75.93,1.14,2.28,2.15,3,3.35,2.38,6.43-1.35,8.5-3.58,6.1-6.57,9.81-14.9,13.43-23a.44.44,0,0,0-.06-.47c-1-1.25-1.81-1.2-3.4-1.18-4.55,0-9.05.36-13.65.17-10.89-.46-21.77-1-32.61-2.21-1.28-.15-3.94,1.49-1.6,1.79l3.28.42c1.31.17,3.93-1.49,1.6-1.79Z" transform="translate(-4.15 -14.33)"></path>
  <path class="cls-1" d="M74,331.67l.32-.25-2.7-.92a197,197,0,0,0-25.79,24.3c-1.55,1.74-4.85,4-3.16,6.38,1.3,1.79,5.25,2.1,7.24,2.54,4.2.94,8.3,3,12.48,3.76,1.63.29,2.92.37,4.14-1.05s1.37-4.72,1.74-6.42c.62-2.86,1-5.76,1.61-8.63.66-3.2,1.35-6.4,2.14-9.58.72-2.95.92-6.46,2.66-8.93l-3.37-.25-.07.38c-.29,1.38,3.27,1.16,3.52,0,0-.12,0-.24.07-.37.3-1.42-2.85-1-3.36-.24-2,2.9-2.23,5.94-3,9.4-.9,4.18-2,8.31-2.75,12.51-.31,1.68-.88,10.21-2.2,11-1.15.67-8.05-2.46-9.25-2.76-1.82-.45-4.33-.38-5.93-1.32-2.92-1.74-1.94-2.94,0-5.12,1.5-1.72,3.06-3.4,4.65-5a203,203,0,0,1,21.34-19.61c1.61-1.25-1.79-1.63-2.7-.92l-.33.25c-1.61,1.23,1.79,1.63,2.71.92Z" transform="translate(-4.15 -14.33)"></path>
  <path class="cls-1" d="M347.57,333.08c2.28,6.12,7.85,10.39,13.38,13.53,3.09,1.75,6.37,3.15,9.58,4.64,2.75,1.28,8.14,2.86,10.05,5.47.23-.37.46-.74.68-1.12-.9.44-2.5,0-3.57.34-1.82.56-3.09,1.81-4.53,3-2.56,2.13-15.77,12.55-18.15,9.43-1-1.35-.07-6.37-.55-8.21-.9-3.54-2-6.91-2.73-10.51-.64-3.39-1.49-6.76-1.47-10.21,0-2.23.67-4-.49-6.09-.59-1-4.09-.27-3.39.95,1,1.73.46,3.28.37,5.09a27.91,27.91,0,0,0,.67,6.76A109.83,109.83,0,0,0,350,357.78a28.81,28.81,0,0,1,1.51,5.91c.14,1.75-.85,4-.38,5.59s.52,1.83,2.29,2.1c4.51.68,11.78-3.9,15.42-6,3-1.76,5.2-4.51,8.13-6.33,2.16-1.34,4.23-1.08,6.36-2.13.37-.18,1.05-.62.69-1.12-2.59-3.54-9.08-5.2-13-7-7.51-3.48-16.76-7.87-19.86-16.19-.46-1.25-4-.56-3.58.49Z" transform="translate(-4.15 -14.33)"></path>
  <path class="cls-1" d="M227.36,55.76c-2.28-2-2.67-8.25-3.51-11-1.26-4-2.81-8-4.44-11.91-1.5-3.61-3.09-7.19-4.51-10.82-1.65-4.2,1.48-3,4.52-3.34,2.22-.28,8.47-3,10-2.11,1.81,1.11.81,7.09.66,8.69-1,10.51-3.77,20.65-5.33,31l3.55-.24.05-.39c.14-1.06-3.41-.86-3.58.49l0,.39c-.14,1,3.38.84,3.55-.24,1.83-12.2,6.06-24.62,5.64-37.09-.07-2.18,0-4.05-2.16-4.78-1.2-.4-2.4.3-3.52.53-3.8.79-7.48,1.89-11.39,2.07-1.84.08-5.19-.44-6.22,1.73s2,7,2.77,8.68c2.84,6.79,5.93,13.56,7.76,20.71.8,3.09.73,6.71,3.28,8.92.85.74,4.23-.23,3-1.33Z" transform="translate(-4.15 -14.33)"></path>
</svg>
