<svg xmlns="http://www.w3.org/2000/svg" xmlns:xlink="http://www.w3.org/1999/xlink" viewBox="0 0 2581.43 1721.51">
  <defs>
    <style>
      .cls-1 {
        isolation: isolate;
      }

      .cls-15, .cls-2 {
        fill: #b7d972;
      }

      .cls-12, .cls-2 {
        opacity: 0.6;
      }

      .cls-3 {
        fill: #473b1e;
      }

      .cls-4, .cls-51 {
        fill: #847d3d;
      }

      .cls-5 {
        fill: url(#Íîâûé_îáðàçåö_ãðàäèåíòà_8);
      }

      .cls-6 {
        fill: url(#Íîâûé_îáðàçåö_ãðàäèåíòà_7);
      }

      .cls-7 {
        fill: url(#Íîâûé_îáðàçåö_ãðàäèåíòà_8-2);
      }

      .cls-8 {
        fill: url(#Íîâûé_îáðàçåö_ãðàäèåíòà_9);
      }

      .cls-9 {
        fill: url(#Íîâûé_îáðàçåö_ãðàäèåíòà_7-2);
      }

      .cls-10 {
        fill: #efac7f;
      }

      .cls-11, .cls-19, .cls-20, .cls-27, .cls-30, .cls-48, .cls-51 {
        opacity: 0.3;
      }

      .cls-11, .cls-19, .cls-20, .cls-22, .cls-27, .cls-31, .cls-47, .cls-49, .cls-50, .cls-56 {
        mix-blend-mode: multiply;
      }

      .cls-11 {
        fill: url(#Íîâûé_îáðàçåö_ãðàäèåíòà_7-3);
      }

      .cls-12, .cls-58 {
        fill: #d19369;
      }

      .cls-13 {
        fill: url(#Íîâûé_îáðàçåö_ãðàäèåíòà_11);
      }

      .cls-14, .cls-30, .cls-60 {
        fill: #fff;
      }

      .cls-14 {
        opacity: 0.1;
        mix-blend-mode: color-dodge;
      }

      .cls-16 {
        fill: url(#Íîâûé_îáðàçåö_ãðàäèåíòà_10);
      }

      .cls-17 {
        fill: url(#Íîâûé_îáðàçåö_ãðàäèåíòà_9-2);
      }

      .cls-18 {
        fill: url(#Íîâûé_îáðàçåö_ãðàäèåíòà_9-3);
      }

      .cls-19 {
        fill: url(#Íîâûé_îáðàçåö_ãðàäèåíòà_7-4);
      }

      .cls-20 {
        fill: url(#Íîâûé_îáðàçåö_ãðàäèåíòà_7-5);
      }

      .cls-21 {
        fill: url(#Íîâûé_îáðàçåö_ãðàäèåíòà_9-4);
      }

      .cls-22, .cls-70 {
        fill: #45258f;
      }

      .cls-22, .cls-47 {
        opacity: 0.2;
      }

      .cls-23 {
        fill: url(#Íîâûé_îáðàçåö_ãðàäèåíòà_9-5);
      }

      .cls-24 {
        fill: url(#Íîâûé_îáðàçåö_ãðàäèåíòà_9-6);
      }

      .cls-25 {
        fill: url(#Íîâûé_îáðàçåö_ãðàäèåíòà_9-7);
      }

      .cls-26 {
        fill: url(#Íîâûé_îáðàçåö_ãðàäèåíòà_7-6);
      }

      .cls-27 {
        fill: url(#Íîâûé_îáðàçåö_ãðàäèåíòà_7-7);
      }

      .cls-28 {
        fill: url(#Íîâûé_îáðàçåö_ãðàäèåíòà_7-8);
      }

      .cls-29 {
        fill: url(#Íîâûé_îáðàçåö_ãðàäèåíòà_8-3);
      }

      .cls-31, .cls-45, .cls-49, .cls-67 {
        opacity: 0.5;
      }

      .cls-31 {
        fill: url(#Íîâûé_îáðàçåö_ãðàäèåíòà_8-4);
      }

      .cls-32 {
        fill: url(#Íîâûé_îáðàçåö_ãðàäèåíòà_9-8);
      }

      .cls-33 {
        fill: url(#Íîâûé_îáðàçåö_ãðàäèåíòà_9-9);
      }

      .cls-34 {
        fill: url(#Íîâûé_îáðàçåö_ãðàäèåíòà_9-10);
      }

      .cls-35 {
        fill: url(#Íîâûé_îáðàçåö_ãðàäèåíòà_9-11);
      }

      .cls-36 {
        fill: url(#Íîâûé_îáðàçåö_ãðàäèåíòà_11-2);
      }

      .cls-37 {
        fill: url(#Íîâûé_îáðàçåö_ãðàäèåíòà_9-12);
      }

      .cls-38 {
        fill: url(#Íîâûé_îáðàçåö_ãðàäèåíòà_9-13);
      }

      .cls-39 {
        fill: url(#Íîâûé_îáðàçåö_ãðàäèåíòà_7-9);
      }

      .cls-40 {
        fill: url(#Íîâûé_îáðàçåö_ãðàäèåíòà_9-14);
      }

      .cls-41 {
        opacity: 0.8;
      }

      .cls-42 {
        fill: #d1eaf2;
      }

      .cls-43 {
        fill: url(#Íîâûé_îáðàçåö_ãðàäèåíòà_8-5);
      }

      .cls-44 {
        fill: url(#Íîâûé_îáðàçåö_ãðàäèåíòà_8-6);
      }

      .cls-46 {
        fill: url(#Íîâûé_îáðàçåö_ãðàäèåíòà_11-3);
      }

      .cls-47, .cls-49 {
        fill: #74bdc1;
      }

      .cls-50 {
        fill: #f4a640;
      }

      .cls-52 {
        fill: url(#Íîâûé_îáðàçåö_ãðàäèåíòà_9-15);
      }

      .cls-53 {
        fill: url(#Íîâûé_îáðàçåö_ãðàäèåíòà_9-16);
      }

      .cls-54 {
        fill: url(#Íîâûé_îáðàçåö_ãðàäèåíòà_7-10);
      }

      .cls-55 {
        fill: url(#Íîâûé_îáðàçåö_ãðàäèåíòà_7-11);
      }

      .cls-56, .cls-68 {
        fill: #7772d6;
      }

      .cls-57 {
        fill: url(#Íîâûé_îáðàçåö_ãðàäèåíòà_9-17);
      }

      .cls-59 {
        fill: #333;
      }

      .cls-61 {
        fill: #edfdfc;
      }

      .cls-62 {
        fill: #282828;
      }

      .cls-63 {
        fill: #002a24;
      }

      .cls-64 {
        fill: #ffc0bb;
      }

      .cls-65 {
        fill: url(#Íîâûé_îáðàçåö_ãðàäèåíòà_7-12);
      }

      .cls-66 {
        fill: url(#Íîâûé_îáðàçåö_ãðàäèåíòà_11-4);
      }

      .cls-67 {
        fill: #f3fdff;
      }

      .cls-69 {
        fill: url(#Íîâûé_îáðàçåö_ãðàäèåíòà_11-5);
      }

      .cls-71 {
        fill: url(#Íîâûé_îáðàçåö_ãðàäèåíòà_7-13);
      }

      .cls-72 {
        fill: url(#Íîâûé_îáðàçåö_ãðàäèåíòà_7-14);
      }

      .cls-73 {
        fill: url(#Íîâûé_îáðàçåö_ãðàäèåíòà_7-15);
      }

      .cls-74 {
        fill: url(#Íîâûé_îáðàçåö_ãðàäèåíòà_7-16);
      }

      .cls-75 {
        fill: url(#Íîâûé_îáðàçåö_ãðàäèåíòà_7-17);
      }
    </style>
    <linearGradient id="Íîâûé_îáðàçåö_ãðàäèåíòà_8" data-name="Íîâûé îáðàçåö ãðàäèåíòà 8" x1="560.33" y1="663.72" x2="848.21" y2="663.72" gradientUnits="userSpaceOnUse">
      <stop offset="0" stop-color="#c9cd55"/>
      <stop offset="0.51" stop-color="#659c52"/>
      <stop offset="1" stop-color="#287f50"/>
    </linearGradient>
    <linearGradient id="Íîâûé_îáðàçåö_ãðàäèåíòà_7" data-name="Íîâûé îáðàçåö ãðàäèåíòà 7" x1="480.52" y1="756.56" x2="875.61" y2="756.56" gradientUnits="userSpaceOnUse">
      <stop offset="0" stop-color="#fb9a2b"/>
      <stop offset="1" stop-color="#e65925"/>
    </linearGradient>
    <linearGradient id="Íîâûé_îáðàçåö_ãðàäèåíòà_8-2" x1="555.17" y1="790.98" x2="868.4" y2="790.98" xlink:href="#Íîâûé_îáðàçåö_ãðàäèåíòà_8"/>
    <linearGradient id="Íîâûé_îáðàçåö_ãðàäèåíòà_9" data-name="Íîâûé îáðàçåö ãðàäèåíòà 9" x1="1996.81" y1="1247.25" x2="1989.85" y2="1080.2" gradientUnits="userSpaceOnUse">
      <stop offset="0" stop-color="#53cd9f"/>
      <stop offset="1" stop-color="#0d7a5c"/>
    </linearGradient>
    <linearGradient id="Íîâûé_îáðàçåö_ãðàäèåíòà_7-2" x1="707.17" y1="732.32" x2="1201.95" y2="732.32" xlink:href="#Íîâûé_îáðàçåö_ãðàäèåíòà_7"/>
    <linearGradient id="Íîâûé_îáðàçåö_ãðàäèåíòà_7-3" x1="779.96" y1="481.46" x2="894.44" y2="481.46" xlink:href="#Íîâûé_îáðàçåö_ãðàäèåíòà_7"/>
    <linearGradient id="Íîâûé_îáðàçåö_ãðàäèåíòà_11" data-name="Íîâûé îáðàçåö ãðàäèåíòà 11" x1="382.32" y1="1333.46" x2="906.71" y2="1333.46" gradientUnits="userSpaceOnUse">
      <stop offset="0" stop-color="#00503e"/>
      <stop offset="1" stop-color="#023222"/>
    </linearGradient>
    <linearGradient id="Íîâûé_îáðàçåö_ãðàäèåíòà_10" data-name="Íîâûé îáðàçåö ãðàäèåíòà 10" x1="229.78" y1="1660.4" x2="766" y2="1660.4" gradientUnits="userSpaceOnUse">
      <stop offset="0" stop-color="#c7a44f"/>
      <stop offset="1" stop-color="#609a3f"/>
    </linearGradient>
    <linearGradient id="Íîâûé_îáðàçåö_ãðàäèåíòà_9-2" x1="291.98" y1="2063.64" x2="446.27" y2="1898.91" xlink:href="#Íîâûé_îáðàçåö_ãðàäèåíòà_9"/>
    <linearGradient id="Íîâûé_îáðàçåö_ãðàäèåíòà_9-3" x1="370.66" y1="1673.2" x2="668.81" y2="2071.11" xlink:href="#Íîâûé_îáðàçåö_ãðàäèåíòà_9"/>
    <linearGradient id="Íîâûé_îáðàçåö_ãðàäèåíòà_7-4" x1="854.33" y1="651.17" x2="968.81" y2="651.17" xlink:href="#Íîâûé_îáðàçåö_ãðàäèåíòà_7"/>
    <linearGradient id="Íîâûé_îáðàçåö_ãðàäèåíòà_7-5" x1="942.52" y1="837.88" x2="1056.99" y2="837.88" xlink:href="#Íîâûé_îáðàçåö_ãðàäèåíòà_7"/>
    <linearGradient id="Íîâûé_îáðàçåö_ãðàäèåíòà_9-4" x1="1392.73" y1="668.26" x2="1996.06" y2="668.26" xlink:href="#Íîâûé_îáðàçåö_ãðàäèåíòà_9"/>
    <linearGradient id="Íîâûé_îáðàçåö_ãðàäèåíòà_9-5" x1="1378.33" y1="549.42" x2="1911.95" y2="549.42" xlink:href="#Íîâûé_îáðàçåö_ãðàäèåíòà_9"/>
    <linearGradient id="Íîâûé_îáðàçåö_ãðàäèåíòà_9-6" x1="1505.2" y1="755.84" x2="1957.26" y2="755.84" xlink:href="#Íîâûé_îáðàçåö_ãðàäèåíòà_9"/>
    <linearGradient id="Íîâûé_îáðàçåö_ãðàäèåíòà_9-7" x1="1193.15" y1="732.58" x2="1452.27" y2="732.58" xlink:href="#Íîâûé_îáðàçåö_ãðàäèåíòà_9"/>
    <linearGradient id="Íîâûé_îáðàçåö_ãðàäèåíòà_7-6" x1="1843.14" y1="548.8" x2="1020.63" y2="1038.36" xlink:href="#Íîâûé_îáðàçåö_ãðàäèåíòà_7"/>
    <linearGradient id="Íîâûé_îáðàçåö_ãðàäèåíòà_7-7" x1="1816.2" y1="503.54" x2="993.68" y2="993.1" xlink:href="#Íîâûé_îáðàçåö_ãðàäèåíòà_7"/>
    <linearGradient id="Íîâûé_îáðàçåö_ãðàäèåíòà_7-8" x1="1876.23" y1="604.4" x2="1053.72" y2="1093.96" xlink:href="#Íîâûé_îáðàçåö_ãðàäèåíòà_7"/>
    <linearGradient id="Íîâûé_îáðàçåö_ãðàäèåíòà_8-3" x1="1932.11" y1="694.54" x2="1894.98" y2="1517.25" xlink:href="#Íîâûé_îáðàçåö_ãðàäèåíòà_8"/>
    <linearGradient id="Íîâûé_îáðàçåö_ãðàäèåíòà_8-4" x1="2010.28" y1="945.52" x2="1973.16" y2="1768.03" xlink:href="#Íîâûé_îáðàçåö_ãðàäèåíòà_8"/>
    <linearGradient id="Íîâûé_îáðàçåö_ãðàäèåíòà_9-8" x1="2346.8" y1="1355.23" x2="2929.17" y2="1196.3" xlink:href="#Íîâûé_îáðàçåö_ãðàäèåíòà_9"/>
    <linearGradient id="Íîâûé_îáðàçåö_ãðàäèåíòà_9-9" x1="2851.99" y1="776.96" x2="2469.16" y2="1131.95" xlink:href="#Íîâûé_îáðàçåö_ãðàäèåíòà_9"/>
    <linearGradient id="Íîâûé_îáðàçåö_ãðàäèåíòà_9-10" x1="2402.89" y1="1560.75" x2="2985.26" y2="1401.81" xlink:href="#Íîâûé_îáðàçåö_ãðàäèåíòà_9"/>
    <linearGradient id="Íîâûé_îáðàçåö_ãðàäèåíòà_9-11" x1="3044.43" y1="984.49" x2="2661.6" y2="1339.48" xlink:href="#Íîâûé_îáðàçåö_ãðàäèåíòà_9"/>
    <linearGradient id="Íîâûé_îáðàçåö_ãðàäèåíòà_11-2" x1="2085.63" y1="1660.4" x2="2659.61" y2="1660.4" xlink:href="#Íîâûé_îáðàçåö_ãðàäèåíòà_11"/>
    <linearGradient id="Íîâûé_îáðàçåö_ãðàäèåíòà_9-12" x1="2463.89" y1="1784.26" x2="3046.26" y2="1625.33" xlink:href="#Íîâûé_îáðàçåö_ãðàäèåíòà_9"/>
    <linearGradient id="Íîâûé_îáðàçåö_ãðàäèåíòà_9-13" x1="3102.26" y1="1046.85" x2="2719.43" y2="1401.84" xlink:href="#Íîâûé_îáðàçåö_ãðàäèåíòà_9"/>
    <linearGradient id="Íîâûé_îáðàçåö_ãðàäèåíòà_7-9" x1="1821.12" y1="619.25" x2="1995.59" y2="619.25" xlink:href="#Íîâûé_îáðàçåö_ãðàäèåíòà_7"/>
    <linearGradient id="Íîâûé_îáðàçåö_ãðàäèåíòà_9-14" x1="1976.42" y1="481.64" x2="1888.19" y2="748.69" xlink:href="#Íîâûé_îáðàçåö_ãðàäèåíòà_9"/>
    <linearGradient id="Íîâûé_îáðàçåö_ãðàäèåíòà_8-5" x1="2282.26" y1="1997.21" x2="1987.02" y2="1572.61" xlink:href="#Íîâûé_îáðàçåö_ãðàäèåíòà_8"/>
    <linearGradient id="Íîâûé_îáðàçåö_ãðàäèåíòà_8-6" x1="2054.66" y1="1649.87" x2="2416.61" y2="1710.77" xlink:href="#Íîâûé_îáðàçåö_ãðàäèåíòà_8"/>
    <linearGradient id="Íîâûé_îáðàçåö_ãðàäèåíòà_11-3" x1="2016.6" y1="1532.15" x2="2252.61" y2="1532.15" gradientTransform="translate(4269.21 3064.3) rotate(-180)" xlink:href="#Íîâûé_îáðàçåö_ãðàäèåíòà_11"/>
    <linearGradient id="Íîâûé_îáðàçåö_ãðàäèåíòà_9-15" x1="1824" y1="1606.02" x2="2062.4" y2="1951.15" xlink:href="#Íîâûé_îáðàçåö_ãðàäèåíòà_9"/>
    <linearGradient id="Íîâûé_îáðàçåö_ãðàäèåíòà_9-16" x1="1757.22" y1="1564.02" x2="2050.02" y2="1564.02" xlink:href="#Íîâûé_îáðàçåö_ãðàäèåíòà_9"/>
    <linearGradient id="Íîâûé_îáðàçåö_ãðàäèåíòà_7-10" x1="1667.88" y1="1138.23" x2="1980.65" y2="1138.23" xlink:href="#Íîâûé_îáðàçåö_ãðàäèåíòà_7"/>
    <linearGradient id="Íîâûé_îáðàçåö_ãðàäèåíòà_7-11" x1="1912.28" y1="1589.13" x2="1904.16" y2="1424.97" xlink:href="#Íîâûé_îáðàçåö_ãðàäèåíòà_7"/>
    <linearGradient id="Íîâûé_îáðàçåö_ãðàäèåíòà_9-17" x1="78.18" y1="1964.64" x2="2551.5" y2="1964.64" xlink:href="#Íîâûé_îáðàçåö_ãðàäèåíòà_9"/>
    <linearGradient id="Íîâûé_îáðàçåö_ãðàäèåíòà_7-12" x1="949.11" y1="1296.22" x2="762.33" y2="1400.24" xlink:href="#Íîâûé_îáðàçåö_ãðàäèåíòà_7"/>
    <linearGradient id="Íîâûé_îáðàçåö_ãðàäèåíòà_11-4" x1="944.26" y1="1416.56" x2="803.5" y2="1583.61" xlink:href="#Íîâûé_îáðàçåö_ãðàäèåíòà_11"/>
    <linearGradient id="Íîâûé_îáðàçåö_ãðàäèåíòà_11-5" x1="933.1" y1="1407.15" x2="792.34" y2="1574.2" xlink:href="#Íîâûé_îáðàçåö_ãðàäèåíòà_11"/>
    <linearGradient id="Íîâûé_îáðàçåö_ãðàäèåíòà_7-13" x1="944.27" y1="1287.53" x2="757.49" y2="1391.55" xlink:href="#Íîâûé_îáðàçåö_ãðàäèåíòà_7"/>
    <linearGradient id="Íîâûé_îáðàçåö_ãðàäèåíòà_7-14" x1="948.79" y1="1295.65" x2="762.01" y2="1399.67" xlink:href="#Íîâûé_îáðàçåö_ãðàäèåíòà_7"/>
    <linearGradient id="Íîâûé_îáðàçåö_ãðàäèåíòà_7-15" x1="783.24" y1="1939.68" x2="848.55" y2="1939.68" xlink:href="#Íîâûé_îáðàçåö_ãðàäèåíòà_7"/>
    <linearGradient id="Íîâûé_îáðàçåö_ãðàäèåíòà_7-16" x1="869.74" y1="1939.68" x2="935.06" y2="1939.68" xlink:href="#Íîâûé_îáðàçåö_ãðàäèåíòà_7"/>
    <linearGradient id="Íîâûé_îáðàçåö_ãðàäèåíòà_7-17" x1="935.29" y1="1271.42" x2="748.52" y2="1375.44" xlink:href="#Íîâûé_îáðàçåö_ãðàäèåíòà_7"/>
  </defs>
  <g class="cls-1">
    <g id="Layer_1" data-name="Layer 1">
      <g>
        <path class="cls-2" d="M308.66,1120.3l-98.19,366.61-55.14,179.88s-4.85,98.42-4.85,100.55,16.06,63.53,16.06,63.53,35,45.7,35.19,46.23,34.73,28.88,36.85,30.06S306.47,1944,308.66,1944s49.43,12.91,49.43,12.91l178.09,7.72H719.47s29.83-720.7,29.83-722.59,62.75-157.46,63.18-159.35-62.61-48.5-62.61-48.5L675.31,920.83H648.53l-51.65,40.31L535.05,1008,472.8,1043l-78.58,32.12-63.76,18.26-19.53,11.7Z" transform="translate(-78.18 -250.85)"/>
        <path class="cls-3" d="M2153,1006.67s102.75,171.6,113.69,286.29c9,94.49-6.94,92.89-6.94,92.89s-49.91,29.8-143.49-176.77l-5.54-24.26s82.49,174.69,129.63,187.16-124.09-339.66-124.09-339.66l26.31-38.82Z" transform="translate(-78.18 -250.85)"/>
        <path class="cls-3" d="M2158.57,997.21A18.26,18.26,0,1,1,2140.31,979,18.26,18.26,0,0,1,2158.57,997.21Z" transform="translate(-78.18 -250.85)"/>
        <path class="cls-4" d="M915.34,1069.51l-.08-5.66-138.35,7.05c-9.37-16.29-98.27-153.08-99.76-154.79a13.1,13.1,0,0,0-5.71-3.79v-.06l-.6-.13a15.18,15.18,0,0,0-2.18-.48c-13.93-3.08-78.14-17.48-144.42-35.72-10.21-2.81-20.62-6.19-31.64-9.77-44.34-14.41-90.19-29.3-128.5-9-25.53,13.54-43.95,41-56.33,83.81-30.35,105.1-12.45,163.43-6.13,179-15.8,61.48-91.85,359.53-123.42,456l-.26.81c-23.3,71.18-58.51,178.74-7.24,267.14,36,62.12,110.36,105.18,220.93,128l.55.11H718.88l206.87-180.46Zm-600.79,23.35c-.58-45.34-2.13-165.8,58.77-197,54.55-28,91.85-14.52,135,1,36.21,13,74.26,33.8,130,25.21-14,9-33.21,23.84-58.6,43.75-16.34,12.82-33.23,26.07-48.34,37-45.14,32.65-154.4,68.69-157.81,69.81-11.36,3.38-42.45,13.32-59,25.13C314.59,1096.33,314.57,1094.7,314.55,1092.86Zm-1.5,32.63c5.79,2.79,14.25,4.16,25.69,4.16q6.76,0,14.95-.64a342,342,0,0,0,35.42-4.77l.33-.08,4.78-1.22c-3.25,13-10.93,43.52-21.09,83.75-36.34-24.29-59.18-44.89-67.43-52.76C308.86,1141.74,311.36,1132.06,313.05,1125.49Zm218.37,47.42c13.41,6.56,28.55,13.5,45.26,20.47,1.14,32.92,2.63,69.22,4.56,107.15a746.05,746.05,0,0,1-88.61-30.25c3.49-41.32,6.68-80.44,9.25-112.55C511,1162.66,520.87,1167.76,531.42,1172.91Zm-28.86-23.68c2.43-30.4,4.24-53.53,5.11-64.82A647.94,647.94,0,0,0,567,1055.8c1.72,1.57,3.82,3.4,6.33,5.48.41,26,1.28,69.85,3.08,123.51-15.17-6.4-29-12.76-41.34-18.78C523.34,1160.29,512.5,1154.65,502.56,1149.23Zm-7.49-4.14c-26.87-15-46.18-27.9-56.41-35.07,20.35-6.54,40.89-14,60.92-22.23C498.67,1099.54,497.1,1119.61,495.07,1145.09Zm-.68,8.54c-2.57,32.1-5.79,71.6-9.31,113.47-19.58-8.36-37.26-16.91-52.87-25.18-19.53-10.35-36.93-20.76-52.19-30.68,11.86-46.92,20.45-81.19,22.81-90.59,8.74-2.38,17.6-4.94,26.51-7.7C437.91,1119.16,460.53,1134.89,494.39,1153.63ZM378,1219.22c14.82,9.56,31.59,19.53,50.25,29.43q27.38,14.5,56.13,26.71c-4.12,48.8-8.63,100.32-13,146.71-20.44-11.4-39.08-22.83-55.7-33.73-25.94-17-48.74-33.87-68.12-49.26C358.57,1296,369.1,1254.42,378,1219.22Zm33.19,175.5q29.21,19.18,59.37,35.9c-5.47,57.47-10.68,106.07-14.6,130.25-21.11-13.91-40.6-27.63-58.12-40.59-30.72-22.72-57.8-44.75-80.41-64.18,9.16-35.29,18.73-72.47,28-108.76C364.34,1362.25,386.33,1378.4,411.19,1394.72Zm-18.12,131.73c18.46,13.65,39.08,28.15,61.49,42.82-6.21,37.78-12.83,97.46-7.86,162.26-34.12-21.43-64.67-43.21-90.81-63.34-29.59-22.79-55.69-45-77.66-64.94.15-.54.29-1.09.44-1.62,9.4-33.6,22.44-82.8,36.57-137.13C337.36,1483.4,363.55,1504.61,393.07,1526.45ZM351,1674.26c31.81,24.5,64.09,46.94,96.56,67.14,5.09,53.7,18.43,110.27,46.73,160.38-99.18-35.16-170.37-75.58-218.41-109.08q-7.62-5.31-14.68-10.53c-7.84-57,.76-117.19,14.76-170.48C297.4,1631,322.6,1652.38,351,1674.26Zm110.72-100.34c45.25,29.2,97.54,58.82,154.42,83.74,9.08,49.66,19.41,86.74,31,111,13.11,27.44,25.09,50.46,35.93,69.77-85.1-23.21-162.87-61.56-228.12-101.74C449.32,1672.37,455.55,1612.54,461.71,1573.92Zm1.38-8.38.06-.35c3.92-22.7,9.24-71.8,14.85-130.5a870.22,870.22,0,0,0,100.66,46.66c5.17,2,10.34,3.91,15.52,5.8q8.7,94.63,20.3,161.26C558.68,1623.59,507.42,1594.31,463.09,1565.54Zm15.72-139.36c4.41-46.53,9-98.41,13.13-147.67a747.17,747.17,0,0,0,89.73,30.4c.66,12.5,1.36,25.17,2.12,37.93q4.22,71.22,9.6,131.52A864.47,864.47,0,0,1,478.81,1426.18Zm105.86-229.52a828.52,828.52,0,0,0,151.16,45.23c9,24.5,18.11,50.18,27.09,76.7,1,3,2,6,3,9a782,782,0,0,1-176.69-24.92C587.34,1265.17,585.84,1229.28,584.67,1196.66Zm-.3-8.55c-1.76-51.12-2.68-93.55-3.14-120.6a326.18,326.18,0,0,0,36,23.3c17.5,9.88,41.43,21.54,72.47,33,13.33,32,28,69.07,43,109.54A821.58,821.58,0,0,1,584.37,1188.11Zm-3.31-130.72c0-3.61-.1-6.79-.14-9.56,21.13-12.53,39.92-25.92,55.05-39.87,8.68,14.11,26.94,52.18,49.55,105.88C631.18,1093,598.06,1070.86,581.06,1057.39Zm-4.18-21.93S478.39,1090.8,386.55,1112c-29.22,5.72-64.72,7.42-70.15.87.75-1.39,5.24-7.39,30-17.45,15.4-6.26,30.64-10.82,30.79-10.87l.16,0C382,1083,491.48,1047.1,538.69,1013c15.31-11.06,32.3-24.39,48.73-37.28,27.43-21.5,70.34-58,80.35-51.33.07,0,5,6.42-12.28,39.79C643.5,987.29,615.37,1012.13,576.88,1035.46ZM316.77,943.59c11.64-40.29,28.55-65.85,51.72-78.14,34.81-18.47,78.74-4.19,121.23,9.61,11.12,3.61,21.63,7,32,9.89,44.5,12.25,88,22.76,116.2,29.31-54,8.68-89.78-11.33-127-24.71-43-15.48-83.67-30.12-141.23-.62-65.21,33.4-63.62,157.37-63,204,.06,4.67.11,9.14.05,12l-.12.16C300.17,1081,292.55,1027.46,316.77,943.59Zm-13.3,218.94c10.61,9.8,33.44,29.53,67.63,52.18-8.8,34.81-19.26,76.06-30.23,119-36.15-29.28-59.12-52.5-66.49-60.21C285.88,1230.07,296.09,1190.94,303.47,1162.53Zm-31.42,119.78c10.17,10.38,33,32.64,66.7,59.71-9.22,36.08-18.75,73.13-27.9,108.39-36.71-31.94-60.4-55.93-67-62.8C253.45,1352.15,263.1,1316.09,272.05,1282.31Zm-30.62,114c9.84,10,33.25,33.09,67.23,62.49-14.19,54.59-27.34,104.27-36.89,138.53-35.22-32.35-58.81-57.68-67.86-67.69C215.08,1491.82,228.19,1444.88,241.43,1396.34Zm-53.09,183.88.27-.81c3.75-11.47,8-25.34,12.71-41,11.21,12.21,34.7,36.89,68.13,67.4-16.9,62.73-22.5,119.75-16.74,170-56.61-43.17-84.61-79.28-92.62-90.51C166.59,1646.68,178.55,1610.15,188.34,1580.22Zm-8.16,258.26c-25.77-44.42-28.38-94.59-21.77-142.26,12.58,16.43,42.08,50.57,95.73,90.44.76,5,1.62,10,2.61,14.88,13.28,65.32,47.73,116.19,102.5,151.55C270.91,1929.64,210.74,1891.17,180.18,1838.48Zm213.14,122.64c-3.43-.71-6.81-1.44-10.17-2.19l.35-.65c-74.55-39.52-109-99.79-120.6-165.2q3.93,2.82,8,5.69c50.59,35.34,109.34,66.65,174.61,93.06q26.76,10.82,55,20.53a280.09,280.09,0,0,0,38.14,48.76Zm156.46,0a269.79,269.79,0,0,1-37.38-44.74,1375.65,1375.65,0,0,0,172.72,44.74Zm167.36-2c-81.13-14-151.29-32.68-211.5-53.33-29.77-49.12-44.08-105.41-49.76-159.23q34.25,20.88,68.66,38.37c54.91,27.87,109.84,49,163.94,63,30.26,52.33,50.79,74.43,60.73,83.16Zm38-33.18c-8.23-7.11-27.32-26.79-56.06-75.29q21.27,5.18,42.33,8.91l1.36-7.68c-16.63-2.93-33-6.54-49.19-10.67-11.72-20.42-24.9-45.38-39.47-75.9-11.44-23.94-21.1-60.13-29.26-103.82,45.93,19.56,94.7,36,145.1,46.47l1.59-7.63c-51.59-10.78-101.5-27.75-148.36-48-8.5-47.78-15.31-103.76-20.76-162.16,64.17,22.54,129.59,36.45,194.83,41.35l.59-7.78c-71.7-5.39-137.67-21.39-196.23-42.28-5.12-56.54-9-115.05-11.94-170.36a789,789,0,0,0,178.88,24.45c46,138.45,98.53,330.22,101.33,490.31Zm122.4-106.78c-4.08-158.69-55.39-346.58-100.72-483.46,3.69,0,7.38.08,11.08.08q9.46,0,19-.21l-.18-7.8q-16.51.38-32.49.08-2-5.92-3.94-11.71c-8.44-24.93-17-49.2-25.53-72.5,19.85,3.64,40.43,6.63,61.66,8.73l.77-7.77c-22.63-2.23-44.52-5.49-65.56-9.48-14.51-39.34-28.78-75.74-41.91-107.69,31.34,10.93,69.35,21.43,114.71,29.69l1.4-7.67c-47.78-8.71-87.49-19.92-120.13-31.75-24.16-58.14-44-100.07-53.42-115.78,10.36-10.42,18.64-21.12,24.27-32s9.53-20,11.85-27.67c43.14,53.21,90.17,136.13,90.67,137l1.66,2.94,133.76-6.82,10.25,711.34Z" transform="translate(-78.18 -250.85)"/>
        <path class="cls-5" d="M803.06,698.15s-61.8-90.78-102.33-128.48S581.89,503.83,564,527.29,598.73,577.41,618.3,586,719.11,636.29,809.61,764.9,803.06,698.15,803.06,698.15Z" transform="translate(-78.18 -250.85)"/>
        <path class="cls-6" d="M848.88,799.87c.31-2.77-132.32-171.31-346.94-121.73a31.09,31.09,0,0,0-18,11.39c-6.19,8.27-7.37,19.28,27.49,21.22,57,3.17,189.13-8.11,302.81,90S848.88,799.87,848.88,799.87Z" transform="translate(-78.18 -250.85)"/>
        <path class="cls-7" d="M848.35,815.12c-3.18.87-85.86-78.43-223.34-62.52-111.32,12.87-62,37.83-38.1,35.57s140.87-11.46,231.65,26.34S848.35,815.12,848.35,815.12Z" transform="translate(-78.18 -250.85)"/>
        <path class="cls-4" d="M961.73,790.84s12.47-304.31,271.73-406.9,431.16,147,461.66,406.9l-76.25,32.58-12.48-32.58s5.55-400-258.21-393c-260.77,6.86-311.59,399.28-311.59,399.28S995,902.45,992.23,892.74,961.73,790.84,961.73,790.84Z" transform="translate(-78.18 -250.85)"/>
        <path class="cls-8" d="M2123.46,983.8H1849.61a16.85,16.85,0,0,0-16.86,16.85h0a16.86,16.86,0,0,0,16.86,16.86h273.85a16.85,16.85,0,0,0,16.85-16.86h0A16.84,16.84,0,0,0,2123.46,983.8Z" transform="translate(-78.18 -250.85)"/>
        <path class="cls-9" d="M962.82,428s-70.76-137-183.44-90.79c-111.22,49.66-60.82,195.43-60.82,195.43s175.59,452,234.46,547.26c56.41,91.26,154.24,46.79,162.29,42.92.36-.17.72-.32,1.09-.46,8.35-3.16,108-43.3,80.88-147.11C1168.94,866.91,962.82,428,962.82,428Z" transform="translate(-78.18 -250.85)"/>
        <path class="cls-10" d="M1290.19,695.33s22.88,14.14,23.53,13.44,6.59-2.67,6.53-3.53S1323.4,690,1323.4,690l-17.59-16.82-15.62,22.18Z" transform="translate(-78.18 -250.85)"/>
        <path class="cls-10" d="M1469.92,635.07s-27.44,8.69-31.69,13-6.06,14.09-6.06,14.09l6.14,7.2Z" transform="translate(-78.18 -250.85)"/>
        <path class="cls-11" d="M864.55,380.71c-62.37,53.54-79.86,135.66-84.5,186.11-1.58,17.12,19.4,26.55,31.16,14,34.68-36.94,84.51-104.51,83.2-186.7A18.09,18.09,0,0,0,864.55,380.71Z" transform="translate(-78.18 -250.85)"/>
        <path class="cls-12" d="M1321.69,697.8c-4.31.55-13.54-.1-23.19-14.27l7.31-10.38L1323.4,690S1322.52,693.92,1321.69,697.8Z" transform="translate(-78.18 -250.85)"/>
        <g>
          <path class="cls-13" d="M704.28,1756.49s266.28-188.69,188.05-267c0,0-7.75-32.29-107.69,39.69,0,0-46.44-.48-32.33-49.74s107.79-99.61,78.35-156.5-77.74,11-113.45,14.87,44.63-184.32,8.94-219.59-73.27,37-100.22,37.72-21-248.38-149.64-245.48-26.64,131.64,10.48,202.46-66.24,3.17-100.77,65.81,185.9,77.76,145.51,136.37-85.73,1.93-113,46.69c-44.11,72.36,181.79,65.27,158.92,117.64-18.24,41.76-81.24-11.23-100.29,19.36S543.28,1691.31,704.28,1756.49Z" transform="translate(-78.18 -250.85)"/>
          <path class="cls-14" d="M897.42,1495.39c-.63-.86-1.31-1.7-2-2.53-6.94,9.12-15,18.91-24.19,28.83-33.73,36.44-89.83,82-165.9,93.22q-6.52-62.16-23-133.12c50.5-92,103.43-135,139-154.88,3.08-1.72,6.07-3.29,9-4.74-.5-1-1-1.87-1.53-2.75-2.84,1.42-5.75,2.95-8.75,4.62-35.54,19.82-88.29,62.46-138.72,153.19,0-.2-.09-.4-.14-.6-11.48-48.48-26.42-99.93-44.66-153.88a747.59,747.59,0,0,1,26.45-97c12.33-35.45,31.17-79.53,56.86-112.68a29.35,29.35,0,0,0-2.73-1.57c-25.82,33.47-44.72,77.66-57.1,113.22a768.37,768.37,0,0,0-25.5,92.14q-21-61.62-47.72-127.33c-49.55-122-102-225.08-129.79-277.41-1.11.17-2.19.37-3.25.57,27.65,52,80.34,155.43,130.13,278,8.38,20.61,16.88,42.32,25.31,64.86a756.12,756.12,0,0,0-84.56-39c-35.88-14-85.31-30.22-138.28-38.24l-.26.44c-.46.84-.87,1.67-1.24,2.5,53.06,7.92,102.65,24.15,138.58,38.2,48.73,19,82.85,38,87.44,40.63,18.58,50,36.7,104,52.09,159.28-67.37-32.71-187.66-46.61-247.42-51.71-.45,1-.84,2-1.17,3,60,5.08,183,19.17,249.71,52.73,21.69,78.69,37.72,159.78,41.53,235.42-62.14-10.47-123.12-60.39-163.52-100.68a752.41,752.41,0,0,1-58.44-65.89,20.26,20.26,0,0,0-2.51,1.88,755,755,0,0,0,58.7,66.19c40.88,40.78,102.73,91.35,165.93,101.72,1.49,32.51.7,64-2.91,93.82l1.51.63,1.72-1.23c4.86-41,4.74-86.86-.36-137.22q7.44-1.08,14.81-2.62a261,261,0,0,0,82.62-33.15c25-15.24,48.69-34.93,70.52-58.52C882.61,1514,890.55,1504.38,897.42,1495.39Z" transform="translate(-78.18 -250.85)"/>
        </g>
        <path class="cls-15" d="M285.25,1257c57.1-30.57,78.35,59.76,83,84.28a452.92,452.92,0,0,1,65.24,14.34c-17.87-25.66-48.92-34-54.7-53.17-6.47-21.47,2.32-47.61,40.5-26.06,30.26,17.08,25.16,63.17,21.74,81.58a384.55,384.55,0,0,1,77.71,34.41c-15.88-32.27-50.59-45.62-54.56-68-4.34-24.51,8.74-52.18,48-23.46,32.48,23.74,18.44,77.28,12.59,95.14,16.49,10.24,25.38,17.9,26.32,18.73a656.34,656.34,0,0,1,49.48,46.91c-13.27-28.7-40.34-45.57-41.07-66.29-.87-24.87,16-50.44,50.84-16.5,27.6,26.84,9.18,74.76.28,93.62A607,607,0,0,1,684.57,1573c-1.85-29.19-26.11-69.47-18.24-96.66,5.17-17.83,17.84-22.14,27.63-22.6a27.6,27.6,0,0,1,21.91,9.27c31.64,35.24-13.3,97.88-27.72,116.15a575.68,575.68,0,0,1,49,111.62c-.82-15.1-2.18-37.88-3.42-49.69-2-18.61,5.21-44.71,19.73-55.3.61-.44,1.21-.85,1.82-1.23,11.53-7.3,26.65-4.36,35.78,5.79,35.73,39.67-34.55,100.29-50.12,112.91.07.22.14.46.2.69,24,83.24,20.42,142,20.26,144.42l-9.09-.61c0-.57,3.44-56.47-18-134.57-85.33-9.27-109-58.08-97.42-76.27,11.94-18.79,45.12-25.7,60.3,9.55,8.81,20.44,22.82,39.87,33,52.59a564.15,564.15,0,0,0-49.28-114.13c-111.43,26-121.2-44.31-98.49-60.75,23-16.64,41.49-6.5,59.67,20.12a136.2,136.2,0,0,0,35.7,35.19,598.34,598.34,0,0,0-72.2-98.85c-13.51,15.26-50.87,51.9-86.77,36.8-44.85-18.87-27.88-44.35-4.64-53.25,21.37-8.19,50.92,15,87,11.65a643.58,643.58,0,0,0-56.13-54.14c-.33-.29-18.16-15.68-52-32.55-11.62,17-43.92,57.61-81.25,47.22-46.88-13-33.26-40.46-11.33-52.23,19.56-10.51,50.51,7.32,84.7,1.18-29-13.64-68.28-27.54-117-34.77-12.19,17.55-44,56.39-80.55,46.2-46.88-13-33.27-40.46-11.34-52.23,19.84-10.65,51.39,7.85,86.14.93l.13-1c-12.08-5.17-37.76-16.07-50.32-20.65-16.75-6.11-35.56-23.35-37.68-40.48A29.09,29.09,0,0,1,285.25,1257Z" transform="translate(-78.18 -250.85)"/>
        <path class="cls-16" d="M766,1828s-45.44-197.85-271.63-310.21l9.3,74-35.19-82.46s-134.12-59.75-238.7-76.4c0,0,133.56,202,176.22,236.74l73.64,15.93-60.26,28.49s71.83,114.18,184.6,160.76S766,1828,766,1828Z" transform="translate(-78.18 -250.85)"/>
        <g>
          <path class="cls-17" d="M215.59,1757.87c29.55,63.39,68.56,109.06,112.24,141.51,25.37-15.45,55.93-33.25,55.93-33.25L359,1919.9c178,103.71,410.17,21.63,410.17,21.63-62.63-140.47-141.26-210.26-219.41-240.11-13.71,16.26-33.83,40.7-33.83,40.7l8.26-49.11c-39.22-10.82-77.87-12.36-113.84-8.54-4.14,25.55-9.5,54.43-9.5,54.43l-24.91-49.08C283.23,1708.69,215.59,1757.87,215.59,1757.87Z" transform="translate(-78.18 -250.85)"/>
          <path class="cls-18" d="M549.72,1701.42c-13.71,16.26-33.83,40.7-33.83,40.7l8.26-49.11c-39.22-10.82-77.87-12.36-113.84-8.54-4.14,25.55-9.5,54.43-9.5,54.43l-24.91-49.08c-92.67,18.87-160.31,68-160.31,68,197.69,140.19,553.54,183.66,553.54,183.66C706.5,1801.06,627.87,1731.27,549.72,1701.42Z" transform="translate(-78.18 -250.85)"/>
        </g>
        <path class="cls-19" d="M938.92,550.42c-62.37,53.54-79.86,135.66-84.5,186.11-1.58,17.12,19.4,26.55,31.16,14,34.68-36.94,84.51-104.51,83.2-186.7A18.09,18.09,0,0,0,938.92,550.42Z" transform="translate(-78.18 -250.85)"/>
        <path class="cls-20" d="M1027.11,737.14c-62.37,53.54-79.87,135.66-84.51,186.11-1.57,17.12,19.4,26.55,31.17,14,34.67-36.94,84.51-104.51,83.2-186.7A18.09,18.09,0,0,0,1027.11,737.14Z" transform="translate(-78.18 -250.85)"/>
        <g>
          <path class="cls-21" d="M1653,727.63c-6.83,5.68-13.11,17.48-19.75,30-9.89,18.61-21.1,39.7-41.34,57-22.39,19.18-48.67,27.16-69.79,33.56-5.15,1.57-10.12,3.08-14.76,4.66l-114.66-33.1a190.86,190.86,0,0,1,69.75-50.27,339.31,339.31,0,0,1,32.41-11.11c14.68-4.45,28.54-8.66,36-15,6.76-5.8,13-17.47,19.53-29.83,9.63-18.1,21.6-40.63,42.65-58.12,28.43-23.62,62.73-29.59,90.29-34.39,19.27-3.36,37.48-6.53,46.48-14.28,4.85-4.18,10-12.28,15.53-20.86,3.46-5.41,7-11,11.22-16.8a203.15,203.15,0,0,1,74.31-62.66L1842.11,545l3.15-45a200.4,200.4,0,0,1,60.51-14.21c3.34-.24,6.45-.39,9.46-.53,4.83-.23,49.63-5.81,63.55,5.42h0a46.52,46.52,0,0,1,10.33,60.68l-42-8.38,27.05,23.13c-1.15.69-2.32,1.35-3.55,2a97.66,97.66,0,0,1-10.94,4.57c-15,5.21-28.85,5.86-40,6.38-2.52.12-4.9.24-7,.39-31.07,2.27-61.69,19.37-79.92,44.64-2.66,3.68-5.4,8-8.29,12.48a277.19,277.19,0,0,1-16,23.06l-49-4.47,36.83,18.06c-1.66,1.61-3.37,3.19-5.17,4.74-28.62,24.64-63.55,30.73-91.62,35.62C1680.3,716.85,1662.22,720,1653,727.63Z" transform="translate(-78.18 -250.85)"/>
          <path class="cls-22" d="M1840.29,559.38c-124,97.94-88,90.81-199,130.93-84.48,30.54-89,130-159.9,155.07l26,7.5c4.64-1.58,9.61-3.09,14.76-4.66,21.12-6.4,47.4-14.38,69.79-33.56,20.24-17.35,31.45-38.44,41.34-57,6.64-12.5,12.92-24.3,19.75-30,9.19-7.63,27.27-10.78,46.41-14.12,28.07-4.89,63-11,91.62-35.62,1.8-1.55,3.51-3.13,5.17-4.74l-36.83-18.06,49,4.47a277.19,277.19,0,0,0,16-23.06c2.89-4.52,5.63-8.8,8.29-12.48,18.23-25.27,48.85-42.37,79.92-44.64,2.13-.15,4.51-.27,7-.39,11.15-.52,25-1.17,40-6.38a95.85,95.85,0,0,0,10.94-4.58c1.23-.6,2.4-1.26,3.55-1.95L1947.08,543l42,8.38a46.83,46.83,0,0,0,3.13-43.06C1954.15,502.58,1902.16,510.5,1840.29,559.38Z" transform="translate(-78.18 -250.85)"/>
        </g>
        <g>
          <path class="cls-23" d="M1764,473.68c-3.38,15-7.5,33.31-16.33,51.49-27.75,6.55-81.94,19.36-75.81,18.07,5.75-1.22,42.41.73,63.85,2-21.76,30.4-52.71,48.17-78.17,62.78-19.68,11.29-38.26,22-45.31,34-5.23,9-7.41,24.4-9.72,40.77-3.44,24.37-7.34,52-22.64,79.1-16.93,30-42.59,49.21-63.21,64.66-8.4,6.29-16.33,12.24-22.72,18.11-1.18,1.08-2.32,2.2-3.45,3.33l-112.12-32.36a220.52,220.52,0,0,1,41.41-51.69c10.43-9.58,21.44-17.83,31.15-25.11,14.34-10.74,27.87-20.88,33.49-30.82,5.11-9.06,7.27-24.35,9.55-40.54,3.34-23.7,7.51-53.2,23.64-80.79,21.79-37.25,57-57.48,85.38-73.74,19.82-11.37,38.54-22.11,45.33-34.2,3.66-6.52,6.12-17.48,8.73-29.09,1.64-7.32,3.34-14.88,5.62-22.91,17.6-62,61.4-115.35,118.43-145.07l18,15-4.85-21.34c3.2-1.41,6.24-2.69,9.18-3.91,5.21-2.18,52.15-26.17,71.91-19.39h0c37.15,12.75,49.06,59.88,21.85,88.21a112,112,0,0,1-10.19,9.38c-14.36,11.69-29.33,17.93-41.35,22.95-2.72,1.14-5.29,2.21-7.56,3.23-33.2,14.88-60,45.86-69.93,80.85C1766.63,461.77,1765.33,467.56,1764,473.68Z" transform="translate(-78.18 -250.85)"/>
          <path class="cls-22" d="M1739,388.32c-80.8,121.75-39.54,125.51-110,183.44s-84.48,47.37-94.07,132.68c-4.48,39.85-49.38,88.33-95.94,128.67L1490.45,848c1.13-1.13,2.27-2.25,3.45-3.33,6.39-5.87,14.32-11.82,22.72-18.11,20.62-15.45,46.28-34.68,63.21-64.66,15.3-27.11,19.2-54.73,22.64-79.1,2.31-16.37,4.49-31.82,9.72-40.77,7-12,25.63-22.71,45.31-34,25.46-14.61,56.41-32.38,78.17-62.78-21.44-1.27-58.1-3.22-63.85-2-6.13,1.29,48.06-11.52,75.81-18.07,8.83-18.18,12.95-36.46,16.33-51.49,1.37-6.12,2.67-11.91,4.12-17,9.93-35,36.73-66,69.93-80.85,2.27-1,4.84-2.09,7.56-3.23,12-5,27-11.26,41.35-22.95a112,112,0,0,0,10.19-9.38,53.15,53.15,0,0,0,11.5-55.52C1856.48,293.38,1785.38,318.4,1739,388.32Z" transform="translate(-78.18 -250.85)"/>
        </g>
        <g>
          <path class="cls-24" d="M1667.1,807.63c-6,3.21-12.58,11.12-19.52,19.49a228.54,228.54,0,0,1-18.92,20.9L1505.2,812.38c4-1.12,8-2.11,12-2.89a258.48,258.48,0,0,1,26.12-3.31c11.73-1.07,22.82-2.08,29.4-5.71,6-3.31,12.47-11.13,19.34-19.41,10.06-12.12,22.57-27.21,41.14-37.1,25.07-13.34,51.81-12.51,73.29-11.83,15,.47,29.23.92,37.21-3.51,4.3-2.39,9.46-7.68,14.93-13.28,3.45-3.53,7-7.19,11.06-10.9A157.06,157.06,0,0,1,1895,665c2.55.34,4.91.71,7.19,1.07,3.68.58,38.26,3.35,47,14h0c16.41,20,6.81,50.49-18.22,57a73.81,73.81,0,0,1-9,1.74c-12.08,1.59-22.62-.08-31.09-1.42-1.91-.3-3.72-.59-5.35-.8a85.27,85.27,0,0,0-67.09,21.15c-2.57,2.35-5.3,5.15-8.18,8.1l-2.81,2.87-30.8-7.78,18.19,19.62a101.65,101.65,0,0,1-16.11,11.25c-25.37,14.09-52.61,13.24-74.49,12.55C1689.3,803.76,1675.21,803.32,1667.1,807.63Z" transform="translate(-78.18 -250.85)"/>
          <path class="cls-22" d="M1819.63,716.6C1729.11,759,1717,767.61,1672,774.73c-31.86,5-69.19,40.18-88.29,60.31l45,13a228.54,228.54,0,0,0,18.92-20.9c6.94-8.37,13.5-16.28,19.52-19.49,8.11-4.31,22.2-3.87,37.13-3.4,21.88.69,49.12,1.54,74.49-12.55a101.65,101.65,0,0,0,16.11-11.25l-18.19-19.62,30.8,7.78,2.81-2.87c2.88-3,5.61-5.75,8.18-8.1a85.27,85.27,0,0,1,67.09-21.15c1.63.21,3.44.5,5.35.8,8.47,1.34,19,3,31.09,1.42a73.81,73.81,0,0,0,9-1.74,35,35,0,0,0,25.46-26.47C1915.63,700.39,1864.2,695.73,1819.63,716.6Z" transform="translate(-78.18 -250.85)"/>
        </g>
        <path class="cls-25" d="M1432.58,650.35S1370,709.49,1345,703c0,0-6.75-.51-19.83-4.65,0,0-13.27,10.7-33.84-9.92l-13.93-3s-17.59-4.13-39.61,20.7q-7.47,9.75-13.41,18.18c-.41.6-.82,1.18-1.22,1.73-47,67.14-24.73,72.47-24.5,72.24l121.57,16.54,4.28-17.66,5.66-28.86s79.78-25.2,122.13-95.65Z" transform="translate(-78.18 -250.85)"/>
        <path class="cls-3" d="M1320.2,814.81c1.13-3.69,2.1-7.43,3.09-11.17s1.82-7.5,2.67-11.27,1.6-7.56,2.31-11.36,1.37-7.61,2-11.43a225.85,225.85,0,0,0,2.27-23.09c.22-7.71.12-15.56-1.78-23.07a69.2,69.2,0,0,1,1.09,11.49c.1,3.85,0,7.69-.24,11.54s-.58,7.67-1,11.5-1,7.64-1.53,11.45c-1.09,7.63-2.49,15.21-4,22.78-.73,3.78-1.52,7.56-2.34,11.33S1321.06,811.05,1320.2,814.81Z" transform="translate(-78.18 -250.85)"/>
        <g>
          <path class="cls-26" d="M1795,615.47s-54.76-4.86-85.26,26.34S1621,759,1604.32,849.07s-226.44-46-226.44-46,79.49-249.55,241.23-281.9c0,0,42.75-9,76.71,6.24s56.85,33.27,93.58,22.18C1789.4,549.61,1783.63,587.74,1795,615.47Z" transform="translate(-78.18 -250.85)"/>
          <path class="cls-3" d="M1795,615.47s41.82-1.39,61.69-25c0,0,7.4-62.85-2.77-64.7s-17.5,3.24-26.77,6.47-36.66,7-37.7,17.33C1789.4,549.61,1784.55,583.58,1795,615.47Z" transform="translate(-78.18 -250.85)"/>
          <path class="cls-27" d="M1675.45,566.07c44,4.8,86.15,7.79,112.61,12.95a174.22,174.22,0,0,1,1.34-29.41c-36.73,11.09-59.61-6.93-93.58-22.18s-76.71-6.24-76.71-6.24c-161.74,32.35-241.23,281.9-241.23,281.9s27.24,17.67,62.86,36.06C1503,612.57,1617.71,559.77,1675.45,566.07Z" transform="translate(-78.18 -250.85)"/>
          <path class="cls-28" d="M1795,615.47a91,91,0,0,1-5.38-20.27c-15-2.59-58.67-7.05-95,19.76-44.27,32.67-118.84,63.29-187.46,253.47,46.79,16.28,90,19.56,97.2-19.36C1621,759,1679.19,673,1709.69,641.81S1795,615.47,1795,615.47Z" transform="translate(-78.18 -250.85)"/>
        </g>
        <rect class="cls-29" x="1745.58" y="759.78" width="325.55" height="922.25" rx="9.83"/>
        <path class="cls-30" d="M2096.88,1384.87h0a25.55,25.55,0,0,1-25.55-25.55V1067.11a25.55,25.55,0,0,1,25.55-25.55h0a25.54,25.54,0,0,1,25.54,25.55v292.21A25.54,25.54,0,0,1,2096.88,1384.87Z" transform="translate(-78.18 -250.85)"/>
        <path class="cls-31" d="M1907.83,1010.63h-71.64a12.42,12.42,0,0,0-12.43,12.43v897.39a12.42,12.42,0,0,0,12.43,12.43h300.69a12.43,12.43,0,0,0,12.43-12.43v-446.9C1974.61,1480.16,1922.22,1216,1907.83,1010.63Z" transform="translate(-78.18 -250.85)"/>
        <g>
          <path class="cls-32" d="M2219.77,1227.86c-43.53,17.36-75.56,41.73-98.93,69.72,9.38,17.56,20.13,38.68,20.13,38.68l-35-18.63c-76.13,115.17-30,273.57-30,273.57,96.35-36.57,146-86.52,169-137.67-10.36-9.79-26-24.18-26-24.18l32.54,7.39c8.73-25.82,11.23-51.62,10-75.83-16.93-3.74-36.05-8.42-36.05-8.42l33.78-14.8C2250.11,1275,2219.77,1227.86,2219.77,1227.86Z" transform="translate(-78.18 -250.85)"/>
          <path class="cls-33" d="M2244.86,1453.53c-10.36-9.79-26-24.18-26-24.18l32.54,7.39c8.73-25.82,11.23-51.62,10-75.83-16.93-3.74-36.05-8.42-36.05-8.42l33.78-14.8c-9.1-62.71-39.44-109.83-39.44-109.83C2118.48,1354.8,2075.9,1591.2,2075.9,1591.2,2172.25,1554.63,2221.92,1504.68,2244.86,1453.53Z" transform="translate(-78.18 -250.85)"/>
        </g>
        <g>
          <path class="cls-34" d="M2593.46,1328.28c-97.58-14.79-181.73-4.6-254,21.38-1.65,41.89-4.59,91.71-4.59,91.71L2291,1370.22c-261,128.24-345.81,465.17-345.81,465.17,214,36.11,357.46-1.78,453.59-70.32-8.41-28.82-21.41-71.55-21.41-71.55l51.26,48.07c43.36-37.64,75.36-81.86,98.95-127.12-26.78-24.82-56.54-53.69-56.54-53.69l77.15,9.06C2598.43,1446.2,2593.46,1328.28,2593.46,1328.28Z" transform="translate(-78.18 -250.85)"/>
          <path class="cls-35" d="M2398.82,1765.07c-8.41-28.82-21.41-71.55-21.41-71.55l51.26,48.07c43.36-37.64,75.36-81.86,98.95-127.12-26.78-24.82-56.54-53.69-56.54-53.69l77.15,9.06c50.2-123.64,45.23-241.56,45.23-241.56-319.18,122.84-648.23,507.11-648.23,507.11C2159.25,1871.5,2302.69,1833.61,2398.82,1765.07Z" transform="translate(-78.18 -250.85)"/>
        </g>
        <path class="cls-36" d="M2657,1537.14c-33.38-43.3-81,18.87-93.08,36.14a381.62,381.62,0,0,0-55.18-11.55c22.64-13.57,49.44-9.25,60.52-22,12.42-14.28,14.7-37.45-22.15-34.08-29.21,2.66-41.25,39.91-45,55.27a324.8,324.8,0,0,0-71.74-.43c23.41-19.33,54.75-17.6,65.56-33.46,11.83-17.36,11.34-43.2-28.85-34.69-33.22,7-40.95,53.1-42.64,68.88-16.24,2.16-25.73,5-26.74,5.3a549.87,549.87,0,0,0-54.34,19c20.16-17.51,46.84-21.11,54.57-36.81,9.29-18.85,5.18-44.36-33.42-30.31-30.54,11.11-33,54.37-32.63,72a513,513,0,0,0-91.7,51.71c11.53-21.82,44.15-44.43,47.51-68.08,2.2-15.52-6.06-23.23-13.45-27a23.26,23.26,0,0,0-20.07-.44c-36.56,16.17-23.66,80-18.88,99a485.82,485.82,0,0,0-76.4,69c5.86-11.33,14.79-28.41,19.84-37.06,7.95-13.65,11.47-36.23,4-49.4-.32-.55-.64-1.08-1-1.58-6.35-9.61-19-12.58-29.55-7.94-41.25,18.17-8.14,89.17-.52,104.28-.13.15-.27.3-.39.46-47.34,55.75-64.89,102.21-65.61,104.16l7.21,2.68c.17-.46,16.91-44.67,60.48-97.35,68.89,22.41,104-7,101.4-25-2.68-18.6-25.83-35.4-49.72-13.53-13.86,12.68-31.37,22.79-43.65,29a477,477,0,0,1,77.47-70.8c76.78,58.59,108.64,7.87,96.85-12.65-11.94-20.78-29.69-19.37-52.9-5.18a115,115,0,0,1-39.66,14.73,504.13,504.13,0,0,1,89.8-51.09c5.12,16.42,21.19,57.57,54.05,58.37,41.07,1,36.83-24.48,22-39.38-13.62-13.7-44.39-6.09-71.05-21.18a543.56,543.56,0,0,1,62-22.24c.35-.11,19.4-5.78,51.26-7.06,3.07,17.11,13.87,59.56,46.2,64.48,40.61,6.19,39.62-19.63,26.82-36.28-11.43-14.86-41.43-11.85-65.62-28.42a354.43,354.43,0,0,1,102.08,13.74c3.31,17.73,14.32,58.63,46,63.46,40.61,6.19,39.63-19.63,26.82-36.28-11.59-15.07-42.28-11.75-66.63-29.12l.23-.78c11.09.2,34.63.71,45.89,1.53,15,1.1,35.46-5.66,43-18.11A24.59,24.59,0,0,0,2657,1537.14Z" transform="translate(-78.18 -250.85)"/>
        <g>
          <path class="cls-37" d="M2523.54,1778.48C2472,1738.11,2420,1716.56,2369.75,1708c-14.61,23.68-32.56,51.51-32.56,51.51l-2.14-55.42c-192.66-11-351.59,156.12-351.59,156.12,111.94,90.66,207.21,115.54,285.12,107.27,4.54-19.4,11-48.34,11-48.34l14,44.5c37.33-7.62,70.25-22.74,98.65-41.21C2384.76,1899.36,2377,1873,2377,1873l41.64,30.39C2488,1848.27,2523.54,1778.48,2523.54,1778.48Z" transform="translate(-78.18 -250.85)"/>
          <path class="cls-38" d="M2268.58,1967.49c4.54-19.4,11-48.34,11-48.34l14,44.5c37.33-7.62,70.25-22.74,98.65-41.21C2384.76,1899.36,2377,1873,2377,1873l41.64,30.39c69.34-55.09,104.93-124.88,104.93-124.88-224.56-33.08-540.08,81.74-540.08,81.74C2095.4,1950.88,2190.67,1975.76,2268.58,1967.49Z" transform="translate(-78.18 -250.85)"/>
        </g>
        <path class="cls-39" d="M1832,605.83h152.79a10.84,10.84,0,0,1,10.84,10.84V629a3.62,3.62,0,0,1-3.62,3.62H1824.74a3.62,3.62,0,0,1-3.62-3.62V616.67A10.84,10.84,0,0,1,1832,605.83Z"/>
        <rect class="cls-40" x="1745.58" y="632.67" width="325.55" height="109.99" rx="19.55"/>
        <path class="cls-15" d="M1743.12,790.84H791.05A27.85,27.85,0,0,0,763.26,817L693.9,1942.48A27.86,27.86,0,0,0,721.7,1972H1812.47a27.86,27.86,0,0,0,27.8-29.56L1770.91,817A27.85,27.85,0,0,0,1743.12,790.84Z" transform="translate(-78.18 -250.85)"/>
        <g>
          <g>
            <g class="cls-41">
              <path class="cls-42" d="M2042.86,1547.93v5.91a26.34,26.34,0,0,1-7.75,18.72l-11,11h0a49.68,49.68,0,0,0-14.63,35.34V1905.8a60.2,60.2,0,0,0,60.13,60.15h127.68a60.2,60.2,0,0,0,60.12-60.15V1618.94a49.68,49.68,0,0,0-14.63-35.34l-11-11a26.3,26.3,0,0,1-7.75-18.72v-5.91Z" transform="translate(-78.18 -250.85)"/>
            </g>
            <g>
              <path class="cls-43" d="M2243.94,1657.7v234c0,31.09-24.74,56.3-55.25,56.3h-109.8c-30.52,0-55.26-25.21-55.26-56.3V1655.87Z" transform="translate(-78.18 -250.85)"/>
              <path class="cls-44" d="M2041.31,1638.66c23.24-.83,78.41,17,100.39,17.83s45.63-14.93,76.33-12.44c21.71,1.76,25.67,9.33,26.13,13.61a4.51,4.51,0,0,1-2.24,4.37c-4,2.29-14.09,6.47-34.26,5.25-27.38-1.66-70.11,19.91-93.34,22-21.52,1.93-63.09-2.21-85.7-23.29a16.12,16.12,0,0,1-4.31-17.63C2026.23,1643.52,2030.86,1639,2041.31,1638.66Z" transform="translate(-78.18 -250.85)"/>
            </g>
            <path class="cls-42" d="M2002.85,1904.32v-284a57.28,57.28,0,0,1,16.89-40.77l10.92-10.92a17.91,17.91,0,0,0,5.28-12.75v-14h195.7v14a17.91,17.91,0,0,0,5.28,12.75l10.92,10.92a57.28,57.28,0,0,1,16.89,40.77v284A67.8,67.8,0,0,1,2197,1972H2070.57A67.8,67.8,0,0,1,2002.85,1904.32Zm41.27-354.26v5.86a26,26,0,0,1-7.68,18.52l-10.92,10.93h0a49.14,49.14,0,0,0-14.49,35v284a59.61,59.61,0,0,0,59.54,59.55H2197a59.61,59.61,0,0,0,59.55-59.55v-284a49.15,49.15,0,0,0-14.5-35l-10.92-10.93a26,26,0,0,1-7.68-18.52v-5.86Z" transform="translate(-78.18 -250.85)"/>
            <g class="cls-45">
              <path class="cls-42" d="M2221.63,1785.71a7.15,7.15,0,0,0,7.21-7.09c.22-30.84,1-148.69-.09-161s-12.45-19.62-20.47-23.32a7.15,7.15,0,0,0-9.83,4.52v0a7.15,7.15,0,0,0,3.86,8.48c5.53,2.59,11.78,6.8,12.2,11.56.89,10.1.43,105,0,159.62a7.16,7.16,0,0,0,7.1,7.2Z" transform="translate(-78.18 -250.85)"/>
            </g>
            <g>
              <circle class="cls-15" cx="2112.88" cy="1652.45" r="14.53"/>
              <path class="cls-15" d="M2163.21,1860.31a7.57,7.57,0,1,0,7.57-7.57A7.57,7.57,0,0,0,2163.21,1860.31Z" transform="translate(-78.18 -250.85)"/>
              <path class="cls-15" d="M2112.17,1907.53a7.57,7.57,0,1,0,7.57-7.57A7.57,7.57,0,0,0,2112.17,1907.53Z" transform="translate(-78.18 -250.85)"/>
              <path class="cls-15" d="M2187.73,1858a1.94,1.94,0,1,0,1.94-1.93A1.94,1.94,0,0,0,2187.73,1858Z" transform="translate(-78.18 -250.85)"/>
              <path class="cls-15" d="M2078.57,1878.54a2.53,2.53,0,1,0,2.53-2.53A2.53,2.53,0,0,0,2078.57,1878.54Z" transform="translate(-78.18 -250.85)"/>
              <path class="cls-15" d="M2100,1836.1a4.54,4.54,0,1,0,4.54-4.54A4.54,4.54,0,0,0,2100,1836.1Z" transform="translate(-78.18 -250.85)"/>
              <path class="cls-15" d="M2185.12,1806.5a4.54,4.54,0,1,0,4.55-4.54A4.55,4.55,0,0,0,2185.12,1806.5Z" transform="translate(-78.18 -250.85)"/>
              <path class="cls-15" d="M2175.55,1815.6a1.74,1.74,0,1,0,1.74-1.73A1.74,1.74,0,0,0,2175.55,1815.6Z" transform="translate(-78.18 -250.85)"/>
              <path class="cls-15" d="M2193.89,1825.91a4.86,4.86,0,1,0,4.86-4.86A4.86,4.86,0,0,0,2193.89,1825.91Z" transform="translate(-78.18 -250.85)"/>
              <path class="cls-15" d="M2043,1874.33a14.44,14.44,0,1,0,14.44-14.44A14.43,14.43,0,0,0,2043,1874.33Z" transform="translate(-78.18 -250.85)"/>
              <path class="cls-15" d="M2075.59,1849.91a6.32,6.32,0,1,0,6.32-6.32A6.32,6.32,0,0,0,2075.59,1849.91Z" transform="translate(-78.18 -250.85)"/>
              <path class="cls-15" d="M2043,1817.46a10.21,10.21,0,1,0,10.21-10.21A10.21,10.21,0,0,0,2043,1817.46Z" transform="translate(-78.18 -250.85)"/>
            </g>
          </g>
          <g>
            <rect class="cls-46" x="2016.6" y="1514.23" width="236.01" height="35.83" rx="11.8" transform="translate(4191.04 2813.45) rotate(180)"/>
            <path class="cls-47" d="M2028.81,1540H2240.4a12.2,12.2,0,0,0,12.21-12.2v10.09a12.2,12.2,0,0,1-12.21,12.2H2028.81a12.21,12.21,0,0,1-12.21-12.2v-10.09A12.21,12.21,0,0,0,2028.81,1540Z" transform="translate(-78.18 -250.85)"/>
            <g class="cls-48">
              <rect class="cls-49" x="2237.07" y="1514.23" width="3.33" height="35.83" transform="translate(4399.29 2813.45) rotate(180)"/>
              <rect class="cls-49" x="2218.1" y="1514.23" width="3.33" height="35.83" transform="translate(4361.36 2813.45) rotate(180)"/>
              <rect class="cls-49" x="2199.13" y="1514.23" width="3.33" height="35.83" transform="translate(4323.42 2813.45) rotate(180)"/>
              <rect class="cls-49" x="2180.16" y="1514.23" width="3.33" height="35.83" transform="translate(4285.48 2813.45) rotate(180)"/>
              <rect class="cls-49" x="2161.19" y="1514.23" width="3.33" height="35.83" transform="translate(4247.54 2813.45) rotate(180)"/>
              <rect class="cls-49" x="2142.22" y="1514.23" width="3.33" height="35.83" transform="translate(4209.6 2813.45) rotate(180)"/>
              <rect class="cls-49" x="2123.25" y="1514.23" width="3.33" height="35.83" transform="translate(4171.67 2813.45) rotate(180)"/>
              <rect class="cls-49" x="2104.29" y="1514.23" width="3.33" height="35.83" transform="translate(4133.73 2813.45) rotate(180)"/>
              <rect class="cls-49" x="2085.32" y="1514.23" width="3.33" height="35.83" transform="translate(4095.79 2813.45) rotate(180)"/>
              <rect class="cls-50" x="2066.35" y="1514.23" width="3.33" height="35.83" transform="translate(4057.86 2813.45) rotate(180)"/>
              <rect class="cls-50" x="2047.38" y="1514.23" width="3.33" height="35.83" transform="translate(4019.92 2813.45) rotate(180)"/>
              <rect class="cls-50" x="2028.41" y="1514.23" width="3.33" height="35.83" transform="translate(3981.98 2813.45) rotate(180)"/>
            </g>
          </g>
        </g>
        <path class="cls-15" d="M880.63,790.84s12.48-304.31,271.73-406.9,431.17,147,461.67,406.9l-76.25,32.58-12.48-32.58s5.54-400-258.22-393C1006.32,404.66,955.5,797.08,955.5,797.08s-41.6,105.37-44.37,95.66S880.63,790.84,880.63,790.84Z" transform="translate(-78.18 -250.85)"/>
        <path class="cls-51" d="M1831.24,1796c-857.66,19.93-861.89-759.92-842.1-1005.17H791.05A27.85,27.85,0,0,0,763.26,817L693.9,1942.48A27.86,27.86,0,0,0,721.7,1972H1812.47a27.86,27.86,0,0,0,27.8-29.56Z" transform="translate(-78.18 -250.85)"/>
        <g>
          <g>
            <g class="cls-41">
              <path class="cls-42" d="M1784,1410v7.84a34.85,34.85,0,0,1-10.27,24.8l-14.62,14.63a65.8,65.8,0,0,0-19.4,46.84v380.16a79.79,79.79,0,0,0,79.69,79.71h169.2a79.78,79.78,0,0,0,79.68-79.71V1504.1a65.83,65.83,0,0,0-19.39-46.84h0l-14.62-14.63a34.85,34.85,0,0,1-10.27-24.8V1410Z" transform="translate(-78.18 -250.85)"/>
            </g>
            <g>
              <path class="cls-52" d="M1757.54,1555.46v310.16c0,41.21,32.79,74.61,73.23,74.61h145.51c40.44,0,73.22-33.4,73.22-74.61V1553Z" transform="translate(-78.18 -250.85)"/>
              <path class="cls-53" d="M2026.07,1530.23c-30.78-1.1-103.9,22.53-133,23.63s-60.47-19.79-101.15-16.49c-28.78,2.33-34,12.37-34.63,18a6,6,0,0,0,3,5.79c5.22,3,18.66,8.58,45.39,7,36.29-2.2,92.91,26.39,123.7,29.13,28.53,2.55,83.61-2.93,113.57-30.87,6.41-6,9-15.22,5.72-23.36C2046.06,1536.67,2039.93,1530.72,2026.07,1530.23Z" transform="translate(-78.18 -250.85)"/>
            </g>
            <path class="cls-42" d="M1987.3,1972H1819.73A89.85,89.85,0,0,1,1730,1882.3V1506a75.91,75.91,0,0,1,22.38-54l14.48-14.48a23.74,23.74,0,0,0,7-16.89V1402h259.34v18.59a23.7,23.7,0,0,0,7,16.89l14.47,14.48a75.91,75.91,0,0,1,22.38,54V1882.3A89.85,89.85,0,0,1,1987.3,1972Zm-202.62-559.22v7.76a34.49,34.49,0,0,1-10.17,24.55L1760,1459.61a65.12,65.12,0,0,0-19.21,46.37V1882.3a79,79,0,0,0,78.91,78.91H1987.3a79,79,0,0,0,78.91-78.91V1506a65.15,65.15,0,0,0-19.2-46.37h0l-14.48-14.48a34.49,34.49,0,0,1-10.17-24.55v-7.76Z" transform="translate(-78.18 -250.85)"/>
            <g class="cls-45">
              <path class="cls-42" d="M1787.11,1725.11a9.47,9.47,0,0,1-9.55-9.4c-.3-40.87-1.33-197,.11-213.35s16.51-26,27.13-30.9a9.46,9.46,0,0,1,13,6v0a9.49,9.49,0,0,1-5.11,11.24c-7.34,3.43-15.61,9-16.17,15.32-1.18,13.38-.58,139.1,0,211.54a9.47,9.47,0,0,1-9.4,9.54Z" transform="translate(-78.18 -250.85)"/>
            </g>
            <g>
              <circle class="cls-15" cx="1827.62" cy="1880.93" r="19.25" transform="translate(-399.95 3132.82) rotate(-80.78)"/>
              <path class="cls-15" d="M1864.53,1824a10,10,0,1,1-10-10A10,10,0,0,1,1864.53,1824Z" transform="translate(-78.18 -250.85)"/>
              <circle class="cls-15" cx="1922.14" cy="1886.55" r="10.03" transform="translate(-849.19 1660.87) rotate(-45)"/>
              <path class="cls-15" d="M1832,1820.85a2.57,2.57,0,1,1-2.57-2.57A2.57,2.57,0,0,1,1832,1820.85Z" transform="translate(-78.18 -250.85)"/>
              <path class="cls-15" d="M1976.7,1848.12a3.35,3.35,0,1,1-3.35-3.35A3.35,3.35,0,0,1,1976.7,1848.12Z" transform="translate(-78.18 -250.85)"/>
              <path class="cls-15" d="M1948.37,1791.88a6,6,0,1,1-6-6A6,6,0,0,1,1948.37,1791.88Z" transform="translate(-78.18 -250.85)"/>
              <path class="cls-15" d="M1835.49,1752.65a6,6,0,1,1-6-6A6,6,0,0,1,1835.49,1752.65Z" transform="translate(-78.18 -250.85)"/>
              <path class="cls-15" d="M1848.18,1764.72a2.3,2.3,0,1,1-2.3-2.3A2.3,2.3,0,0,1,1848.18,1764.72Z" transform="translate(-78.18 -250.85)"/>
              <path class="cls-15" d="M1823.88,1778.38a6.44,6.44,0,1,1-6.44-6.44A6.44,6.44,0,0,1,1823.88,1778.38Z" transform="translate(-78.18 -250.85)"/>
              <path class="cls-15" d="M2023.91,1842.55a19.14,19.14,0,1,1-19.14-19.14A19.14,19.14,0,0,1,2023.91,1842.55Z" transform="translate(-78.18 -250.85)"/>
              <path class="cls-15" d="M1980.64,1810.18a8.36,8.36,0,1,1-8.36-8.36A8.36,8.36,0,0,1,1980.64,1810.18Z" transform="translate(-78.18 -250.85)"/>
              <path class="cls-15" d="M2023.91,1767.19a13.53,13.53,0,1,1-13.53-13.53A13.53,13.53,0,0,1,2023.91,1767.19Z" transform="translate(-78.18 -250.85)"/>
            </g>
          </g>
          <g>
            <rect class="cls-54" x="1667.88" y="1114.49" width="312.77" height="47.49" rx="15.06"/>
            <path class="cls-55" d="M2042.64,1399.45H1762.23a16.18,16.18,0,0,1-16.18-16.18v13.37a16.18,16.18,0,0,0,16.18,16.18h280.41a16.17,16.17,0,0,0,16.18-16.18v-13.37A16.17,16.17,0,0,1,2042.64,1399.45Z" transform="translate(-78.18 -250.85)"/>
            <g class="cls-48">
              <rect class="cls-56" x="1684.06" y="1114.49" width="4.42" height="47.49"/>
              <rect class="cls-56" x="1709.19" y="1114.49" width="4.42" height="47.49"/>
              <rect class="cls-56" x="1734.33" y="1114.49" width="4.42" height="47.49"/>
              <rect class="cls-56" x="1759.47" y="1114.49" width="4.42" height="47.49"/>
              <rect class="cls-56" x="1784.61" y="1114.49" width="4.42" height="47.49"/>
              <rect class="cls-56" x="1809.75" y="1114.49" width="4.42" height="47.49"/>
              <rect class="cls-56" x="1834.89" y="1114.49" width="4.42" height="47.49"/>
              <rect class="cls-56" x="1860.02" y="1114.49" width="4.42" height="47.49"/>
              <rect class="cls-56" x="1885.16" y="1114.49" width="4.42" height="47.49"/>
              <rect class="cls-56" x="1910.3" y="1114.49" width="4.42" height="47.49"/>
              <rect class="cls-56" x="1935.44" y="1114.49" width="4.42" height="47.49"/>
              <rect class="cls-56" x="1960.58" y="1114.49" width="4.42" height="47.49"/>
            </g>
          </g>
        </g>
        <path class="cls-57" d="M2543.78,1972.36H85.9a7.72,7.72,0,0,1-7.72-7.72h0a7.72,7.72,0,0,1,7.72-7.72H2543.78a7.72,7.72,0,0,1,7.72,7.72h0A7.72,7.72,0,0,1,2543.78,1972.36Z" transform="translate(-78.18 -250.85)"/>
        <path class="cls-10" d="M1436,652.8l-.77.07v.42l4.11,4.83,1.16.24s8-.33,12.78,2.07S1452.85,651.37,1436,652.8Z" transform="translate(-78.18 -250.85)"/>
        <path class="cls-3" d="M1269,717.55q-3.18,6.94-6.54,13.81c-2.22,4.58-4.49,9.13-6.76,13.69l-6.89,13.63-3.46,6.81c-1.16,2.27-2.3,4.54-3.34,6.86,1.7-4.81,3.84-9.45,6-14.07s4.39-9.19,6.66-13.75,4.61-9.09,7-13.58S1266.48,722,1269,717.55Z" transform="translate(-78.18 -250.85)"/>
        <path class="cls-3" d="M1232.38,772.71a117.14,117.14,0,0,1,19.28-1.06,136.68,136.68,0,0,1,19.26,1.78,131.89,131.89,0,0,1,18.81,4.57l4.57,1.63a10.58,10.58,0,0,1,1.14.43l1.09.52,2.18,1c1.44.72,2.88,1.46,4.29,2.22s2.82,1.57,4.16,2.46c-2.82-1.55-5.74-2.88-8.69-4.16l-2.21-.95-1.11-.47c-.35-.16-.75-.25-1.13-.38l-4.57-1.47a157.82,157.82,0,0,0-18.71-4.28,163.35,163.35,0,0,0-19.11-2c-3.21-.13-6.41-.25-9.62-.21S1235.58,772.47,1232.38,772.71Z" transform="translate(-78.18 -250.85)"/>
        <path class="cls-10" d="M1319.79,789.65c-6.66-4-15.15-4-22.08-3l-1,.2c-5.44,1.15-5.23,4.12-4.82,5.47a1,1,0,0,0,1,.71c.84,0,1.92.1,3.39.26,8.51,1-.06,10.78,3.26,10.94,4.2.2,3.41-9,5.6-8.75,4.11.46-1.14,8.42,1.57,9,3,.62.87-9.28,5.6-8.83,2.53.25-1,9.13,2,8.59,3.15-.57.79-8.59,3.67-8.34,4.27.36-1.31,8,1.84,8.58C1321.68,804.83,1324.5,792.46,1319.79,789.65Z" transform="translate(-78.18 -250.85)"/>
        <path class="cls-58" d="M1349.7,654.39c-1.82,4-.72,8.4,2.47,9.87s7.26-.59,9.09-4.57.72-8.41-2.47-9.87S1351.53,650.4,1349.7,654.39Z" transform="translate(-78.18 -250.85)"/>
        <path class="cls-10" d="M1347.52,678.08a33.18,33.18,0,0,0,2.79-5.44,63.31,63.31,0,0,0,4.06-15.45c.15-1,.35-2.06.58-3.08a33.94,33.94,0,1,0-67.06-8.75,7.32,7.32,0,0,0-6.58-.8c-4.1,1.62-5.78,7.09-3.75,12.22s7,8,11.11,6.34a6.5,6.5,0,0,0,1.56-.89c1,16.67,14,30.07,30.35,30.5a30.49,30.49,0,0,0,21-7.7,14.46,14.46,0,0,0,1.19-1A29.21,29.21,0,0,0,1347.52,678.08Z" transform="translate(-78.18 -250.85)"/>
        <path class="cls-59" d="M1318.21,649.61a3,3,0,1,1-2.88-3A3,3,0,0,1,1318.21,649.61Z" transform="translate(-78.18 -250.85)"/>
        <path class="cls-59" d="M1343.6,652a3,3,0,1,1-2.88-3A3,3,0,0,1,1343.6,652Z" transform="translate(-78.18 -250.85)"/>
        <path class="cls-3" d="M1321.94,643.83a28.32,28.32,0,0,0-4.19-1.51,14.56,14.56,0,0,0-4.11-.51,13.39,13.39,0,0,0-4.07.7l-.51.14c-.18.05-.33.14-.51.2l-1,.4c-.69.28-1.34.65-2.1.92a13,13,0,0,1,1.52-1.81,10.94,10.94,0,0,1,1.94-1.41,9.62,9.62,0,0,1,4.71-1.29,10,10,0,0,1,4.76,1.08A9.25,9.25,0,0,1,1321.94,643.83Z" transform="translate(-78.18 -250.85)"/>
        <path class="cls-3" d="M1333.84,644.75a9.39,9.39,0,0,1,4-2.5,10.13,10.13,0,0,1,4.87-.34,9.72,9.72,0,0,1,4.45,2,10.45,10.45,0,0,1,1.7,1.69,13.63,13.63,0,0,1,1.23,2c-.72-.38-1.3-.85-1.94-1.23l-1-.55c-.16-.09-.3-.2-.47-.28l-.48-.22a13.76,13.76,0,0,0-3.91-1.31,15.1,15.1,0,0,0-4.15-.14A29.22,29.22,0,0,0,1333.84,644.75Z" transform="translate(-78.18 -250.85)"/>
        <path class="cls-58" d="M1328,647.16a41.72,41.72,0,0,1,2.76,5,40.94,40.94,0,0,1,2.12,5.32,15.47,15.47,0,0,1,.6,2.88,5.39,5.39,0,0,1,0,.8c0,.13,0,.28-.07.43a2,2,0,0,1-.2.46l-.17.24-.15.13a3.47,3.47,0,0,1-.29.25,5.27,5.27,0,0,1-.62.43,13.38,13.38,0,0,1-2.61,1.27,17.61,17.61,0,0,1-2.75.79,31,31,0,0,0,4.84-2.8c.18-.13.34-.29.5-.43l.23-.23.11-.11,0-.06a2.21,2.21,0,0,0,.06-1.07,16.35,16.35,0,0,0-.62-2.65c-.53-1.77-1.2-3.53-1.84-5.3S1328.57,649,1328,647.16Z" transform="translate(-78.18 -250.85)"/>
        <path class="cls-3" d="M1301,603.37s10.26-7.59,31.94-4.44,24.89,15.24,24.78,32.11l-2,18.34s-6-5-12.06-22.23c0,0-13.34,13.13-18.52,11s3-11.69,3-11.69-25.57,20.33-40.21,19.09c0,0-6.73-26.79,4.91-35.37,0,0-8.23-.28-8.53-2s4.24-3.83,12-2.24c0,0-4.7-11.79-1.47-12.71S1301,603.37,1301,603.37Z" transform="translate(-78.18 -250.85)"/>
        <path class="cls-60" d="M1335,672.29c-1.34,3.46-5.87,5.65-10.91,5s-8.92-3.83-9.39-7.51Z" transform="translate(-78.18 -250.85)"/>
        <g>
          <polygon class="cls-10" points="1602.61 1685.46 1602.61 1669.59 1584.45 1664.56 1580.41 1666.33 1579.72 1685.46 1585.44 1702.13 1602.61 1685.46"/>
          <g>
            <polygon class="cls-10" points="1486.57 1685.46 1486.57 1669.59 1468.41 1664.56 1464.37 1666.33 1463.68 1685.46 1469.4 1702.13 1486.57 1685.46"/>
            <path class="cls-61" d="M1548.79,1420.6s-23.83,28.3-79.94,33.3-14.1,34.62-14.1,34.62,67.62,9.74,91.24-6.13S1548.79,1420.6,1548.79,1420.6Z" transform="translate(-78.18 -250.85)"/>
            <polygon class="cls-3" points="1447.08 1359.93 1459.96 1673.97 1489.97 1673.97 1516.41 1436.6 1481.74 1330.26 1447.08 1359.93"/>
            <path class="cls-3" d="M1538.14,1611.44l117.55,313.38,28.79-2.35s-35.84-287.31-57.28-314.63-68.45-21.45-68.45-21.45Z" transform="translate(-78.18 -250.85)"/>
            <path class="cls-62" d="M1603.73,1367.32s6.25-32.42-12-43.82-37.08-9.39-49.66-1.71-19.32,33.11-13,47.27l42.14-15.25Z" transform="translate(-78.18 -250.85)"/>
            <path class="cls-10" d="M1551.18,1420.88s14.53,8.61,25.84,0h0l-2.67-21-22.51-4.63-.66,25.64Z" transform="translate(-78.18 -250.85)"/>
            <path class="cls-58" d="M1536.28,1366.66c1.3,3.95-.29,8-3.56,9s-7-1.38-8.26-5.34.3-8,3.56-9S1535,1362.7,1536.28,1366.66Z" transform="translate(-78.18 -250.85)"/>
            <path class="cls-10" d="M1535.58,1389.15a31.11,31.11,0,0,1-2-5.43,57.47,57.47,0,0,1-2.1-15c0-1-.09-2-.19-3a31.07,31.07,0,0,1,1.27-12.31c4.17-13.49,17.25-22.89,31.78-22.82,19.58.09,34.46,16.21,33,34.61a7.36,7.36,0,0,1,6.46,0c3.79,2,4.76,7.33,2.18,11.9s-7.73,6.68-11.51,4.68a6.21,6.21,0,0,1-1.4-1,30.89,30.89,0,0,1-33,25.14,30,30,0,0,1-19.43-9.65,12.48,12.48,0,0,1-1-1.1A27.4,27.4,0,0,1,1535.58,1389.15Z" transform="translate(-78.18 -250.85)"/>
            <path class="cls-59" d="M1565.19,1366.17a2.83,2.83,0,0,0,2.6,3.06,2.86,2.86,0,0,0,3.15-2.52,2.82,2.82,0,0,0-2.6-3.06A2.86,2.86,0,0,0,1565.19,1366.17Z" transform="translate(-78.18 -250.85)"/>
            <path class="cls-59" d="M1542.49,1365.07a2.82,2.82,0,0,0,2.6,3,2.88,2.88,0,0,0,3.16-2.52,2.83,2.83,0,0,0-2.61-3A2.87,2.87,0,0,0,1542.49,1365.07Z" transform="translate(-78.18 -250.85)"/>
            <path class="cls-62" d="M1562.26,1360.32a28,28,0,0,1,4.24-.94,14.84,14.84,0,0,1,4,0,13.44,13.44,0,0,1,3.85,1.12l.49.19c.16.07.3.17.46.25l.94.49c.64.34,1.22.77,1.93,1.11a12.25,12.25,0,0,0-1.26-1.87,10.45,10.45,0,0,0-1.71-1.54,9.5,9.5,0,0,0-4.41-1.76,10.1,10.1,0,0,0-4.74.47A9.12,9.12,0,0,0,1562.26,1360.32Z" transform="translate(-78.18 -250.85)"/>
            <path class="cls-62" d="M1552.8,1359.44a9.11,9.11,0,0,0-3.6-2.81,10.11,10.11,0,0,0-4.67-.87,9.54,9.54,0,0,0-4.55,1.37,10.65,10.65,0,0,0-1.85,1.39,12.43,12.43,0,0,0-1.43,1.75c.73-.28,1.36-.65,2-.94l1-.4c.16-.07.31-.15.48-.21l.5-.15a13.64,13.64,0,0,1,4-.78,14.23,14.23,0,0,1,4,.35A26.45,26.45,0,0,1,1552.8,1359.44Z" transform="translate(-78.18 -250.85)"/>
            <path class="cls-58" d="M1557.33,1359.37a20.65,20.65,0,0,1,.39,6,15.62,15.62,0,0,1-.5,3.06,7.7,7.7,0,0,1-1.5,3l-.34.34-.31.29a2.62,2.62,0,0,0-.42.39,2.28,2.28,0,0,0-.51.92,2.6,2.6,0,0,0,.42,2.14,8.54,8.54,0,0,0,4.7,3,7.13,7.13,0,0,1-5.94-2.16,4,4,0,0,1-1-3.42,3.24,3.24,0,0,1,.32-.92,3.55,3.55,0,0,1,.52-.8,4.57,4.57,0,0,1,.66-.66,2.4,2.4,0,0,0,.23-.23l.2-.19a7.45,7.45,0,0,0,1.2-2.28,23.62,23.62,0,0,0,.77-2.75C1556.62,1363.29,1557,1361.35,1557.33,1359.37Z" transform="translate(-78.18 -250.85)"/>
            <path class="cls-60" d="M1548.39,1382.49c1,3.44,5.2,6,10.23,5.89s9.16-2.77,10-6.24Z" transform="translate(-78.18 -250.85)"/>
            <path class="cls-62" d="M1596.39,1366.29a5.2,5.2,0,0,1,3.4-1.7l-1.29-10.36-3.47-6.14s-13.31-16.35-13.77-16.75-10.33-5.48-10.94-5.73-14,2.31-14,2.31-24-3.93-19.48,8.35,22.13,18.12,23,17.54c-2.93-2.68-3.53-10.59-3.53-10.59C1569.08,1356.08,1592.71,1365,1596.39,1366.29Z" transform="translate(-78.18 -250.85)"/>
            <g>
              <path class="cls-3" d="M1516.24,1956.92l50.1,0a2.72,2.72,0,0,0,2.72-2.73V1954a2.72,2.72,0,0,0-2.73-2.72l-50.09,0a2.73,2.73,0,0,0-2.73,2.73v.14A2.74,2.74,0,0,0,1516.24,1956.92Z" transform="translate(-78.18 -250.85)"/>
              <path class="cls-63" d="M1566.51,1934.32l1.85,15.54c.23,1.92-.85,3.66-2.25,3.66l-48.95,0a3.56,3.56,0,0,1-3.2-2.28c-.69-1.53-.83-3.83,1.36-6.93,4.26-6,18-7.63,25.21-12.58a2.56,2.56,0,0,1,1.42-.44h22C1565.22,1931.31,1566.3,1932.58,1566.51,1934.32Z" transform="translate(-78.18 -250.85)"/>
            </g>
            <g>
              <path class="cls-3" d="M1631.66,1956.92l50.1,0a2.72,2.72,0,0,0,2.72-2.73V1954a2.72,2.72,0,0,0-2.73-2.72l-50.09,0a2.73,2.73,0,0,0-2.73,2.73v.14A2.73,2.73,0,0,0,1631.66,1956.92Z" transform="translate(-78.18 -250.85)"/>
              <path class="cls-63" d="M1681.93,1934.32l1.85,15.54c.22,1.92-.85,3.66-2.26,3.66l-49,0a3.55,3.55,0,0,1-3.19-2.28c-.69-1.53-.83-3.83,1.36-6.93,4.26-6,18-7.63,25.21-12.58a2.55,2.55,0,0,1,1.41-.44h22C1680.63,1931.31,1681.72,1932.58,1681.93,1934.32Z" transform="translate(-78.18 -250.85)"/>
            </g>
            <path class="cls-61" d="M1371.31,1443.81l1.79-.35L1473.19,1424a19.18,19.18,0,0,1,22.68,16.41L1526.48,1682a19.14,19.14,0,0,1-10.34,19.51c-16.57,8.36-48.87,22.74-87.9,30.33s-74.37,6.35-92.86,4.81a19.15,19.15,0,0,1-16.9-14.21L1256.34,1487a19.17,19.17,0,0,1,14.88-23.71Z" transform="translate(-78.18 -250.85)"/>
            <path class="cls-3" d="M1240.56,1436.15c.75-10.11,6.19-17.77,13.65-19.22l107.8-21,1.79-.35,107.8-20.95c7.46-1.45,15.37,3.61,19.85,12.7l15,30.3a14.38,14.38,0,0,1-10.15,20.47l-119.66,23.26-1.8.35L1255.13,1485a14.36,14.36,0,0,1-17.07-15.17Z" transform="translate(-78.18 -250.85)"/>
            <path class="cls-3" d="M1251,1399.56a8.23,8.23,0,0,1,6.5-9.65l99.57-19.35,1.79-.35,99.56-19.36a8.24,8.24,0,0,1,9.65,6.51l4.71,24.21-109.86,14.28-107.21,27.93Z" transform="translate(-78.18 -250.85)"/>
            <path class="cls-64" d="M1445.75,1527.25a.89.89,0,0,1-.35,1.53c-5.29,1.44-21.94,6.06-21.88,7.49.07,1.7,15-2.07,15.92-.75s-13.82,4.62-13.45,6.43,13.66-1.66,14.08-1-12,5.39-12.38,6.58,13.41-2.19,14.16-1.48-8,6.23-7.63,7,.51,1.41,23.8-5.34l9.06-3,6.05-6.48-4.53-9.65s-29.17-11.09-30.22-10.35S1437.59,1520,1445.75,1527.25Z" transform="translate(-78.18 -250.85)"/>
            <path class="cls-61" d="M1463.86,1516.77c11.5,2.74,38.58,1.38,59.09-.24.17-17,.82-32.75,2.31-43.83,5.28-39.37,23.53-52.1,23.53-52.1a45.32,45.32,0,0,0,30.81-7.54c24.39.3,38.49,13.52,38.49,13.52,37.46,32.31,9.11,98.41,9.11,98.41l10.28,87.34c-23.21,7.93-118.1,3.16-118.1,3.16s4.64-27.81,4-56.12c-30.07-1.69-59.48-6.47-59.48-6.47C1462.68,1546.44,1463.86,1516.77,1463.86,1516.77Z" transform="translate(-78.18 -250.85)"/>
            <path class="cls-15" d="M1589.1,1457.91a49.23,49.23,0,0,1-14.71,34.66,64,64,0,0,1-15.43,11.29,88.2,88.2,0,0,1-17.85,7.16c-.78.23-1.54.5-2.32.7l-2.35.57c-1.56.38-3.12.8-4.7,1.14l-4.76.89-2.38.45-2.4.33c-3.21.46-6.41.94-9.64,1.18l-4.84.44c-1.61.13-3.23.19-4.85.28a384.66,384.66,0,0,1-39-.23,253.83,253.83,0,0,0,39.09,2.29c13.07-.35,26.24-1.75,38.9-5.5a88.86,88.86,0,0,0,18.3-7.51,63.19,63.19,0,0,0,15.73-12,52,52,0,0,0,6.08-7.86,53.11,53.11,0,0,0,4.39-8.88,50.43,50.43,0,0,0,2.44-9.56A36.93,36.93,0,0,0,1589.1,1457.91Z" transform="translate(-78.18 -250.85)"/>
            <path class="cls-15" d="M1463.86,1552.9a330.27,330.27,0,0,0,43.15,6.58,291.58,291.58,0,0,0,43.74.77c14.55-1,29.2-3.16,43-8.29a74.53,74.53,0,0,0,19.37-10.36A48.33,48.33,0,0,0,1627.2,1525a50,50,0,0,1-14.84,15.56,77.44,77.44,0,0,1-19.3,9.47,134.5,134.5,0,0,1-21,5.17,201.21,201.21,0,0,1-21.52,2.42,351.29,351.29,0,0,1-43.41-.17q-10.86-.68-21.69-1.81C1478.25,1554.92,1471.05,1554,1463.86,1552.9Z" transform="translate(-78.18 -250.85)"/>
          </g>
        </g>
        <g>
          <path class="cls-65" d="M788.1,1310.22c-10.52,0-28.37-7-47.8,5.65-5.5,3.58-9,9.42-11.24,15.59a102.12,102.12,0,0,0-4.21,16.9c-1.91,11.13-28.58,8.31-37.72,27.82-11.89,25.37,9,48.26,24.28,65.79,33.07,38.08,75.76,28,86.25,33,7.54,3.62,2-11.68,10.32-11.14s18,.36,22.74-6.42c2.69-3.87,2.89-8.93,4.8-13.25,2.66-6,8.36-10.1,13.79-13.85,6.87-4.72,13.77-9.48,21.3-13,8-3.78,52.72-8.4,39.36-66-5.18-22.33-18.38-35.61-32.09-45.2-9.84-6.88-19-9.36-32.71-9.73C813.6,1295.48,815.84,1310.22,788.1,1310.22Z" transform="translate(-78.18 -250.85)"/>
          <g>
            <polygon class="cls-10" points="827.95 1422.62 823.86 1683.22 817.21 1702.02 797.24 1683.22 778.3 1415.94 827.95 1422.62"/>
            <path class="cls-10" d="M786.9,1682.28h50s-23.52,250.23-23.35,251.78-8.42,12.8-8.42,12.8l-18.19-12.8Z" transform="translate(-78.18 -250.85)"/>
            <path class="cls-3" d="M918.07,1894.36c-14.2,5.69-36.24,11.38-60.59,6.18L853,1692.42l-3.38-36.64a52.24,52.24,0,0,1-4.06,3.29l-12.16,237.77s-27,9.85-60,3.76c-.11-14.3,8.76-232.58,8.85-242.72.65-73.19,23.27-83.9,23.27-83.9l38.52-9.75,8.46,1.46c13.46-4.43,37.83-9.48,47.86,7.34,14.21,23.81,13.37,97.22,13.37,97.22S918.18,1884.29,918.07,1894.36Z" transform="translate(-78.18 -250.85)"/>
            <path class="cls-10" d="M887.78,1499.57l36.12-16.72-3.28,38.26s68.4-31,71.85-34.18c1.15-1,2.47-3.78,3.73-7a70.47,70.47,0,0,0,3-10.38c1.2-5.31,5.74-9.56,7.27-11a21.69,21.69,0,0,0,3-5.87,1.11,1.11,0,0,1,2.16.11l.37,2.4a12.28,12.28,0,0,1-1,6.06l.95-.36,1.58,16.09-1.93,14.06-10.83,8.15s-95.3,68.6-104,59.64C887.46,1549.28,887.78,1499.57,887.78,1499.57Z" transform="translate(-78.18 -250.85)"/>
            <path class="cls-66" d="M896,1418.65s7.4,1.76,18.1,15,20.24,49.88,20.24,49.88l-34.17,18.67L877.93,1458Z" transform="translate(-78.18 -250.85)"/>
            <path class="cls-67" d="M799.17,1629.89c3.61,1.33,7.16,2.77,10.68,4.29s7,3.14,10.43,4.8,6.87,3.37,10.27,5.14,6.77,3.56,10.09,5.43l.27-.64a70.1,70.1,0,0,0-7.58-1.16c-2.55-.26-5.11-.36-7.66-.37a65,65,0,0,0-7.64.44l-1.9.25-1.88.34-.94.17-.93.22-1.85.45,1.87-.36.93-.19.95-.13,1.88-.27,1.9-.18c.63-.07,1.26-.1,1.9-.13s1.27-.09,1.9-.09l1.9,0c.64,0,1.27,0,1.91,0,2.53,0,5.06.23,7.58.5a69.15,69.15,0,0,1,7.49,1.21l2.27.5-2-1.14q-5-2.85-10.11-5.47t-10.33-5.08c-3.47-1.62-7-3.14-10.55-4.6-1.79-.71-3.57-1.42-5.39-2.06S801,1630.49,799.17,1629.89Z" transform="translate(-78.18 -250.85)"/>
            <path class="cls-67" d="M900.32,1628.44c-1.83.59-3.66,1.18-5.46,1.85s-3.6,1.35-5.39,2.06c-3.55,1.46-7.08,3-10.55,4.6s-6.91,3.33-10.33,5.08-6.77,3.57-10.11,5.47l-2,1.14,2.27-.5a69.15,69.15,0,0,1,7.49-1.21c2.52-.28,5-.46,7.58-.51.64,0,1.27,0,1.91,0l1.9,0c.64,0,1.27.07,1.9.1s1.27.06,1.9.13l1.9.18,1.88.27.95.13.93.19,1.88.36-1.86-.45-.93-.22-.94-.17-1.88-.34-1.9-.25a61,61,0,0,0-7.64-.44c-2.55,0-5.11.11-7.66.36a72.7,72.7,0,0,0-7.58,1.17l.27.64c3.32-1.87,6.71-3.65,10.1-5.43s6.81-3.48,10.26-5.14,6.92-3.28,10.43-4.81S896.71,1629.77,900.32,1628.44Z" transform="translate(-78.18 -250.85)"/>
            <path class="cls-68" d="M821.09,1598a10.25,10.25,0,0,1-.5,1.06l-.55,1-1.11,2.08-1.86,3.45-5.28,9.17c-.73,1.39-7.66,13.45-9.3,16.15,2-2.43,4.5-4.85,6.16-7.53.84-1.34,1.62-2.71,2.41-4.08s1.53-2.76,2.28-4.15c1.46-2.79,2.87-5.6,4.19-8.46q1-2.14,1.91-4.32c.3-.73.61-1.45.89-2.19A18.88,18.88,0,0,0,821.09,1598Z" transform="translate(-78.18 -250.85)"/>
            <path class="cls-69" d="M753.85,1461.3c15.54-18.75,33.49-39.09,49.18-47,6-3,20.26-3.63,28.55-5,0,0,21.61-2.67,42.92.15,11.5,4.21,31.58,11.33,31.85,18.14,1.31,34,1.69,60.11,1.51,80.11,0,.06.57,72.51,0,88,0,0-78.76,17-119,6.77,0,0-6.66-94.76,2.9-120.34l-4.07,5.18S771.48,1483.6,753.85,1461.3Z" transform="translate(-78.18 -250.85)"/>
            <path class="cls-10" d="M756.23,1464.24c10.68,13,22.51,19.89,28.43,22.07l-38.08,45.62L816.25,1607,804,1628.4c-9.69-4.7-11.88-22.52-11.88-22.52s-86.22-57.66-86.22-71.45C705.89,1516,756.23,1464.24,756.23,1464.24Z" transform="translate(-78.18 -250.85)"/>
            <path class="cls-70" d="M755.62,1463.34c.6.67,1.14,1.39,1.76,2l1.85,1.95.91,1,1,.93,1.94,1.87c.65.61,1.34,1.18,2,1.78,1.31,1.21,2.78,2.25,4.15,3.39a76.06,76.06,0,0,0,9,5.77l1.18.63,1.2.58c.8.4,1.62.75,2.44,1.1.4.18.82.33,1.23.49s.83.33,1.24.47c.57.21,1.16.4,1.72.57l4.17-5,4.74-5.56c3.14-3.72,6.36-7.39,9.55-11.07s6.46-7.31,9.74-10.93,6.57-7.21,10-10.74c-2.89,3.92-5.88,7.77-8.89,11.6s-6.06,7.62-9.12,11.41-6.15,7.55-9.3,11.27l-4.68,5.61-4.74,5.56-.52.61-.75-.2c-1-.26-1.85-.55-2.75-.88s-1.75-.68-2.59-1.07-1.7-.78-2.52-1.21c-.41-.22-.83-.42-1.23-.65l-1.21-.68a65.6,65.6,0,0,1-9-6.32l-2-1.82c-.7-.6-1.34-1.24-2-1.89s-1.3-1.27-1.92-1.94l-1.8-2-.9-1-.84-1.06-1.66-2.14c-1.08-1.45-2-3-3-4.45Z" transform="translate(-78.18 -250.85)"/>
            <path class="cls-10" d="M866.35,1408.68s-15.64,9.27-27.82,0h0l2.87-22.63,24.24-5,.71,27.62Z" transform="translate(-78.18 -250.85)"/>
            <path class="cls-58" d="M866,1395.82l-.38-14.76-24.59,7.65-.69,5.53C845.82,1396.22,856.19,1398.62,866,1395.82Z" transform="translate(-78.18 -250.85)"/>
            <path class="cls-58" d="M883.7,1344.19c-.66,4.43,1.77,8.41,5.41,8.88s7.14-2.73,7.8-7.16-1.77-8.41-5.42-8.89S884.35,1339.76,883.7,1344.19Z" transform="translate(-78.18 -250.85)"/>
            <path class="cls-10" d="M888.54,1367.93a33.9,33.9,0,0,0,1.19-6.13,61.85,61.85,0,0,0-.5-16.27c-.16-1-.26-2.11-.34-3.17a33.51,33.51,0,0,0-3.58-12.83c-6.89-13.56-22.48-21.16-37.89-18.44-20.77,3.66-33.62,23.48-28.67,42.75a7.9,7.9,0,0,0-6.86,1.18c-3.65,2.81-3.72,8.64-.15,13s9.42,5.67,13.07,2.87a6.34,6.34,0,0,0,1.3-1.34,33.27,33.27,0,0,0,39.65,20.67,32.37,32.37,0,0,0,18.87-13.78,16.06,16.06,0,0,0,.9-1.36A30,30,0,0,0,888.54,1367.93Z" transform="translate(-78.18 -250.85)"/>
            <path class="cls-59" d="M850.55,1348.93a3,3,0,0,1-2.2,3.72,3.1,3.1,0,0,1-3.81-2.1,3,3,0,0,1,2.21-3.72A3.07,3.07,0,0,1,850.55,1348.93Z" transform="translate(-78.18 -250.85)"/>
            <path class="cls-59" d="M876.82,1343.64a3,3,0,0,1-2.2,3.71,3.08,3.08,0,0,1-3.81-2.1,3,3,0,0,1,2.2-3.72A3.1,3.1,0,0,1,876.82,1343.64Z" transform="translate(-78.18 -250.85)"/>
            <path class="cls-71" d="M852.59,1342.19a30,30,0,0,0-4.67-.23,15.62,15.62,0,0,0-4.29.74,14.28,14.28,0,0,0-3.89,1.89l-.48.29c-.16.1-.29.24-.44.34l-.92.7c-.61.48-1.16,1-1.84,1.52a12.83,12.83,0,0,1,1-2.21,11.32,11.32,0,0,1,1.53-2,10.31,10.31,0,0,1,4.36-2.67,11,11,0,0,1,5.12-.36A9.83,9.83,0,0,1,852.59,1342.19Z" transform="translate(-78.18 -250.85)"/>
            <path class="cls-72" d="M864.85,1339.53a9.82,9.82,0,0,1,3.31-3.63,11,11,0,0,1,4.8-1.78,10.4,10.4,0,0,1,5.08.63,10.82,10.82,0,0,1,2.22,1.14,12.2,12.2,0,0,1,1.83,1.6c-.83-.16-1.55-.45-2.31-.63l-1.12-.25c-.19,0-.37-.1-.55-.13l-.56-.07a14.33,14.33,0,0,0-4.33-.11,15.75,15.75,0,0,0-4.22,1.1A32,32,0,0,0,864.85,1339.53Z" transform="translate(-78.18 -250.85)"/>
            <path class="cls-58" d="M860,1340.28a22.87,22.87,0,0,0,.68,6.48,17.05,17.05,0,0,0,1.09,3.15,8.24,8.24,0,0,0,2.14,2.92l.43.3.38.25a3.77,3.77,0,0,1,.51.34,2.42,2.42,0,0,1,.72.88,2.84,2.84,0,0,1-.06,2.35c-.72,1.71-2.48,3.06-4.44,4.09a7.71,7.71,0,0,0,5.92-3.37,4.32,4.32,0,0,0,.45-3.82,3.41,3.41,0,0,0-.5-.92,4.21,4.21,0,0,0-.7-.76,4.62,4.62,0,0,0-.82-.57c-.17-.11-.2-.15-.29-.21l-.24-.16a8.06,8.06,0,0,1-1.69-2.2,27.15,27.15,0,0,1-1.32-2.77C861.5,1344.32,860.8,1342.32,860,1340.28Z" transform="translate(-78.18 -250.85)"/>
            <path class="cls-60" d="M873.73,1363.21c-.4,3.82-4.43,7.28-9.78,8.1s-10.23-1.27-11.76-4.79Z" transform="translate(-78.18 -250.85)"/>
            <path class="cls-64" d="M1020.18,1471.25a26.55,26.55,0,0,0-.28-3.75,4.14,4.14,0,0,0-2.88-3.09l-1.67-.51-.15,3.76h0c.14,2.87.19,2.67-3.78,4.4-5.67,2.46-3.3,5.43-3.3,5.43s1.57,2.11,8.51-1.36C1016.63,1476.13,1020,1474.38,1020.18,1471.25Z" transform="translate(-78.18 -250.85)"/>
            <g>
              <path class="cls-60" d="M845.22,1956.92l-59.46,0a3.33,3.33,0,0,1-3.32-3.33h0a3.33,3.33,0,0,1,3.33-3.32l59.46,0a3.33,3.33,0,0,1,3.32,3.33h0A3.33,3.33,0,0,1,845.22,1956.92Z" transform="translate(-78.18 -250.85)"/>
              <path class="cls-73" d="M785.48,1930l-2.2,18.5c-.27,2.28,1,4.35,2.68,4.36l58.26,0a4.23,4.23,0,0,0,3.8-2.72c.82-1.82,1-4.56-1.62-8.25-5.07-7.17-21.4-9.08-30-15a3,3,0,0,0-1.69-.52l-26.18,0C787,1926.44,785.73,1928,785.48,1930Z" transform="translate(-78.18 -250.85)"/>
              <path class="cls-60" d="M811.55,1937.2h0a1.25,1.25,0,0,1-.34-1.51c1.15-2.53,4.73-8.7,12-7.43.42.07.71.63.64,1.21v0c-.06.55-.44.92-.85.85-6.52-1.12-9.56,4.32-10.49,6.45C812.3,1937.24,811.9,1937.42,811.55,1937.2Z" transform="translate(-78.18 -250.85)"/>
              <path class="cls-60" d="M817.59,1939.59h0a1.26,1.26,0,0,1-.33-1.51c1.15-2.54,4.73-8.71,12-7.43.42.07.71.63.64,1.2v0c-.07.56-.44.92-.85.85-6.52-1.11-9.56,4.33-10.49,6.45C818.35,1939.62,817.94,1939.8,817.59,1939.59Z" transform="translate(-78.18 -250.85)"/>
              <path class="cls-60" d="M823.22,1941.81h0a1.26,1.26,0,0,1-.33-1.51c1.15-2.53,4.72-8.7,12-7.43a1,1,0,0,1,.63,1.21v0c-.07.56-.45.92-.86.85-6.51-1.12-9.56,4.32-10.48,6.45C824,1941.85,823.57,1942,823.22,1941.81Z" transform="translate(-78.18 -250.85)"/>
            </g>
            <g>
              <path class="cls-60" d="M931.72,1956.92l-59.45,0a3.33,3.33,0,0,1-3.33-3.33h0a3.33,3.33,0,0,1,3.33-3.32l59.46,0a3.32,3.32,0,0,1,3.32,3.33h0A3.33,3.33,0,0,1,931.72,1956.92Z" transform="translate(-78.18 -250.85)"/>
              <path class="cls-74" d="M872,1930l-2.2,18.5c-.27,2.28,1,4.35,2.68,4.36l58.26,0a4.23,4.23,0,0,0,3.8-2.72c.82-1.82,1-4.56-1.62-8.25-5.07-7.17-21.4-9.08-30-15a3,3,0,0,0-1.69-.52l-26.17,0C873.52,1926.44,872.23,1928,872,1930Z" transform="translate(-78.18 -250.85)"/>
              <path class="cls-60" d="M898.05,1937.2h0a1.25,1.25,0,0,1-.33-1.51c1.14-2.53,4.72-8.7,12-7.43.42.07.7.63.63,1.21v0c-.07.55-.45.92-.86.85-6.52-1.12-9.56,4.32-10.49,6.45C898.8,1937.24,898.4,1937.42,898.05,1937.2Z" transform="translate(-78.18 -250.85)"/>
              <path class="cls-60" d="M904.1,1939.59h0a1.25,1.25,0,0,1-.33-1.51c1.14-2.54,4.72-8.71,12-7.43.42.07.7.63.63,1.2v0c-.07.56-.45.92-.86.85-6.52-1.11-9.56,4.33-10.49,6.45C904.85,1939.62,904.45,1939.8,904.1,1939.59Z" transform="translate(-78.18 -250.85)"/>
              <path class="cls-60" d="M909.72,1941.81h0a1.26,1.26,0,0,1-.33-1.51c1.15-2.53,4.73-8.7,12-7.43a1,1,0,0,1,.63,1.21v0c-.07.56-.45.92-.85.85-6.52-1.12-9.57,4.32-10.49,6.45C910.48,1941.85,910.07,1942,909.72,1941.81Z" transform="translate(-78.18 -250.85)"/>
            </g>
            <path class="cls-10" d="M999.54,1465.34s-.61.5-1.11,3.67-2.06,13.31-1.36,13.65,5.45-.57,5.45-.57.41-10.75-.67-12.41A43.43,43.43,0,0,1,999.54,1465.34Z" transform="translate(-78.18 -250.85)"/>
            <path class="cls-3" d="M1009.8,1298.13l107-75.68,11.86,16.76-100.86,71.35a18.26,18.26,0,0,0-7.75,15.68,1.38,1.38,0,0,0,0,.39v573.66H999.54V1314.87a18.36,18.36,0,0,1,7.9-15.1Z" transform="translate(-78.18 -250.85)"/>
            <path class="cls-10" d="M1021.41,1475.87a25,25,0,0,0-.28-3.75,4.11,4.11,0,0,0-2.88-3.09l-1.67-.51-.15,3.76h0c.14,2.87.2,2.67-3.78,4.39-5.67,2.47-3.3,5.44-3.3,5.44s1.58,2.11,8.51-1.36C1017.86,1480.75,1021.2,1479,1021.41,1475.87Z" transform="translate(-78.18 -250.85)"/>
            <path class="cls-10" d="M1022,1479.09a25.54,25.54,0,0,0-.26-3.57,3.93,3.93,0,0,0-2.75-2.94l-1.59-.49-.14,3.58h0c.13,2.73.19,2.54-3.6,4.18-5.4,2.35-3.14,5.18-3.14,5.18s1.5,2,8.1-1.3C1018.62,1483.73,1021.8,1482.07,1022,1479.09Z" transform="translate(-78.18 -250.85)"/>
            <path class="cls-10" d="M1021.13,1483.38a20,20,0,0,0-.22-3,3.33,3.33,0,0,0-2.33-2.48l-1.34-.41-.12,3h0c.11,2.32.16,2.15-3,3.54-4.57,2-2.65,4.38-2.65,4.38s1.27,1.7,6.85-1.09C1018.27,1487.31,1021,1485.9,1021.13,1483.38Z" transform="translate(-78.18 -250.85)"/>
            <path class="cls-58" d="M1010.24,1478.09a3.42,3.42,0,0,0-1.54,2.48,2.9,2.9,0,0,0,.38,1.49,1,1,0,0,0,.28.34,1.63,1.63,0,0,0,.35.23,3.44,3.44,0,0,0,.76.27,7.46,7.46,0,0,0,3.09-.16,19.19,19.19,0,0,0,2.88-1c.47-.18.91-.42,1.37-.64a6.22,6.22,0,0,0,1.29-.84,7.07,7.07,0,0,0,1.95-2.33,5.2,5.2,0,0,0,.48-1.44,4.74,4.74,0,0,0,.06-.75l0-.74a23.14,23.14,0,0,0-.43-2.89c.08,1,.12,1.94.11,2.9v.71a4.07,4.07,0,0,1-.1.7,5,5,0,0,1-.52,1.29,7.23,7.23,0,0,1-1.89,2.09,6.07,6.07,0,0,1-1.2.76c-.45.2-.89.43-1.34.61a18.62,18.62,0,0,1-2.77,1,7.28,7.28,0,0,1-2.84.27,1.67,1.67,0,0,1-1.14-.57,2.55,2.55,0,0,1-.41-1.28,2.69,2.69,0,0,1,.32-1.35A5.45,5.45,0,0,1,1010.24,1478.09Z" transform="translate(-78.18 -250.85)"/>
            <path class="cls-10" d="M1021.13,1486.91a20,20,0,0,0-.22-3,3.35,3.35,0,0,0-2.33-2.48l-1.34-.41-.12,3h0c.11,2.31.16,2.14-3,3.54-4.57,2-2.65,4.37-2.65,4.37s1.27,1.7,6.85-1.09C1018.27,1490.84,1021,1489.43,1021.13,1486.91Z" transform="translate(-78.18 -250.85)"/>
            <path class="cls-58" d="M1011.71,1489.1a2.23,2.23,0,0,0-.61,2.73,2,2,0,0,0,.14.23,1.39,1.39,0,0,0,.22.21,2.06,2.06,0,0,0,.49.25,4.39,4.39,0,0,0,2.06.14,10.4,10.4,0,0,0,1.94-.49,15.52,15.52,0,0,0,1.82-.77,7.64,7.64,0,0,0,.89-.47,5.93,5.93,0,0,0,.79-.61,4.52,4.52,0,0,0,1.68-3.41,5,5,0,0,1-2,3,6.92,6.92,0,0,1-.77.52,8.19,8.19,0,0,1-.84.4c-.58.26-1.17.51-1.77.71a10,10,0,0,1-1.82.49,4.2,4.2,0,0,1-1.8,0,1.52,1.52,0,0,1-.39-.16l-.14-.1-.12-.17a2.07,2.07,0,0,1-.29-.81,1.94,1.94,0,0,1,.09-.89A3.32,3.32,0,0,1,1011.71,1489.1Z" transform="translate(-78.18 -250.85)"/>
            <path class="cls-58" d="M1010.23,1482.68a2.39,2.39,0,0,0,0,2.09,1.25,1.25,0,0,0,.32.5,2.18,2.18,0,0,0,.5.31,3.7,3.7,0,0,0,1.11.28,10.32,10.32,0,0,0,4.32-.81c.68-.28,1.34-.56,2-.89a6.61,6.61,0,0,0,1.8-1.28,7.07,7.07,0,0,0,1.3-1.73,4.42,4.42,0,0,0,.48-2.06,5.77,5.77,0,0,1-2.12,3.44,7.68,7.68,0,0,1-1.73,1.1c-.64.3-1.29.58-1.94.84a18,18,0,0,1-2,.64,7.89,7.89,0,0,1-2,.27,3.6,3.6,0,0,1-1-.16,1.86,1.86,0,0,1-.42-.22,1,1,0,0,1-.28-.36A2.43,2.43,0,0,1,1010.23,1482.68Z" transform="translate(-78.18 -250.85)"/>
            <path class="cls-58" d="M1011.71,1485.57a2.36,2.36,0,0,0-.84,1.73,2.28,2.28,0,0,0,.23,1,1.49,1.49,0,0,0,.14.24,1.39,1.39,0,0,0,.22.21,2.06,2.06,0,0,0,.49.25,4.39,4.39,0,0,0,2.06.14,11.25,11.25,0,0,0,1.94-.49,15.52,15.52,0,0,0,1.82-.77,7.64,7.64,0,0,0,.89-.47,5.26,5.26,0,0,0,.79-.62,4.48,4.48,0,0,0,1.68-3.4,5,5,0,0,1-2,3,6.92,6.92,0,0,1-.77.52,8.19,8.19,0,0,1-.84.4c-.58.26-1.17.51-1.77.71a10,10,0,0,1-1.82.49,4.2,4.2,0,0,1-1.8,0,1.52,1.52,0,0,1-.39-.16l-.14-.1-.12-.17a2.06,2.06,0,0,1-.29-.82,1.9,1.9,0,0,1,.09-.88A3.32,3.32,0,0,1,1011.71,1485.57Z" transform="translate(-78.18 -250.85)"/>
            <path class="cls-70" d="M1015.14,1475.56s4.68-1.94,4.93-5.43V1468l-5.14-.83-.77,2.25Z" transform="translate(-78.18 -250.85)"/>
          </g>
          <path class="cls-75" d="M814.42,1349.39l.81-.18-.16-7.39,2.4-7.08s10.21-19.39,10.59-19.88,9-7.26,9.48-7.62,13.56.66,13.56.66,22-7.39,19.51,6.46-18.26,22.46-19.16,21.94c2.38-3.27,1.82-11.89,1.82-11.89-11.13,16.9-33.93,29.52-33.93,29.52s-2.69-1.79-6.86.35Z" transform="translate(-78.18 -250.85)"/>
        </g>
      </g>
    </g>
  </g>
</svg>
